<?xml version="1.0" encoding="utf-8" ?>
<svg baseProfile="tiny" fill="rgb(135,125,24)" height="400" stroke="black" stroke-opacity="1.0" stroke-width="0.5" version="1.2" width="400" xmlns="http://www.w3.org/2000/svg" xmlns:ev="http://www.w3.org/2001/xml-events" xmlns:xlink="http://www.w3.org/1999/xlink"><defs /><rect height="10" width="10" x="0.0" y="0.0" /><rect height="10" width="10" x="0.0" y="10.3047" /><rect height="10" width="10" x="0.0" y="23.7386" /><rect height="10" width="10" x="0.0" y="30.6487" /><rect height="10" width="10" x="0.0" y="41.5073" /><rect height="10" width="10" x="0.0" y="69.448" /><rect height="10" width="10" x="0.0" y="53.0994" /><rect height="10" width="10" x="0.0" y="58.6319" /><rect height="10" width="10" x="0.0" y="97.218" /><rect height="10" width="10" x="0.0" y="116.3989" /><rect height="10" width="10" x="14.4136" y="0.3422" /><rect height="10" width="10" x="5.6842" y="14.4326" /><rect height="10" width="10" x="15.1931" y="25.2521" /><rect height="10" width="10" x="6.7552" y="30.4988" /><rect height="10" width="10" x="12.1147" y="55.21" /><rect height="10" width="10" x="9.1928" y="61.4477" /><rect height="10" width="10" x="13.3548" y="89.0774" /><rect height="10" width="10" x="9.1427" y="89.3475" /><rect height="10" width="10" x="5.7474" y="53.2137" /><rect height="10" width="10" x="7.7212" y="60.9832" /><rect height="10" width="10" x="30.9027" y="-0.7195" /><rect height="10" width="10" x="16.8724" y="7.7106" /><rect height="10" width="10" x="14.9787" y="23.0031" /><rect height="10" width="10" x="18.2755" y="15.3974" /><rect height="10" width="10" x="27.3866" y="26.5962" /><rect height="10" width="10" x="23.4035" y="28.0742" /><rect height="10" width="10" x="28.5251" y="34.9351" /><rect height="10" width="10" x="14.3539" y="88.5798" /><rect height="10" width="10" x="9.3533" y="53.3803" /><rect height="10" width="10" x="29.0143" y="68.6839" /><rect height="10" width="10" x="17.4515" y="-0.9622" /><rect height="10" width="10" x="31.3014" y="8.7467" /><rect height="10" width="10" x="44.6744" y="29.8576" /><rect height="10" width="10" x="31.5095" y="29.2166" /><rect height="10" width="10" x="34.3612" y="45.1507" /><rect height="10" width="10" x="38.8437" y="44.4746" /><rect height="10" width="10" x="38.3966" y="74.4015" /><rect height="10" width="10" x="13.6345" y="93.7706" /><rect height="10" width="10" x="38.3663" y="83.3372" /><rect height="10" width="10" x="19.6895" y="51.5482" /><rect height="10" width="10" x="56.0074" y="0.4429" /><rect height="10" width="10" x="45.0564" y="3.5221" /><rect height="10" width="10" x="20.062" y="19.9713" /><rect height="10" width="10" x="19.7927" y="24.9211" /><rect height="10" width="10" x="41.9252" y="34.318" /><rect height="10" width="10" x="21.0827" y="38.6369" /><rect height="10" width="10" x="60.2699" y="39.2526" /><rect height="10" width="10" x="30.2294" y="60.0697" /><rect height="10" width="10" x="47.5156" y="111.9756" /><rect height="10" width="10" x="20.3159" y="79.6926" /><rect height="10" width="10" x="26.0958" y="1.3523" /><rect height="10" width="10" x="69.8877" y="7.6767" /><rect height="10" width="10" x="34.2046" y="9.6933" /><rect height="10" width="10" x="41.1749" y="25.7999" /><rect height="10" width="10" x="52.0328" y="33.2433" /><rect height="10" width="10" x="34.6841" y="65.022" /><rect height="10" width="10" x="35.142" y="71.948" /><rect height="10" width="10" x="63.2769" y="67.6239" /><rect height="10" width="10" x="47.9395" y="104.8769" /><rect height="10" width="10" x="33.8402" y="67.1025" /><rect height="10" width="10" x="74.4643" y="1.1489" /><rect height="10" width="10" x="43.3795" y="15.8626" /><rect height="10" width="10" x="27.6574" y="28.1333" /><rect height="10" width="10" x="28.1723" y="16.6632" /><rect height="10" width="10" x="74.059" y="18.9142" /><rect height="10" width="10" x="78.5089" y="76.466" /><rect height="10" width="10" x="43.6827" y="58.0044" /><rect height="10" width="10" x="87.8592" y="78.0051" /><rect height="10" width="10" x="64.7097" y="74.5975" /><rect height="10" width="10" x="35.5527" y="125.003" /><rect height="10" width="10" x="36.9436" y="1.5591" /><rect height="10" width="10" x="80.0013" y="14.7768" /><rect height="10" width="10" x="108.3367" y="26.3591" /><rect height="10" width="10" x="63.677" y="15.5442" /><rect height="10" width="10" x="71.3245" y="20.0824" /><rect height="10" width="10" x="76.5215" y="62.5111" /><rect height="10" width="10" x="33.0789" y="50.6416" /><rect height="10" width="10" x="70.3245" y="100.5415" /><rect height="10" width="10" x="45.5319" y="100.4185" /><rect height="10" width="10" x="38.6507" y="60.1174" /><rect height="10" width="10" x="106.9783" y="0.758" /><rect height="10" width="10" x="113.8995" y="5.6384" /><rect height="10" width="10" x="40.8775" y="28.6151" /><rect height="10" width="10" x="111.9629" y="20.7325" /><rect height="10" width="10" x="62.3239" y="16.1597" /><rect height="10" width="10" x="109.5792" y="28.5029" /><rect height="10" width="10" x="91.3815" y="65.4516" /><rect height="10" width="10" x="69.6147" y="85.9665" /><rect height="10" width="10" x="102.8252" y="74.2928" /><rect height="10" width="10" x="97.1718" y="50.0396" /><rect height="10" width="10" x="97.25" y="-3.6956" /><rect height="10" width="10" x="87.5278" y="13.6692" /><rect height="10" width="10" x="66.2912" y="5.6711" /><rect height="10" width="10" x="65.7183" y="30.0979" /><rect height="10" width="10" x="137.0556" y="41.5003" /><rect height="10" width="10" x="128.487" y="47.5138" /><rect height="10" width="10" x="132.9698" y="41.3519" /><rect height="10" width="10" x="81.2787" y="83.7524" /><rect height="10" width="10" x="61.4711" y="64.008" /><rect height="10" width="10" x="130.3061" y="90.6132" /></svg>