<?xml version='1.0' encoding='ASCII' standalone='yes'?>
<svg xmlns="http://www.w3.org/2000/svg" xmlns:ev="http://www.w3.org/2001/xml-events" xmlns:xlink="http://www.w3.org/1999/xlink" baseProfile="tiny" fill="rgb(135,125,24)" height="400" stroke="black" stroke-opacity="1.0" stroke-width="0.5" version="1.2" width="400">
  <defs/>
  <rect height="10" width="10" x="0.0" y="0.0"/>
  <rect height="10" width="10" x="0.0" y="7.8448"/>
  <rect height="10" width="10" x="0.0" y="25.7022"/>
  <rect height="10" width="10" x="0.0" y="38.7186"/>
  <rect height="10" width="10" x="0.0" y="51.4216"/>
  <rect height="10" width="10" x="0.0" y="61.8013"/>
  <rect height="10" width="10" x="0.0" y="58.3205"/>
  <rect height="10" width="10" x="0.0" y="38.2459"/>
  <rect height="10" width="10" x="0.0" y="73.8783"/>
  <rect height="10" width="10" x="0.0" y="105.6501"/>
  <rect height="10" width="10" x="9.0057" y="-0.0685"/>
  <rect height="10" width="10" x="8.4575" y="6.6829"/>
  <rect height="10" width="10" x="14.1926" y="25.4065"/>
  <rect height="10" width="10" x="6.2994" y="34.5269"/>
  <rect height="10" width="10" x="8.7387" y="58.04"/>
  <rect height="10" width="10" x="12.4888" y="51.6554"/>
  <rect height="10" width="10" x="7.6251" y="45.382"/>
  <rect height="10" width="10" x="5.4089" y="85.9409"/>
  <rect height="10" width="10" x="14.6704" y="79.0689"/>
  <rect height="10" width="10" x="10.3124" y="103.2169"/>
  <rect height="10" width="10" x="13.2556" y="0.7413"/>
  <rect height="10" width="10" x="27.5809" y="13.2582"/>
  <rect height="10" width="10" x="14.7705" y="14.6405"/>
  <rect height="10" width="10" x="13.7688" y="30.7702"/>
  <rect height="10" width="10" x="23.7189" y="60.5924"/>
  <rect height="10" width="10" x="30.2202" y="58.1364"/>
  <rect height="10" width="10" x="28.9317" y="49.0543"/>
  <rect height="10" width="10" x="26.2088" y="80.6499"/>
  <rect height="10" width="10" x="15.9171" y="92.1523"/>
  <rect height="10" width="10" x="16.2462" y="71.5403"/>
  <rect height="10" width="10" x="32.4957" y="-0.1911"/>
  <rect height="10" width="10" x="17.6858" y="7.4448"/>
  <rect height="10" width="10" x="24.5432" y="22.0956"/>
  <rect height="10" width="10" x="25.0143" y="41.6578"/>
  <rect height="10" width="10" x="30.9163" y="35.784"/>
  <rect height="10" width="10" x="20.611" y="39.4743"/>
  <rect height="10" width="10" x="20.9204" y="66.47"/>
  <rect height="10" width="10" x="27.0726" y="91.8016"/>
  <rect height="10" width="10" x="34.6334" y="41.9012"/>
  <rect height="10" width="10" x="30.3016" y="109.0611"/>
  <rect height="10" width="10" x="47.824" y="1.0537"/>
  <rect height="10" width="10" x="52.463" y="16.8138"/>
  <rect height="10" width="10" x="53.476" y="26.8663"/>
  <rect height="10" width="10" x="44.5887" y="39.211"/>
  <rect height="10" width="10" x="54.4858" y="47.4275"/>
  <rect height="10" width="10" x="58.3655" y="43.0893"/>
  <rect height="10" width="10" x="25.2089" y="35.5626"/>
  <rect height="10" width="10" x="47.1604" y="49.7887"/>
  <rect height="10" width="10" x="51.8113" y="56.0045"/>
  <rect height="10" width="10" x="56.0185" y="136.5853"/>
  <rect height="10" width="10" x="58.5037" y="1.7576"/>
  <rect height="10" width="10" x="54.8957" y="9.6477"/>
  <rect height="10" width="10" x="35.0257" y="16.2038"/>
  <rect height="10" width="10" x="49.7431" y="30.9764"/>
  <rect height="10" width="10" x="68.4921" y="45.7869"/>
  <rect height="10" width="10" x="76.776" y="54.82"/>
  <rect height="10" width="10" x="27.8025" y="90.4321"/>
  <rect height="10" width="10" x="38.3054" y="55.8492"/>
  <rect height="10" width="10" x="28.3753" y="75.4766"/>
  <rect height="10" width="10" x="40.8301" y="126.7379"/>
  <rect height="10" width="10" x="57.1532" y="-1.7614"/>
  <rect height="10" width="10" x="28.4829" y="11.3293"/>
  <rect height="10" width="10" x="30.8329" y="18.0478"/>
  <rect height="10" width="10" x="69.1561" y="44.3699"/>
  <rect height="10" width="10" x="58.4197" y="41.8758"/>
  <rect height="10" width="10" x="29.1505" y="39.5948"/>
  <rect height="10" width="10" x="91.7505" y="83.1633"/>
  <rect height="10" width="10" x="69.0131" y="33.0042"/>
  <rect height="10" width="10" x="72.5688" y="48.7601"/>
  <rect height="10" width="10" x="66.5483" y="60.3"/>
  <rect height="10" width="10" x="52.2304" y="-1.8515"/>
  <rect height="10" width="10" x="105.0442" y="2.3813"/>
  <rect height="10" width="10" x="107.6722" y="15.7436"/>
  <rect height="10" width="10" x="48.0648" y="46.5093"/>
  <rect height="10" width="10" x="59.3788" y="56.0354"/>
  <rect height="10" width="10" x="82.9701" y="67.563"/>
  <rect height="10" width="10" x="82.1848" y="65.0065"/>
  <rect height="10" width="10" x="75.8563" y="102.8059"/>
  <rect height="10" width="10" x="40.9474" y="94.4346"/>
  <rect height="10" width="10" x="107.7385" y="134.0804"/>
  <rect height="10" width="10" x="61.4749" y="0.4382"/>
  <rect height="10" width="10" x="106.8227" y="7.7715"/>
  <rect height="10" width="10" x="117.787" y="7.1683"/>
  <rect height="10" width="10" x="94.5522" y="18.3174"/>
  <rect height="10" width="10" x="70.8565" y="37.1531"/>
  <rect height="10" width="10" x="70.931" y="68.4293"/>
  <rect height="10" width="10" x="122.5294" y="67.4089"/>
  <rect height="10" width="10" x="55.1082" y="44.0387"/>
  <rect height="10" width="10" x="120.6806" y="63.2609"/>
  <rect height="10" width="10" x="121.3476" y="111.4698"/>
  <rect height="10" width="10" x="64.7021" y="3.8423"/>
  <rect height="10" width="10" x="126.5359" y="1.5245"/>
  <rect height="10" width="10" x="85.1191" y="32.5524"/>
  <rect height="10" width="10" x="43.4922" y="10.6969"/>
  <rect height="10" width="10" x="66.7698" y="25.2526"/>
  <rect height="10" width="10" x="137.0313" y="29.6173"/>
  <rect height="10" width="10" x="103.737" y="39.1502"/>
  <rect height="10" width="10" x="59.5714" y="107.029"/>
  <rect height="10" width="10" x="92.8051" y="90.6698"/>
  <rect height="10" width="10" x="123.7919" y="90.8429"/>
  <svg baseProfile="tiny" fill="rgb(135,125,24)" height="400" stroke="black" stroke-opacity="1.0" stroke-width="0.5" version="1.2" width="400">
    <defs/>
    <rect height="10" width="10" x="0.0" y="0.0"/>
    <rect height="10" width="10" x="0.0" y="6.1958"/>
    <rect height="10" width="10" x="0.0" y="23.8883"/>
    <rect height="10" width="10" x="0.0" y="39.8648"/>
    <rect height="10" width="10" x="0.0" y="55.1569"/>
    <rect height="10" width="10" x="0.0" y="33.8278"/>
    <rect height="10" width="10" x="0.0" y="76.4341"/>
    <rect height="10" width="10" x="0.0" y="85.2615"/>
    <rect height="10" width="10" x="0.0" y="103.3777"/>
    <rect height="10" width="10" x="0.0" y="76.1686"/>
    <rect height="10" width="10" x="12.9241" y="-0.0898"/>
    <rect height="10" width="10" x="15.0509" y="10.9104"/>
    <rect height="10" width="10" x="7.5198" y="24.4844"/>
    <rect height="10" width="10" x="13.9797" y="15.8378"/>
    <rect height="10" width="10" x="5.735" y="50.9925"/>
    <rect height="10" width="10" x="14.4688" y="35.7939"/>
    <rect height="10" width="10" x="10.0006" y="84.4808"/>
    <rect height="10" width="10" x="12.4892" y="60.2729"/>
    <rect height="10" width="10" x="4.6101" y="58.8816"/>
    <rect height="10" width="10" x="13.4399" y="47.864"/>
    <rect height="10" width="10" x="21.1839" y="-0.8909"/>
    <rect height="10" width="10" x="10.1013" y="10.6177"/>
    <rect height="10" width="10" x="27.8488" y="22.5621"/>
    <rect height="10" width="10" x="24.8486" y="21.0495"/>
    <rect height="10" width="10" x="27.1987" y="19.914"/>
    <rect height="10" width="10" x="29.7588" y="57.9315"/>
    <rect height="10" width="10" x="30.1096" y="70.5569"/>
    <rect height="10" width="10" x="23.8348" y="48.8121"/>
    <rect height="10" width="10" x="10.2461" y="59.6602"/>
    <rect height="10" width="10" x="27.4588" y="62.5416"/>
    <rect height="10" width="10" x="44.9474" y="-1.4367"/>
    <rect height="10" width="10" x="34.595" y="12.4203"/>
    <rect height="10" width="10" x="45.6963" y="25.2222"/>
    <rect height="10" width="10" x="28.1246" y="41.4903"/>
    <rect height="10" width="10" x="22.4506" y="31.6017"/>
    <rect height="10" width="10" x="21.6891" y="34.6326"/>
    <rect height="10" width="10" x="17.7311" y="47.3092"/>
    <rect height="10" width="10" x="24.5208" y="41.6619"/>
    <rect height="10" width="10" x="37.1861" y="91.8361"/>
    <rect height="10" width="10" x="29.9467" y="124.2295"/>
    <rect height="10" width="10" x="22.4223" y="1.7811"/>
    <rect height="10" width="10" x="50.5733" y="12.3366"/>
    <rect height="10" width="10" x="43.217" y="12.2836"/>
    <rect height="10" width="10" x="18.2446" y="45.5532"/>
    <rect height="10" width="10" x="36.7384" y="34.3907"/>
    <rect height="10" width="10" x="35.4121" y="71.9662"/>
    <rect height="10" width="10" x="28.8643" y="54.8794"/>
    <rect height="10" width="10" x="37.3009" y="75.8641"/>
    <rect height="10" width="10" x="19.9045" y="73.5809"/>
    <rect height="10" width="10" x="19.7829" y="57.6896"/>
    <rect height="10" width="10" x="70.8991" y="-0.8964"/>
    <rect height="10" width="10" x="61.805" y="11.315"/>
    <rect height="10" width="10" x="31.6356" y="28.8415"/>
    <rect height="10" width="10" x="40.7646" y="38.8259"/>
    <rect height="10" width="10" x="32.6227" y="55.3913"/>
    <rect height="10" width="10" x="39.0833" y="50.6359"/>
    <rect height="10" width="10" x="67.1203" y="33.8027"/>
    <rect height="10" width="10" x="53.492" y="42.6525"/>
    <rect height="10" width="10" x="71.8279" y="87.306"/>
    <rect height="10" width="10" x="59.0476" y="130.7157"/>
    <rect height="10" width="10" x="78.7334" y="0.1753"/>
    <rect height="10" width="10" x="28.417" y="4.5051"/>
    <rect height="10" width="10" x="53.2924" y="15.4183"/>
    <rect height="10" width="10" x="69.4362" y="44.5067"/>
    <rect height="10" width="10" x="65.2192" y="50.953"/>
    <rect height="10" width="10" x="36.3396" y="74.0952"/>
    <rect height="10" width="10" x="75.9025" y="40.3522"/>
    <rect height="10" width="10" x="58.2127" y="92.7345"/>
    <rect height="10" width="10" x="38.1753" y="59.7958"/>
    <rect height="10" width="10" x="85.4492" y="63.4215"/>
    <rect height="10" width="10" x="42.4873" y="1.9546"/>
    <rect height="10" width="10" x="83.5216" y="17.1161"/>
    <rect height="10" width="10" x="100.8702" y="24.0419"/>
    <rect height="10" width="10" x="59.9916" y="14.3504"/>
    <rect height="10" width="10" x="95.2901" y="50.6382"/>
    <rect height="10" width="10" x="50.5919" y="51.8677"/>
    <rect height="10" width="10" x="73.4155" y="32.734"/>
    <rect height="10" width="10" x="107.6575" y="74.1992"/>
    <rect height="10" width="10" x="33.2343" y="115.2808"/>
    <rect height="10" width="10" x="67.3265" y="45.7513"/>
    <rect height="10" width="10" x="90.0035" y="-0.4956"/>
    <rect height="10" width="10" x="70.6318" y="7.312"/>
    <rect height="10" width="10" x="64.197" y="13.7631"/>
    <rect height="10" width="10" x="48.9401" y="37.3249"/>
    <rect height="10" width="10" x="60.6811" y="32.957"/>
    <rect height="10" width="10" x="50.2764" y="35.7531"/>
    <rect height="10" width="10" x="44.5744" y="78.1049"/>
    <rect height="10" width="10" x="91.9269" y="81.9015"/>
    <rect height="10" width="10" x="96.1888" y="76.9829"/>
    <rect height="10" width="10" x="99.3731" y="126.3778"/>
    <rect height="10" width="10" x="109.3741" y="1.9433"/>
    <rect height="10" width="10" x="95.783" y="10.1491"/>
    <rect height="10" width="10" x="116.801" y="15.3303"/>
    <rect height="10" width="10" x="98.633" y="30.2741"/>
    <rect height="10" width="10" x="130.364" y="20.5923"/>
    <rect height="10" width="10" x="47.6892" y="69.8718"/>
    <rect height="10" width="10" x="78.2076" y="27.574"/>
    <rect height="10" width="10" x="85.3695" y="37.7016"/>
    <rect height="10" width="10" x="118.2535" y="88.9106"/>
    <rect height="10" width="10" x="137.399" y="51.1633"/>
  </svg>
  <svg baseProfile="tiny" fill="rgb(182,138,178)" height="400" stroke="black" stroke-opacity="1.0" stroke-width="0.5" version="1.2" width="400">
    <defs/>
    <rect height="10" width="15" x="0.0" y="0.0"/>
    <rect height="10" width="15" x="0.0" y="14.5695"/>
    <rect height="10" width="15" x="0.0" y="29.9307"/>
    <rect height="10" width="15" x="0.0" y="17.9988"/>
    <rect height="10" width="15" x="0.0" y="37.0434"/>
    <rect height="10" width="15" x="0.0" y="69.8372"/>
    <rect height="10" width="15" x="0.0" y="37.3314"/>
    <rect height="10" width="15" x="0.0" y="52.8306"/>
    <rect height="10" width="15" x="0.0" y="105.2953"/>
    <rect height="10" width="15" x="0.0" y="105.871"/>
    <rect height="10" width="15" x="6.2939" y="-0.3941"/>
    <rect height="10" width="15" x="9.5828" y="8.7961"/>
    <rect height="10" width="15" x="16.8385" y="13.863"/>
    <rect height="10" width="15" x="10.1449" y="38.0798"/>
    <rect height="10" width="15" x="9.8869" y="25.8052"/>
    <rect height="10" width="15" x="13.3214" y="34.5996"/>
    <rect height="10" width="15" x="15.0032" y="29.5502"/>
    <rect height="10" width="15" x="5.0438" y="41.3633"/>
    <rect height="10" width="15" x="2.2775" y="104.6302"/>
    <rect height="10" width="15" x="11.5153" y="121.6039"/>
    <rect height="10" width="15" x="23.604" y="0.6046"/>
    <rect height="10" width="15" x="29.4837" y="11.1287"/>
    <rect height="10" width="15" x="26.3719" y="24.1012"/>
    <rect height="10" width="15" x="24.6606" y="36.1204"/>
    <rect height="10" width="15" x="30.9729" y="26.0521"/>
    <rect height="10" width="15" x="30.8446" y="37.6206"/>
    <rect height="10" width="15" x="24.6379" y="44.5259"/>
    <rect height="10" width="15" x="35.7856" y="66.4971"/>
    <rect height="10" width="15" x="19.4577" y="63.784"/>
    <rect height="10" width="15" x="18.676" y="68.4257"/>
    <rect height="10" width="15" x="38.2525" y="0.4703"/>
    <rect height="10" width="15" x="17.6731" y="4.1513"/>
    <rect height="10" width="15" x="42.16" y="17.4612"/>
    <rect height="10" width="15" x="28.6022" y="23.3758"/>
    <rect height="10" width="15" x="26.8711" y="29.1906"/>
    <rect height="10" width="15" x="6.9688" y="72.5028"/>
    <rect height="10" width="15" x="46.614" y="52.222"/>
    <rect height="10" width="15" x="18.9842" y="86.3085"/>
    <rect height="10" width="15" x="37.473" y="70.3619"/>
    <rect height="10" width="15" x="15.8065" y="108.4518"/>
    <rect height="10" width="15" x="8.9828" y="0.7949"/>
    <rect height="10" width="15" x="43.7952" y="11.8425"/>
    <rect height="10" width="15" x="10.1166" y="31.924"/>
    <rect height="10" width="15" x="18.1562" y="18.7823"/>
    <rect height="10" width="15" x="67.6872" y="49.975"/>
    <rect height="10" width="15" x="68.505" y="76.7536"/>
    <rect height="10" width="15" x="16.8311" y="58.6823"/>
    <rect height="10" width="15" x="45.7955" y="85.6468"/>
    <rect height="10" width="15" x="18.6752" y="39.6687"/>
    <rect height="10" width="15" x="40.4742" y="99.2388"/>
    <rect height="10" width="15" x="64.5351" y="-2.123"/>
    <rect height="10" width="15" x="53.8924" y="12.0192"/>
    <rect height="10" width="15" x="45.4171" y="22.0729"/>
    <rect height="10" width="15" x="48.0746" y="23.1758"/>
    <rect height="10" width="15" x="67.6017" y="56.0834"/>
    <rect height="10" width="15" x="77.8929" y="59.6442"/>
    <rect height="10" width="15" x="56.2787" y="75.2772"/>
    <rect height="10" width="15" x="24.928" y="93.4435"/>
    <rect height="10" width="15" x="20.8109" y="66.8136"/>
    <rect height="10" width="15" x="82.3782" y="76.2157"/>
    <rect height="10" width="15" x="25.3195" y="2.5567"/>
    <rect height="10" width="15" x="19.7335" y="15.0255"/>
    <rect height="10" width="15" x="37.7699" y="15.2093"/>
    <rect height="10" width="15" x="13.6245" y="16.4547"/>
    <rect height="10" width="15" x="99.5638" y="21.1167"/>
    <rect height="10" width="15" x="86.6125" y="38.3994"/>
    <rect height="10" width="15" x="31.6191" y="49.051"/>
    <rect height="10" width="15" x="41.8438" y="80.4944"/>
    <rect height="10" width="15" x="16.1633" y="101.9584"/>
    <rect height="10" width="15" x="52.2596" y="118.4936"/>
    <rect height="10" width="15" x="115.0268" y="2.1217"/>
    <rect height="10" width="15" x="22.283" y="13.4564"/>
    <rect height="10" width="15" x="108.6662" y="16.3383"/>
    <rect height="10" width="15" x="68.6589" y="36.8088"/>
    <rect height="10" width="15" x="15.033" y="22.0932"/>
    <rect height="10" width="15" x="62.9005" y="43.0577"/>
    <rect height="10" width="15" x="17.4486" y="31.9593"/>
    <rect height="10" width="15" x="18.5162" y="40.4672"/>
    <rect height="10" width="15" x="20.5993" y="68.2263"/>
    <rect height="10" width="15" x="110.5785" y="71.0912"/>
    <rect height="10" width="15" x="133.4539" y="1.2665"/>
    <rect height="10" width="15" x="85.0963" y="4.5263"/>
    <rect height="10" width="15" x="124.489" y="13.7719"/>
    <rect height="10" width="15" x="56.6095" y="44.3678"/>
    <rect height="10" width="15" x="81.6917" y="44.466"/>
    <rect height="10" width="15" x="21.6498" y="73.9408"/>
    <rect height="10" width="15" x="139.4535" y="38.5955"/>
    <rect height="10" width="15" x="76.3124" y="104.5366"/>
    <rect height="10" width="15" x="80.2996" y="59.5086"/>
    <rect height="10" width="15" x="21.2055" y="126.3016"/>
    <rect height="10" width="15" x="130.0166" y="-1.3161"/>
    <rect height="10" width="15" x="45.9001" y="3.3947"/>
    <rect height="10" width="15" x="112.939" y="26.8883"/>
    <rect height="10" width="15" x="87.1524" y="21.0473"/>
    <rect height="10" width="15" x="147.2262" y="55.1759"/>
    <rect height="10" width="15" x="48.0835" y="69.287"/>
    <rect height="10" width="15" x="59.426" y="53.5603"/>
    <rect height="10" width="15" x="39.8595" y="68.5848"/>
    <rect height="10" width="15" x="91.8318" y="48.4353"/>
    <rect height="10" width="15" x="67.3486" y="53.8517"/>
    <rect height="10" width="15" x="92.9864" y="-1.7318"/>
    <rect height="10" width="15" x="105.9994" y="7.3528"/>
    <rect height="10" width="15" x="84.2028" y="27.5966"/>
    <rect height="10" width="15" x="31.8597" y="13.5324"/>
    <rect height="10" width="15" x="107.9757" y="37.5"/>
    <rect height="10" width="15" x="131.9406" y="20.3625"/>
    <rect height="10" width="15" x="159.8043" y="36.8447"/>
    <rect height="10" width="15" x="69.3262" y="105.9724"/>
    <rect height="10" width="15" x="59.9373" y="82.6142"/>
    <rect height="10" width="15" x="130.4143" y="50.7408"/>
    <rect height="10" width="15" x="46.7629" y="-1.8269"/>
    <rect height="10" width="15" x="191.0371" y="10.6337"/>
    <rect height="10" width="15" x="115.1337" y="25.8596"/>
    <rect height="10" width="15" x="149.1036" y="46.7373"/>
    <rect height="10" width="15" x="183.727" y="44.4053"/>
    <rect height="10" width="15" x="131.0291" y="57.0802"/>
    <rect height="10" width="15" x="72.3087" y="51.7782"/>
    <rect height="10" width="15" x="122.1541" y="60.383"/>
    <rect height="10" width="15" x="185.7472" y="84.4491"/>
    <rect height="10" width="15" x="73.6021" y="62.4843"/>
    <rect height="10" width="15" x="38.919" y="5.5239"/>
    <rect height="10" width="15" x="180.1847" y="16.7191"/>
    <rect height="10" width="15" x="141.9664" y="5.4099"/>
    <rect height="10" width="15" x="37.8169" y="28.6612"/>
    <rect height="10" width="15" x="141.0792" y="50.5334"/>
    <rect height="10" width="15" x="144.525" y="64.6705"/>
    <rect height="10" width="15" x="139.2706" y="75.416"/>
    <rect height="10" width="15" x="147.1309" y="71.8341"/>
    <rect height="10" width="15" x="197.7633" y="42.2318"/>
    <rect height="10" width="15" x="172.9155" y="98.0031"/>
    <rect height="10" width="15" x="47.1246" y="-5.8069"/>
    <rect height="10" width="15" x="229.6869" y="11.3433"/>
    <rect height="10" width="15" x="213.9517" y="23.361"/>
    <rect height="10" width="15" x="229.7123" y="27.9076"/>
    <rect height="10" width="15" x="224.2475" y="14.6216"/>
    <rect height="10" width="15" x="85.4975" y="35.8238"/>
    <rect height="10" width="15" x="186.6763" y="87.6403"/>
    <rect height="10" width="15" x="50.352" y="73.9227"/>
    <rect height="10" width="15" x="60.6612" y="40.2147"/>
    <rect height="10" width="15" x="105.3703" y="138.8413"/>
    <rect height="10" width="15" x="79.4659" y="2.4173"/>
    <rect height="10" width="15" x="173.8736" y="21.695"/>
    <rect height="10" width="15" x="202.6878" y="23.2811"/>
    <rect height="10" width="15" x="29.2949" y="41.0855"/>
    <rect height="10" width="15" x="117.3583" y="58.1643"/>
    <rect height="10" width="15" x="120.7695" y="45.9139"/>
    <rect height="10" width="15" x="232.2526" y="27.5369"/>
    <rect height="10" width="15" x="103.103" y="101.4147"/>
    <rect height="10" width="15" x="31.6588" y="105.6933"/>
    <rect height="10" width="15" x="58.4927" y="63.7041"/>
  </svg>
  <svg baseProfile="tiny" fill="rgb(138,182,178)" height="400" stroke="black" stroke-opacity="1.0" stroke-width="0.5" version="1.2" width="400">
    <defs/>
    <rect height="10" width="15" x="400.0" y="400.0"/>
    <rect height="10" width="15" x="400.0" y="390.1394"/>
    <rect height="10" width="15" x="400.0" y="375.7873"/>
    <rect height="10" width="15" x="400.0" y="367.7863"/>
    <rect height="10" width="15" x="400.0" y="353.1096"/>
    <rect height="10" width="15" x="400.0" y="328.0132"/>
    <rect height="10" width="15" x="400.0" y="359.1818"/>
    <rect height="10" width="15" x="400.0" y="318.1699"/>
    <rect height="10" width="15" x="400.0" y="325.3428"/>
    <rect height="10" width="15" x="400.0" y="335.6964"/>
    <rect height="10" width="15" x="393.584" y="400.4374"/>
    <rect height="10" width="15" x="388.3665" y="395.0542"/>
    <rect height="10" width="15" x="388.8552" y="373.708"/>
    <rect height="10" width="15" x="390.4414" y="365.038"/>
    <rect height="10" width="15" x="383.0856" y="352.8577"/>
    <rect height="10" width="15" x="395.4085" y="340.9298"/>
    <rect height="10" width="15" x="383.2614" y="320.3848"/>
    <rect height="10" width="15" x="396.482" y="321.3812"/>
    <rect height="10" width="15" x="396.7074" y="291.2195"/>
    <rect height="10" width="15" x="391.2562" y="321.2912"/>
    <rect height="10" width="15" x="384.6623" y="400.1407"/>
    <rect height="10" width="15" x="365.5687" y="394.97"/>
    <rect height="10" width="15" x="388.3772" y="382.8167"/>
    <rect height="10" width="15" x="386.2718" y="358.2075"/>
    <rect height="10" width="15" x="376.5738" y="343.4647"/>
    <rect height="10" width="15" x="384.6298" y="337.6777"/>
    <rect height="10" width="15" x="368.3849" y="319.0043"/>
    <rect height="10" width="15" x="394.0402" y="335.4388"/>
    <rect height="10" width="15" x="374.8251" y="284.6224"/>
    <rect height="10" width="15" x="395.5063" y="268.0298"/>
    <rect height="10" width="15" x="353.2634" y="398.9477"/>
    <rect height="10" width="15" x="355.6688" y="394.6389"/>
    <rect height="10" width="15" x="382.3699" y="388.0832"/>
    <rect height="10" width="15" x="375.0863" y="372.6003"/>
    <rect height="10" width="15" x="377.5735" y="374.0636"/>
    <rect height="10" width="15" x="373.1872" y="368.8443"/>
    <rect height="10" width="15" x="367.7297" y="328.1169"/>
    <rect height="10" width="15" x="354.3424" y="333.1287"/>
    <rect height="10" width="15" x="362.4257" y="289.5252"/>
    <rect height="10" width="15" x="358.3767" y="285.5816"/>
    <rect height="10" width="15" x="336.9016" y="398.2497"/>
    <rect height="10" width="15" x="382.8139" y="394.3192"/>
    <rect height="10" width="15" x="379.9162" y="383.2023"/>
    <rect height="10" width="15" x="386.0106" y="383.924"/>
    <rect height="10" width="15" x="329.484" y="358.8597"/>
    <rect height="10" width="15" x="363.5844" y="366.336"/>
    <rect height="10" width="15" x="357.4884" y="345.8177"/>
    <rect height="10" width="15" x="348.7231" y="351.4013"/>
    <rect height="10" width="15" x="363.6809" y="320.8529"/>
    <rect height="10" width="15" x="367.5705" y="281.7634"/>
    <rect height="10" width="15" x="363.6386" y="397.7142"/>
    <rect height="10" width="15" x="334.3221" y="391.683"/>
    <rect height="10" width="15" x="364.1844" y="377.2088"/>
    <rect height="10" width="15" x="341.7436" y="367.5649"/>
    <rect height="10" width="15" x="352.9324" y="337.5429"/>
    <rect height="10" width="15" x="357.0113" y="323.1974"/>
    <rect height="10" width="15" x="325.7047" y="313.927"/>
    <rect height="10" width="15" x="341.6559" y="310.9036"/>
    <rect height="10" width="15" x="318.2291" y="358.2771"/>
    <rect height="10" width="15" x="381.1334" y="339.7678"/>
    <rect height="10" width="15" x="328.1283" y="397.5873"/>
    <rect height="10" width="15" x="379.1857" y="385.5693"/>
    <rect height="10" width="15" x="321.141" y="368.2714"/>
    <rect height="10" width="15" x="363.5102" y="360.4648"/>
    <rect height="10" width="15" x="384.0499" y="371.9964"/>
    <rect height="10" width="15" x="293.4622" y="336.3373"/>
    <rect height="10" width="15" x="327.8955" y="308.9239"/>
    <rect height="10" width="15" x="309.3328" y="325.5383"/>
    <rect height="10" width="15" x="352.1692" y="307.3776"/>
    <rect height="10" width="15" x="312.9486" y="286.4273"/>
    <rect height="10" width="15" x="337.8876" y="398.256"/>
    <rect height="10" width="15" x="369.2918" y="393.3744"/>
    <rect height="10" width="15" x="317.9012" y="381.2677"/>
    <rect height="10" width="15" x="363.9012" y="387.2215"/>
    <rect height="10" width="15" x="343.6609" y="339.9643"/>
    <rect height="10" width="15" x="288.0329" y="374.4104"/>
    <rect height="10" width="15" x="350.6081" y="342.244"/>
    <rect height="10" width="15" x="275.8146" y="368.2274"/>
    <rect height="10" width="15" x="313.2085" y="300.7521"/>
    <rect height="10" width="15" x="305.5433" y="352.4015"/>
    <rect height="10" width="15" x="301.4374" y="401.7688"/>
    <rect height="10" width="15" x="301.3153" y="388.9701"/>
    <rect height="10" width="15" x="366.0892" y="390.2576"/>
    <rect height="10" width="15" x="362.6014" y="375.2589"/>
    <rect height="10" width="15" x="369.9719" y="365.8304"/>
    <rect height="10" width="15" x="283.5671" y="369.5095"/>
    <rect height="10" width="15" x="383.2654" y="352.4249"/>
    <rect height="10" width="15" x="332.4332" y="337.0298"/>
    <rect height="10" width="15" x="256.068" y="343.2039"/>
    <rect height="10" width="15" x="309.1955" y="327.0186"/>
    <rect height="10" width="15" x="320.7503" y="402.7815"/>
    <rect height="10" width="15" x="379.0383" y="389.8984"/>
    <rect height="10" width="15" x="298.1114" y="391.8291"/>
    <rect height="10" width="15" x="342.8188" y="356.7907"/>
    <rect height="10" width="15" x="364.3072" y="377.2139"/>
    <rect height="10" width="15" x="261.8299" y="379.3102"/>
    <rect height="10" width="15" x="380.5633" y="366.1081"/>
    <rect height="10" width="15" x="277.2869" y="324.8512"/>
    <rect height="10" width="15" x="310.2827" y="307.9074"/>
    <rect height="10" width="15" x="299.798" y="333.609"/>
    <rect height="10" width="15" x="232.3077" y="397.7719"/>
    <rect height="10" width="15" x="310.7038" y="385.0755"/>
    <rect height="10" width="15" x="225.8577" y="384.5819"/>
    <rect height="10" width="15" x="233.5543" y="350.3722"/>
    <rect height="10" width="15" x="272.4075" y="381.1736"/>
    <rect height="10" width="15" x="301.4007" y="357.0401"/>
    <rect height="10" width="15" x="357.3274" y="306.7841"/>
    <rect height="10" width="15" x="332.0636" y="296.2302"/>
    <rect height="10" width="15" x="228.3999" y="300.1814"/>
    <rect height="10" width="15" x="261.0873" y="311.0159"/>
    <rect height="10" width="15" x="259.5569" y="397.1879"/>
    <rect height="10" width="15" x="323.3375" y="389.4585"/>
    <rect height="10" width="15" x="220.336" y="375.7439"/>
    <rect height="10" width="15" x="225.937" y="374.6958"/>
    <rect height="10" width="15" x="339.022" y="346.3391"/>
    <rect height="10" width="15" x="364.3503" y="348.0802"/>
    <rect height="10" width="15" x="282.7338" y="340.3427"/>
    <rect height="10" width="15" x="369.6129" y="367.8434"/>
    <rect height="10" width="15" x="280.2252" y="348.7894"/>
    <rect height="10" width="15" x="219.8559" y="305.5173"/>
    <rect height="10" width="15" x="270.1506" y="394.971"/>
    <rect height="10" width="15" x="249.265" y="396.8329"/>
    <rect height="10" width="15" x="245.9226" y="379.6446"/>
    <rect height="10" width="15" x="257.8363" y="388.919"/>
    <rect height="10" width="15" x="185.9104" y="385.4408"/>
    <rect height="10" width="15" x="226.15" y="371.2085"/>
    <rect height="10" width="15" x="309.2189" y="323.6113"/>
    <rect height="10" width="15" x="370.1381" y="325.848"/>
    <rect height="10" width="15" x="228.3824" y="320.4316"/>
    <rect height="10" width="15" x="331.6255" y="314.537"/>
    <rect height="10" width="15" x="223.2337" y="400.1474"/>
    <rect height="10" width="15" x="350.4975" y="386.4636"/>
    <rect height="10" width="15" x="170.7024" y="366.7683"/>
    <rect height="10" width="15" x="296.1322" y="366.1614"/>
    <rect height="10" width="15" x="205.0688" y="334.5503"/>
    <rect height="10" width="15" x="262.6431" y="381.3348"/>
    <rect height="10" width="15" x="185.6362" y="326.2913"/>
    <rect height="10" width="15" x="285.0339" y="310.8154"/>
    <rect height="10" width="15" x="186.1655" y="333.8287"/>
    <rect height="10" width="15" x="192.0952" y="339.9776"/>
    <rect height="10" width="15" x="214.8861" y="395.5948"/>
    <rect height="10" width="15" x="218.8407" y="399.3148"/>
    <rect height="10" width="15" x="334.0394" y="363.8035"/>
    <rect height="10" width="15" x="292.0961" y="391.9169"/>
    <rect height="10" width="15" x="366.5711" y="355.698"/>
    <rect height="10" width="15" x="270.7709" y="368.7006"/>
    <rect height="10" width="15" x="291.8407" y="328.7896"/>
    <rect height="10" width="15" x="265.3832" y="288.6922"/>
    <rect height="10" width="15" x="270.8693" y="280.4519"/>
    <rect height="10" width="15" x="169.1088" y="282.4336"/>
    <text fill="#290" font-family="Arial" font-size="30px" font-weight="bold" stroke="none" x="70" y="325">complex origins</text>
  </svg>
</svg>
