<?xml version='1.0' encoding='ASCII' standalone='yes'?>
<svg xmlns="http://www.w3.org/2000/svg" xmlns:ev="http://www.w3.org/2001/xml-events" xmlns:xlink="http://www.w3.org/1999/xlink" baseProfile="tiny" fill="rgb(135,125,24)" height="400" stroke="black" stroke-opacity="1.0" stroke-width="0.5" version="1.2" width="400">
  <defs/>
  <rect height="10" width="10" x="0.0" y="0.0"/>
  <rect height="10" width="10" x="0.0" y="7.8448"/>
  <rect height="10" width="10" x="0.0" y="25.7022"/>
  <rect height="10" width="10" x="0.0" y="38.7186"/>
  <rect height="10" width="10" x="0.0" y="51.4216"/>
  <rect height="10" width="10" x="0.0" y="61.8013"/>
  <rect height="10" width="10" x="0.0" y="58.3205"/>
  <rect height="10" width="10" x="0.0" y="38.2459"/>
  <rect height="10" width="10" x="0.0" y="73.8783"/>
  <rect height="10" width="10" x="0.0" y="105.6501"/>
  <rect height="10" width="10" x="9.0057" y="-0.0685"/>
  <rect height="10" width="10" x="8.4575" y="6.6829"/>
  <rect height="10" width="10" x="14.1926" y="25.4065"/>
  <rect height="10" width="10" x="6.2994" y="34.5269"/>
  <rect height="10" width="10" x="8.7387" y="58.04"/>
  <rect height="10" width="10" x="12.4888" y="51.6554"/>
  <rect height="10" width="10" x="7.6251" y="45.382"/>
  <rect height="10" width="10" x="5.4089" y="85.9409"/>
  <rect height="10" width="10" x="14.6704" y="79.0689"/>
  <rect height="10" width="10" x="10.3124" y="103.2169"/>
  <rect height="10" width="10" x="13.2556" y="0.7413"/>
  <rect height="10" width="10" x="27.5809" y="13.2582"/>
  <rect height="10" width="10" x="14.7705" y="14.6405"/>
  <rect height="10" width="10" x="13.7688" y="30.7702"/>
  <rect height="10" width="10" x="23.7189" y="60.5924"/>
  <rect height="10" width="10" x="30.2202" y="58.1364"/>
  <rect height="10" width="10" x="28.9317" y="49.0543"/>
  <rect height="10" width="10" x="26.2088" y="80.6499"/>
  <rect height="10" width="10" x="15.9171" y="92.1523"/>
  <rect height="10" width="10" x="16.2462" y="71.5403"/>
  <rect height="10" width="10" x="32.4957" y="-0.1911"/>
  <rect height="10" width="10" x="17.6858" y="7.4448"/>
  <rect height="10" width="10" x="24.5432" y="22.0956"/>
  <rect height="10" width="10" x="25.0143" y="41.6578"/>
  <rect height="10" width="10" x="30.9163" y="35.784"/>
  <rect height="10" width="10" x="20.611" y="39.4743"/>
  <rect height="10" width="10" x="20.9204" y="66.47"/>
  <rect height="10" width="10" x="27.0726" y="91.8016"/>
  <rect height="10" width="10" x="34.6334" y="41.9012"/>
  <rect height="10" width="10" x="30.3016" y="109.0611"/>
  <rect height="10" width="10" x="47.824" y="1.0537"/>
  <rect height="10" width="10" x="52.463" y="16.8138"/>
  <rect height="10" width="10" x="53.476" y="26.8663"/>
  <rect height="10" width="10" x="44.5887" y="39.211"/>
  <rect height="10" width="10" x="54.4858" y="47.4275"/>
  <rect height="10" width="10" x="58.3655" y="43.0893"/>
  <rect height="10" width="10" x="25.2089" y="35.5626"/>
  <rect height="10" width="10" x="47.1604" y="49.7887"/>
  <rect height="10" width="10" x="51.8113" y="56.0045"/>
  <rect height="10" width="10" x="56.0185" y="136.5853"/>
  <rect height="10" width="10" x="58.5037" y="1.7576"/>
  <rect height="10" width="10" x="54.8957" y="9.6477"/>
  <rect height="10" width="10" x="35.0257" y="16.2038"/>
  <rect height="10" width="10" x="49.7431" y="30.9764"/>
  <rect height="10" width="10" x="68.4921" y="45.7869"/>
  <rect height="10" width="10" x="76.776" y="54.82"/>
  <rect height="10" width="10" x="27.8025" y="90.4321"/>
  <rect height="10" width="10" x="38.3054" y="55.8492"/>
  <rect height="10" width="10" x="28.3753" y="75.4766"/>
  <rect height="10" width="10" x="40.8301" y="126.7379"/>
  <rect height="10" width="10" x="57.1532" y="-1.7614"/>
  <rect height="10" width="10" x="28.4829" y="11.3293"/>
  <rect height="10" width="10" x="30.8329" y="18.0478"/>
  <rect height="10" width="10" x="69.1561" y="44.3699"/>
  <rect height="10" width="10" x="58.4197" y="41.8758"/>
  <rect height="10" width="10" x="29.1505" y="39.5948"/>
  <rect height="10" width="10" x="91.7505" y="83.1633"/>
  <rect height="10" width="10" x="69.0131" y="33.0042"/>
  <rect height="10" width="10" x="72.5688" y="48.7601"/>
  <rect height="10" width="10" x="66.5483" y="60.3"/>
  <rect height="10" width="10" x="52.2304" y="-1.8515"/>
  <rect height="10" width="10" x="105.0442" y="2.3813"/>
  <rect height="10" width="10" x="107.6722" y="15.7436"/>
  <rect height="10" width="10" x="48.0648" y="46.5093"/>
  <rect height="10" width="10" x="59.3788" y="56.0354"/>
  <rect height="10" width="10" x="82.9701" y="67.563"/>
  <rect height="10" width="10" x="82.1848" y="65.0065"/>
  <rect height="10" width="10" x="75.8563" y="102.8059"/>
  <rect height="10" width="10" x="40.9474" y="94.4346"/>
  <rect height="10" width="10" x="107.7385" y="134.0804"/>
  <rect height="10" width="10" x="61.4749" y="0.4382"/>
  <rect height="10" width="10" x="106.8227" y="7.7715"/>
  <rect height="10" width="10" x="117.787" y="7.1683"/>
  <rect height="10" width="10" x="94.5522" y="18.3174"/>
  <rect height="10" width="10" x="70.8565" y="37.1531"/>
  <rect height="10" width="10" x="70.931" y="68.4293"/>
  <rect height="10" width="10" x="122.5294" y="67.4089"/>
  <rect height="10" width="10" x="55.1082" y="44.0387"/>
  <rect height="10" width="10" x="120.6806" y="63.2609"/>
  <rect height="10" width="10" x="121.3476" y="111.4698"/>
  <rect height="10" width="10" x="64.7021" y="3.8423"/>
  <rect height="10" width="10" x="126.5359" y="1.5245"/>
  <rect height="10" width="10" x="85.1191" y="32.5524"/>
  <rect height="10" width="10" x="43.4922" y="10.6969"/>
  <rect height="10" width="10" x="66.7698" y="25.2526"/>
  <rect height="10" width="10" x="137.0313" y="29.6173"/>
  <rect height="10" width="10" x="103.737" y="39.1502"/>
  <rect height="10" width="10" x="59.5714" y="107.029"/>
  <rect height="10" width="10" x="92.8051" y="90.6698"/>
  <rect height="10" width="10" x="123.7919" y="90.8429"/>
  <svg baseProfile="tiny" fill="rgb(135,125,24)" height="400" stroke="black" stroke-opacity="1.0" stroke-width="0.5" version="1.2" width="400">
    <defs/>
    <rect height="10" width="10" x="0.0" y="0.0"/>
    <rect height="10" width="10" x="0.0" y="8.2185"/>
    <rect height="10" width="10" x="0.0" y="21.1467"/>
    <rect height="10" width="10" x="0.0" y="17.3137"/>
    <rect height="10" width="10" x="0.0" y="40.344"/>
    <rect height="10" width="10" x="0.0" y="35.6472"/>
    <rect height="10" width="10" x="0.0" y="87.7511"/>
    <rect height="10" width="10" x="0.0" y="103.1628"/>
    <rect height="10" width="10" x="0.0" y="88.6934"/>
    <rect height="10" width="10" x="0.0" y="134.6314"/>
    <rect height="10" width="10" x="11.8183" y="0.2358"/>
    <rect height="10" width="10" x="5.6838" y="7.6762"/>
    <rect height="10" width="10" x="5.4658" y="10.2268"/>
    <rect height="10" width="10" x="6.0738" y="43.9328"/>
    <rect height="10" width="10" x="5.94" y="49.2094"/>
    <rect height="10" width="10" x="13.2224" y="70.2978"/>
    <rect height="10" width="10" x="6.497" y="58.2032"/>
    <rect height="10" width="10" x="10.8275" y="41.6525"/>
    <rect height="10" width="10" x="6.9155" y="106.5959"/>
    <rect height="10" width="10" x="8.5018" y="54.9843"/>
    <rect height="10" width="10" x="18.9224" y="0.3136"/>
    <rect height="10" width="10" x="10.2784" y="11.7709"/>
    <rect height="10" width="10" x="10.411" y="23.029"/>
    <rect height="10" width="10" x="29.1489" y="20.9093"/>
    <rect height="10" width="10" x="13.1299" y="49.1814"/>
    <rect height="10" width="10" x="21.7781" y="44.0148"/>
    <rect height="10" width="10" x="15.2464" y="79.5562"/>
    <rect height="10" width="10" x="23.7493" y="103.8309"/>
    <rect height="10" width="10" x="26.0453" y="57.4074"/>
    <rect height="10" width="10" x="23.5212" y="71.8727"/>
    <rect height="10" width="10" x="31.5309" y="0.6729"/>
    <rect height="10" width="10" x="24.4786" y="11.8908"/>
    <rect height="10" width="10" x="40.6839" y="31.0099"/>
    <rect height="10" width="10" x="38.558" y="31.7645"/>
    <rect height="10" width="10" x="18.0479" y="39.5686"/>
    <rect height="10" width="10" x="17.5563" y="52.7234"/>
    <rect height="10" width="10" x="29.1731" y="51.8826"/>
    <rect height="10" width="10" x="44.3375" y="37.9425"/>
    <rect height="10" width="10" x="25.3621" y="92.1635"/>
    <rect height="10" width="10" x="44.2884" y="134.5467"/>
    <rect height="10" width="10" x="31.683" y="-1.8836"/>
    <rect height="10" width="10" x="33.251" y="6.2357"/>
    <rect height="10" width="10" x="27.1394" y="22.8606"/>
    <rect height="10" width="10" x="30.8796" y="45.9004"/>
    <rect height="10" width="10" x="26.4139" y="46.0436"/>
    <rect height="10" width="10" x="38.0298" y="75.3421"/>
    <rect height="10" width="10" x="21.2054" y="54.2357"/>
    <rect height="10" width="10" x="38.1067" y="81.1076"/>
    <rect height="10" width="10" x="21.6518" y="94.3845"/>
    <rect height="10" width="10" x="44.9674" y="104.8225"/>
    <rect height="10" width="10" x="49.0854" y="1.0293"/>
    <rect height="10" width="10" x="56.5151" y="8.8993"/>
    <rect height="10" width="10" x="52.6137" y="24.0223"/>
    <rect height="10" width="10" x="66.7106" y="34.1991"/>
    <rect height="10" width="10" x="28.2222" y="61.4435"/>
    <rect height="10" width="10" x="39.2444" y="64.2198"/>
    <rect height="10" width="10" x="35.859" y="44.896"/>
    <rect height="10" width="10" x="44.8739" y="89.2026"/>
    <rect height="10" width="10" x="25.106" y="88.5158"/>
    <rect height="10" width="10" x="66.1723" y="67.7168"/>
    <rect height="10" width="10" x="48.5474" y="1.8396"/>
    <rect height="10" width="10" x="65.8368" y="4.7203"/>
    <rect height="10" width="10" x="66.6682" y="14.3244"/>
    <rect height="10" width="10" x="29.7232" y="36.0091"/>
    <rect height="10" width="10" x="51.0831" y="32.8939"/>
    <rect height="10" width="10" x="88.3568" y="55.509"/>
    <rect height="10" width="10" x="48.9138" y="72.4639"/>
    <rect height="10" width="10" x="41.0073" y="39.2971"/>
    <rect height="10" width="10" x="38.9695" y="99.7151"/>
    <rect height="10" width="10" x="62.8665" y="42.9919"/>
    <rect height="10" width="10" x="77.2321" y="0.3809"/>
    <rect height="10" width="10" x="81.9571" y="1.8059"/>
    <rect height="10" width="10" x="81.522" y="29.2536"/>
    <rect height="10" width="10" x="54.1259" y="33.5018"/>
    <rect height="10" width="10" x="78.5203" y="49.7652"/>
    <rect height="10" width="10" x="65.7222" y="57.4508"/>
    <rect height="10" width="10" x="80.1763" y="64.9754"/>
    <rect height="10" width="10" x="99.208" y="38.0574"/>
    <rect height="10" width="10" x="102.1379" y="72.0658"/>
    <rect height="10" width="10" x="80.7869" y="74.8839"/>
    <rect height="10" width="10" x="115.9901" y="-2.8038"/>
    <rect height="10" width="10" x="64.4364" y="8.0598"/>
    <rect height="10" width="10" x="43.8853" y="19.7896"/>
    <rect height="10" width="10" x="76.316" y="46.8937"/>
    <rect height="10" width="10" x="45.8521" y="16.5258"/>
    <rect height="10" width="10" x="120.3861" y="60.1199"/>
    <rect height="10" width="10" x="109.3742" y="72.2461"/>
    <rect height="10" width="10" x="118.0069" y="87.8878"/>
    <rect height="10" width="10" x="123.0482" y="52.9443"/>
    <rect height="10" width="10" x="117.5379" y="128.9623"/>
    <rect height="10" width="10" x="42.0885" y="3.5129"/>
    <rect height="10" width="10" x="57.0057" y="11.8728"/>
    <rect height="10" width="10" x="68.1948" y="26.1422"/>
    <rect height="10" width="10" x="124.7737" y="29.8726"/>
    <rect height="10" width="10" x="42.6803" y="55.2706"/>
    <rect height="10" width="10" x="105.0788" y="42.41"/>
    <rect height="10" width="10" x="56.7089" y="50.3117"/>
    <rect height="10" width="10" x="62.1597" y="58.211"/>
    <rect height="10" width="10" x="53.1498" y="91.8264"/>
    <rect height="10" width="10" x="50.5627" y="107.1554"/>
  </svg>
  <svg baseProfile="tiny" fill="rgb(132,151,85)" height="400" stroke="black" stroke-opacity="1.0" stroke-width="0.5" version="1.2" width="400">
    <defs/>
    <rect height="10" width="15" x="0.0" y="0.0"/>
    <rect height="10" width="15" x="0.0" y="12.9724"/>
    <rect height="10" width="15" x="0.0" y="17.8059"/>
    <rect height="10" width="15" x="0.0" y="25.6318"/>
    <rect height="10" width="15" x="0.0" y="33.5099"/>
    <rect height="10" width="15" x="0.0" y="26.039"/>
    <rect height="10" width="15" x="0.0" y="73.4718"/>
    <rect height="10" width="15" x="0.0" y="75.5006"/>
    <rect height="10" width="15" x="0.0" y="103.1706"/>
    <rect height="10" width="15" x="0.0" y="105.6276"/>
    <rect height="10" width="15" x="15.6168" y="0.0894"/>
    <rect height="10" width="15" x="7.1818" y="14.4318"/>
    <rect height="10" width="15" x="5.2175" y="30.1906"/>
    <rect height="10" width="15" x="15.7831" y="28.8429"/>
    <rect height="10" width="15" x="9.6009" y="27.9714"/>
    <rect height="10" width="15" x="11.6888" y="57.7267"/>
    <rect height="10" width="15" x="16.0287" y="56.8165"/>
    <rect height="10" width="15" x="9.5024" y="63.6242"/>
    <rect height="10" width="15" x="6.0598" y="50.1978"/>
    <rect height="10" width="15" x="2.5027" y="129.7118"/>
    <rect height="10" width="15" x="32.5514" y="0.385"/>
    <rect height="10" width="15" x="11.4318" y="12.9454"/>
    <rect height="10" width="15" x="27.424" y="26.1184"/>
    <rect height="10" width="15" x="34.3776" y="16.5209"/>
    <rect height="10" width="15" x="19.7012" y="59.2408"/>
    <rect height="10" width="15" x="7.5464" y="56.4027"/>
    <rect height="10" width="15" x="18.641" y="89.5512"/>
    <rect height="10" width="15" x="28.5814" y="90.1418"/>
    <rect height="10" width="15" x="8.1031" y="85.5207"/>
    <rect height="10" width="15" x="26.4293" y="91.6042"/>
    <rect height="10" width="15" x="24.931" y="-1.4135"/>
    <rect height="10" width="15" x="18.552" y="8.8409"/>
    <rect height="10" width="15" x="38.9936" y="30.3923"/>
    <rect height="10" width="15" x="39.9795" y="33.7537"/>
    <rect height="10" width="15" x="15.8166" y="40.5152"/>
    <rect height="10" width="15" x="31.6869" y="35.2505"/>
    <rect height="10" width="15" x="36.9747" y="47.3692"/>
    <rect height="10" width="15" x="13.7242" y="58.2383"/>
    <rect height="10" width="15" x="38.6176" y="69.7959"/>
    <rect height="10" width="15" x="32.5416" y="76.4341"/>
    <rect height="10" width="15" x="23.3845" y="-0.0694"/>
    <rect height="10" width="15" x="49.55" y="11.2027"/>
    <rect height="10" width="15" x="68.6755" y="9.5986"/>
    <rect height="10" width="15" x="64.1258" y="30.5729"/>
    <rect height="10" width="15" x="10.2899" y="57.3129"/>
    <rect height="10" width="15" x="47.5988" y="57.9805"/>
    <rect height="10" width="15" x="70.1178" y="74.467"/>
    <rect height="10" width="15" x="27.3458" y="60.9359"/>
    <rect height="10" width="15" x="26.4011" y="104.3167"/>
    <rect height="10" width="15" x="35.6359" y="103.1245"/>
    <rect height="10" width="15" x="68.9258" y="1.1274"/>
    <rect height="10" width="15" x="29.674" y="14.9752"/>
    <rect height="10" width="15" x="60.202" y="32.3546"/>
    <rect height="10" width="15" x="40.6445" y="37.8212"/>
    <rect height="10" width="15" x="34.9975" y="17.8544"/>
    <rect height="10" width="15" x="61.6634" y="28.961"/>
    <rect height="10" width="15" x="63.5181" y="54.1382"/>
    <rect height="10" width="15" x="80.4113" y="107.4339"/>
    <rect height="10" width="15" x="30.4665" y="79.6492"/>
    <rect height="10" width="15" x="68.4816" y="103.1544"/>
    <rect height="10" width="15" x="104.0564" y="-0.0012"/>
    <rect height="10" width="15" x="101.3259" y="15.1157"/>
    <rect height="10" width="15" x="22.8235" y="30.1766"/>
    <rect height="10" width="15" x="50.4673" y="28.617"/>
    <rect height="10" width="15" x="86.5785" y="39.193"/>
    <rect height="10" width="15" x="31.6229" y="47.4827"/>
    <rect height="10" width="15" x="97.4524" y="40.9322"/>
    <rect height="10" width="15" x="76.7248" y="85.2141"/>
    <rect height="10" width="15" x="16.292" y="84.0943"/>
    <rect height="10" width="15" x="73.2635" y="105.0592"/>
    <rect height="10" width="15" x="69.5639" y="2.8203"/>
    <rect height="10" width="15" x="60.7642" y="13.1228"/>
    <rect height="10" width="15" x="19.036" y="31.7917"/>
    <rect height="10" width="15" x="87.8757" y="26.0102"/>
    <rect height="10" width="15" x="60.1769" y="61.1669"/>
    <rect height="10" width="15" x="40.144" y="54.2343"/>
    <rect height="10" width="15" x="55.7339" y="36.1943"/>
    <rect height="10" width="15" x="41.9003" y="32.4576"/>
    <rect height="10" width="15" x="95.395" y="69.558"/>
    <rect height="10" width="15" x="113.8826" y="60.1837"/>
    <rect height="10" width="15" x="30.7445" y="-2.5629"/>
    <rect height="10" width="15" x="91.796" y="14.6677"/>
    <rect height="10" width="15" x="112.5285" y="24.8125"/>
    <rect height="10" width="15" x="126.9989" y="17.3865"/>
    <rect height="10" width="15" x="38.4189" y="20.533"/>
    <rect height="10" width="15" x="35.4963" y="22.1309"/>
    <rect height="10" width="15" x="128.2263" y="39.1145"/>
    <rect height="10" width="15" x="91.2985" y="56.712"/>
    <rect height="10" width="15" x="112.1507" y="89.8192"/>
    <rect height="10" width="15" x="128.3215" y="136.1674"/>
    <rect height="10" width="15" x="128.1054" y="1.0305"/>
    <rect height="10" width="15" x="119.8721" y="0.7976"/>
    <rect height="10" width="15" x="76.5679" y="25.236"/>
    <rect height="10" width="15" x="54.3807" y="33.3479"/>
    <rect height="10" width="15" x="137.2677" y="18.3246"/>
    <rect height="10" width="15" x="60.7188" y="21.7753"/>
    <rect height="10" width="15" x="140.952" y="59.2767"/>
    <rect height="10" width="15" x="133.5987" y="65.066"/>
    <rect height="10" width="15" x="136.6303" y="89.3201"/>
    <rect height="10" width="15" x="94.0268" y="55.3255"/>
    <rect height="10" width="15" x="131.1514" y="2.6718"/>
    <rect height="10" width="15" x="168.0361" y="18.2601"/>
    <rect height="10" width="15" x="54.1852" y="23.3595"/>
    <rect height="10" width="15" x="101.9255" y="36.6496"/>
    <rect height="10" width="15" x="121.8858" y="44.5089"/>
    <rect height="10" width="15" x="150.8655" y="51.2658"/>
    <rect height="10" width="15" x="21.0945" y="50.3034"/>
    <rect height="10" width="15" x="36.0067" y="83.3587"/>
    <rect height="10" width="15" x="71.9397" y="105.8984"/>
    <rect height="10" width="15" x="150.4887" y="122.3743"/>
    <rect height="10" width="15" x="151.9589" y="-5.2632"/>
    <rect height="10" width="15" x="197.6957" y="16.0513"/>
    <rect height="10" width="15" x="91.5466" y="30.9528"/>
    <rect height="10" width="15" x="83.1022" y="34.8669"/>
    <rect height="10" width="15" x="194.5965" y="15.4657"/>
    <rect height="10" width="15" x="178.4236" y="23.8777"/>
    <rect height="10" width="15" x="51.2261" y="73.7434"/>
    <rect height="10" width="15" x="157.1517" y="31.4742"/>
    <rect height="10" width="15" x="50.4275" y="90.7542"/>
    <rect height="10" width="15" x="33.9343" y="67.1657"/>
    <rect height="10" width="15" x="97.648" y="2.5024"/>
    <rect height="10" width="15" x="93.5124" y="2.3527"/>
    <rect height="10" width="15" x="48.8262" y="32.6583"/>
    <rect height="10" width="15" x="96.4253" y="27.5152"/>
    <rect height="10" width="15" x="121.2529" y="17.7773"/>
    <rect height="10" width="15" x="93.5027" y="35.9753"/>
    <rect height="10" width="15" x="137.3924" y="74.9252"/>
    <rect height="10" width="15" x="170.1775" y="74.4473"/>
    <rect height="10" width="15" x="44.7974" y="50.7038"/>
    <rect height="10" width="15" x="123.1512" y="80.9196"/>
    <rect height="10" width="15" x="226.1769" y="-0.2537"/>
    <rect height="10" width="15" x="185.6319" y="7.568"/>
    <rect height="10" width="15" x="98.0147" y="35.8376"/>
    <rect height="10" width="15" x="142.7631" y="27.0726"/>
    <rect height="10" width="15" x="65.022" y="22.4818"/>
    <rect height="10" width="15" x="92.0965" y="69.3647"/>
    <rect height="10" width="15" x="165.4893" y="53.5201"/>
    <rect height="10" width="15" x="139.4219" y="107.593"/>
    <rect height="10" width="15" x="46.4359" y="90.8834"/>
    <rect height="10" width="15" x="61.5533" y="81.9476"/>
    <rect height="10" width="15" x="247.8284" y="5.661"/>
    <rect height="10" width="15" x="103.1514" y="16.9845"/>
    <rect height="10" width="15" x="102.238" y="18.0099"/>
    <rect height="10" width="15" x="64.9882" y="30.4653"/>
    <rect height="10" width="15" x="217.1446" y="27.2616"/>
    <rect height="10" width="15" x="166.7393" y="46.4105"/>
    <rect height="10" width="15" x="238.6447" y="51.339"/>
    <rect height="10" width="15" x="47.2073" y="38.1045"/>
    <rect height="10" width="15" x="116.8812" y="116.713"/>
    <rect height="10" width="15" x="155.38" y="70.1989"/>
  </svg>
  <svg baseProfile="tiny" fill="rgb(151,132,85)" height="400" stroke="black" stroke-opacity="1.0" stroke-width="0.5" version="1.2" width="400">
    <defs/>
    <rect height="10" width="15" x="400.0" y="400.0"/>
    <rect height="10" width="15" x="400.0" y="392.2766"/>
    <rect height="10" width="15" x="400.0" y="386.4567"/>
    <rect height="10" width="15" x="400.0" y="366.5469"/>
    <rect height="10" width="15" x="400.0" y="348.0768"/>
    <rect height="10" width="15" x="400.0" y="343.1865"/>
    <rect height="10" width="15" x="400.0" y="366.3769"/>
    <rect height="10" width="15" x="400.0" y="338.9318"/>
    <rect height="10" width="15" x="400.0" y="324.7492"/>
    <rect height="10" width="15" x="400.0" y="266.6983"/>
    <rect height="10" width="15" x="394.0356" y="400.1912"/>
    <rect height="10" width="15" x="385.9945" y="391.088"/>
    <rect height="10" width="15" x="393.8748" y="383.6981"/>
    <rect height="10" width="15" x="397.4109" y="380.7766"/>
    <rect height="10" width="15" x="383.2217" y="352.4678"/>
    <rect height="10" width="15" x="384.5142" y="335.7692"/>
    <rect height="10" width="15" x="383.498" y="322.3962"/>
    <rect height="10" width="15" x="388.4219" y="340.9898"/>
    <rect height="10" width="15" x="397.6954" y="350.9059"/>
    <rect height="10" width="15" x="391.6958" y="330.7704"/>
    <rect height="10" width="15" x="379.5005" y="400.259"/>
    <rect height="10" width="15" x="377.5129" y="388.9661"/>
    <rect height="10" width="15" x="383.9909" y="369.4941"/>
    <rect height="10" width="15" x="369.0484" y="356.379"/>
    <rect height="10" width="15" x="392.7246" y="367.4735"/>
    <rect height="10" width="15" x="385.7479" y="351.1828"/>
    <rect height="10" width="15" x="383.1698" y="346.8104"/>
    <rect height="10" width="15" x="372.8315" y="356.4239"/>
    <rect height="10" width="15" x="368.7653" y="331.1172"/>
    <rect height="10" width="15" x="368.6508" y="297.6697"/>
    <rect height="10" width="15" x="351.2836" y="398.8861"/>
    <rect height="10" width="15" x="364.7757" y="386.8339"/>
    <rect height="10" width="15" x="361.5909" y="376.6211"/>
    <rect height="10" width="15" x="380.8642" y="360.535"/>
    <rect height="10" width="15" x="365.5707" y="339.5102"/>
    <rect height="10" width="15" x="347.8949" y="330.0802"/>
    <rect height="10" width="15" x="350.26" y="351.7891"/>
    <rect height="10" width="15" x="370.3584" y="294.605"/>
    <rect height="10" width="15" x="356.6464" y="330.6306"/>
    <rect height="10" width="15" x="362.4469" y="347.012"/>
    <rect height="10" width="15" x="366.2161" y="398.6139"/>
    <rect height="10" width="15" x="372.2927" y="393.3637"/>
    <rect height="10" width="15" x="335.0436" y="372.6228"/>
    <rect height="10" width="15" x="333.125" y="362.3297"/>
    <rect height="10" width="15" x="334.8674" y="347.3916"/>
    <rect height="10" width="15" x="329.2009" y="375.3003"/>
    <rect height="10" width="15" x="368.7741" y="340.0422"/>
    <rect height="10" width="15" x="330.6726" y="315.857"/>
    <rect height="10" width="15" x="387.8768" y="339.3785"/>
    <rect height="10" width="15" x="363.576" y="282.1802"/>
    <rect height="10" width="15" x="384.8644" y="399.7408"/>
    <rect height="10" width="15" x="335.8676" y="386.0064"/>
    <rect height="10" width="15" x="349.8585" y="390.5593"/>
    <rect height="10" width="15" x="364.0068" y="363.9025"/>
    <rect height="10" width="15" x="339.2962" y="367.6185"/>
    <rect height="10" width="15" x="352.0455" y="346.3637"/>
    <rect height="10" width="15" x="343.1338" y="311.0726"/>
    <rect height="10" width="15" x="321.6463" y="353.5451"/>
    <rect height="10" width="15" x="324.28" y="290.4862"/>
    <rect height="10" width="15" x="338.7516" y="334.7877"/>
    <rect height="10" width="15" x="354.1892" y="399.0399"/>
    <rect height="10" width="15" x="313.0878" y="392.5411"/>
    <rect height="10" width="15" x="339.0796" y="372.4564"/>
    <rect height="10" width="15" x="331.5388" y="373.2282"/>
    <rect height="10" width="15" x="387.9439" y="339.1239"/>
    <rect height="10" width="15" x="356.7749" y="373.4446"/>
    <rect height="10" width="15" x="345.8166" y="332.1035"/>
    <rect height="10" width="15" x="336.5539" y="327.2313"/>
    <rect height="10" width="15" x="292.9608" y="286.2144"/>
    <rect height="10" width="15" x="315.4098" y="338.5727"/>
    <rect height="10" width="15" x="371.5203" y="401.2494"/>
    <rect height="10" width="15" x="384.9708" y="397.745"/>
    <rect height="10" width="15" x="378.2882" y="379.2176"/>
    <rect height="10" width="15" x="367.4789" y="378.0153"/>
    <rect height="10" width="15" x="367.2037" y="368.3909"/>
    <rect height="10" width="15" x="368.133" y="330.88"/>
    <rect height="10" width="15" x="305.9003" y="324.2285"/>
    <rect height="10" width="15" x="359.0102" y="317.8225"/>
    <rect height="10" width="15" x="373.1141" y="330.7329"/>
    <rect height="10" width="15" x="299.721" y="283.09"/>
    <rect height="10" width="15" x="297.9529" y="396.2859"/>
    <rect height="10" width="15" x="294.1361" y="395.2853"/>
    <rect height="10" width="15" x="267.3377" y="388.2889"/>
    <rect height="10" width="15" x="257.0881" y="359.4278"/>
    <rect height="10" width="15" x="324.2075" y="340.9807"/>
    <rect height="10" width="15" x="270.2528" y="327.0524"/>
    <rect height="10" width="15" x="379.801" y="316.5493"/>
    <rect height="10" width="15" x="358.6075" y="360.9342"/>
    <rect height="10" width="15" x="353.2457" y="277.8146"/>
    <rect height="10" width="15" x="322.4433" y="305.2883"/>
    <rect height="10" width="15" x="295.5463" y="401.2069"/>
    <rect height="10" width="15" x="321.3084" y="380.6711"/>
    <rect height="10" width="15" x="378.0858" y="378.8915"/>
    <rect height="10" width="15" x="309.2386" y="354.7927"/>
    <rect height="10" width="15" x="247.3061" y="378.2795"/>
    <rect height="10" width="15" x="321.676" y="339.8124"/>
    <rect height="10" width="15" x="354.6606" y="309.332"/>
    <rect height="10" width="15" x="377.9813" y="347.0817"/>
    <rect height="10" width="15" x="303.9927" y="318.6748"/>
    <rect height="10" width="15" x="241.1862" y="345.5385"/>
    <rect height="10" width="15" x="259.8173" y="400.7661"/>
    <rect height="10" width="15" x="354.8021" y="382.9374"/>
    <rect height="10" width="15" x="376.471" y="388.6759"/>
    <rect height="10" width="15" x="238.9289" y="356.2588"/>
    <rect height="10" width="15" x="233.847" y="354.6805"/>
    <rect height="10" width="15" x="306.4816" y="330.9508"/>
    <rect height="10" width="15" x="297.3446" y="332.4952"/>
    <rect height="10" width="15" x="358.1102" y="330.3813"/>
    <rect height="10" width="15" x="268.8781" y="354.1167"/>
    <rect height="10" width="15" x="256.4997" y="291.9709"/>
    <rect height="10" width="15" x="373.3157" y="398.4663"/>
    <rect height="10" width="15" x="373.0949" y="381.9771"/>
    <rect height="10" width="15" x="251.024" y="367.909"/>
    <rect height="10" width="15" x="210.4137" y="362.9728"/>
    <rect height="10" width="15" x="345.435" y="340.4176"/>
    <rect height="10" width="15" x="339.3123" y="365.4128"/>
    <rect height="10" width="15" x="289.867" y="325.8614"/>
    <rect height="10" width="15" x="347.2618" y="310.463"/>
    <rect height="10" width="15" x="373.2905" y="311.4944"/>
    <rect height="10" width="15" x="305.7607" y="319.8892"/>
    <rect height="10" width="15" x="202.4624" y="396.0922"/>
    <rect height="10" width="15" x="194.1781" y="387.7475"/>
    <rect height="10" width="15" x="214.8152" y="391.7417"/>
    <rect height="10" width="15" x="294.639" y="369.3113"/>
    <rect height="10" width="15" x="271.3613" y="341.6095"/>
    <rect height="10" width="15" x="296.5859" y="339.5874"/>
    <rect height="10" width="15" x="235.1054" y="307.4365"/>
    <rect height="10" width="15" x="350.457" y="365.1093"/>
    <rect height="10" width="15" x="367.8819" y="307.1586"/>
    <rect height="10" width="15" x="375.3165" y="275.3671"/>
    <rect height="10" width="15" x="264.8183" y="405.955"/>
    <rect height="10" width="15" x="236.3962" y="397.4858"/>
    <rect height="10" width="15" x="285.9559" y="373.532"/>
    <rect height="10" width="15" x="309.3883" y="375.1569"/>
    <rect height="10" width="15" x="198.8751" y="377.7554"/>
    <rect height="10" width="15" x="171.2175" y="359.2884"/>
    <rect height="10" width="15" x="197.2321" y="321.0918"/>
    <rect height="10" width="15" x="303.0357" y="350.9036"/>
    <rect height="10" width="15" x="250.6418" y="309.1257"/>
    <rect height="10" width="15" x="308.9071" y="259.1854"/>
    <rect height="10" width="15" x="211.0145" y="403.7441"/>
    <rect height="10" width="15" x="215.5909" y="398.4802"/>
    <rect height="10" width="15" x="270.6947" y="376.2953"/>
    <rect height="10" width="15" x="335.3262" y="384.6697"/>
    <rect height="10" width="15" x="367.4653" y="334.5015"/>
    <rect height="10" width="15" x="164.1414" y="345.2061"/>
    <rect height="10" width="15" x="196.1183" y="352.6916"/>
    <rect height="10" width="15" x="184.3959" y="308.2644"/>
    <rect height="10" width="15" x="344.4133" y="296.3753"/>
    <rect height="10" width="15" x="178.5279" y="279.3838"/>
    <text fill="#290" font-family="Arial" font-size="30px" font-weight="bold" stroke="none" x="70" y="325">complex origins</text>
  </svg>
</svg>
