<?xml version='1.0' encoding='ASCII' standalone='yes'?>
<svg xmlns="http://www.w3.org/2000/svg" xmlns:ev="http://www.w3.org/2001/xml-events" xmlns:xlink="http://www.w3.org/1999/xlink" baseProfile="tiny" fill="rgb(135,125,24)" height="400" stroke="black" stroke-opacity="1.0" stroke-width="0.5" version="1.2" width="400">
  <defs/>
  <rect height="10" width="10" x="0.0" y="0.0"/>
  <rect height="10" width="10" x="0.0" y="7.8448"/>
  <rect height="10" width="10" x="0.0" y="25.7022"/>
  <rect height="10" width="10" x="0.0" y="38.7186"/>
  <rect height="10" width="10" x="0.0" y="51.4216"/>
  <rect height="10" width="10" x="0.0" y="61.8013"/>
  <rect height="10" width="10" x="0.0" y="58.3205"/>
  <rect height="10" width="10" x="0.0" y="38.2459"/>
  <rect height="10" width="10" x="0.0" y="73.8783"/>
  <rect height="10" width="10" x="0.0" y="105.6501"/>
  <rect height="10" width="10" x="9.0057" y="-0.0685"/>
  <rect height="10" width="10" x="8.4575" y="6.6829"/>
  <rect height="10" width="10" x="14.1926" y="25.4065"/>
  <rect height="10" width="10" x="6.2994" y="34.5269"/>
  <rect height="10" width="10" x="8.7387" y="58.04"/>
  <rect height="10" width="10" x="12.4888" y="51.6554"/>
  <rect height="10" width="10" x="7.6251" y="45.382"/>
  <rect height="10" width="10" x="5.4089" y="85.9409"/>
  <rect height="10" width="10" x="14.6704" y="79.0689"/>
  <rect height="10" width="10" x="10.3124" y="103.2169"/>
  <rect height="10" width="10" x="13.2556" y="0.7413"/>
  <rect height="10" width="10" x="27.5809" y="13.2582"/>
  <rect height="10" width="10" x="14.7705" y="14.6405"/>
  <rect height="10" width="10" x="13.7688" y="30.7702"/>
  <rect height="10" width="10" x="23.7189" y="60.5924"/>
  <rect height="10" width="10" x="30.2202" y="58.1364"/>
  <rect height="10" width="10" x="28.9317" y="49.0543"/>
  <rect height="10" width="10" x="26.2088" y="80.6499"/>
  <rect height="10" width="10" x="15.9171" y="92.1523"/>
  <rect height="10" width="10" x="16.2462" y="71.5403"/>
  <rect height="10" width="10" x="32.4957" y="-0.1911"/>
  <rect height="10" width="10" x="17.6858" y="7.4448"/>
  <rect height="10" width="10" x="24.5432" y="22.0956"/>
  <rect height="10" width="10" x="25.0143" y="41.6578"/>
  <rect height="10" width="10" x="30.9163" y="35.784"/>
  <rect height="10" width="10" x="20.611" y="39.4743"/>
  <rect height="10" width="10" x="20.9204" y="66.47"/>
  <rect height="10" width="10" x="27.0726" y="91.8016"/>
  <rect height="10" width="10" x="34.6334" y="41.9012"/>
  <rect height="10" width="10" x="30.3016" y="109.0611"/>
  <rect height="10" width="10" x="47.824" y="1.0537"/>
  <rect height="10" width="10" x="52.463" y="16.8138"/>
  <rect height="10" width="10" x="53.476" y="26.8663"/>
  <rect height="10" width="10" x="44.5887" y="39.211"/>
  <rect height="10" width="10" x="54.4858" y="47.4275"/>
  <rect height="10" width="10" x="58.3655" y="43.0893"/>
  <rect height="10" width="10" x="25.2089" y="35.5626"/>
  <rect height="10" width="10" x="47.1604" y="49.7887"/>
  <rect height="10" width="10" x="51.8113" y="56.0045"/>
  <rect height="10" width="10" x="56.0185" y="136.5853"/>
  <rect height="10" width="10" x="58.5037" y="1.7576"/>
  <rect height="10" width="10" x="54.8957" y="9.6477"/>
  <rect height="10" width="10" x="35.0257" y="16.2038"/>
  <rect height="10" width="10" x="49.7431" y="30.9764"/>
  <rect height="10" width="10" x="68.4921" y="45.7869"/>
  <rect height="10" width="10" x="76.776" y="54.82"/>
  <rect height="10" width="10" x="27.8025" y="90.4321"/>
  <rect height="10" width="10" x="38.3054" y="55.8492"/>
  <rect height="10" width="10" x="28.3753" y="75.4766"/>
  <rect height="10" width="10" x="40.8301" y="126.7379"/>
  <rect height="10" width="10" x="57.1532" y="-1.7614"/>
  <rect height="10" width="10" x="28.4829" y="11.3293"/>
  <rect height="10" width="10" x="30.8329" y="18.0478"/>
  <rect height="10" width="10" x="69.1561" y="44.3699"/>
  <rect height="10" width="10" x="58.4197" y="41.8758"/>
  <rect height="10" width="10" x="29.1505" y="39.5948"/>
  <rect height="10" width="10" x="91.7505" y="83.1633"/>
  <rect height="10" width="10" x="69.0131" y="33.0042"/>
  <rect height="10" width="10" x="72.5688" y="48.7601"/>
  <rect height="10" width="10" x="66.5483" y="60.3"/>
  <rect height="10" width="10" x="52.2304" y="-1.8515"/>
  <rect height="10" width="10" x="105.0442" y="2.3813"/>
  <rect height="10" width="10" x="107.6722" y="15.7436"/>
  <rect height="10" width="10" x="48.0648" y="46.5093"/>
  <rect height="10" width="10" x="59.3788" y="56.0354"/>
  <rect height="10" width="10" x="82.9701" y="67.563"/>
  <rect height="10" width="10" x="82.1848" y="65.0065"/>
  <rect height="10" width="10" x="75.8563" y="102.8059"/>
  <rect height="10" width="10" x="40.9474" y="94.4346"/>
  <rect height="10" width="10" x="107.7385" y="134.0804"/>
  <rect height="10" width="10" x="61.4749" y="0.4382"/>
  <rect height="10" width="10" x="106.8227" y="7.7715"/>
  <rect height="10" width="10" x="117.787" y="7.1683"/>
  <rect height="10" width="10" x="94.5522" y="18.3174"/>
  <rect height="10" width="10" x="70.8565" y="37.1531"/>
  <rect height="10" width="10" x="70.931" y="68.4293"/>
  <rect height="10" width="10" x="122.5294" y="67.4089"/>
  <rect height="10" width="10" x="55.1082" y="44.0387"/>
  <rect height="10" width="10" x="120.6806" y="63.2609"/>
  <rect height="10" width="10" x="121.3476" y="111.4698"/>
  <rect height="10" width="10" x="64.7021" y="3.8423"/>
  <rect height="10" width="10" x="126.5359" y="1.5245"/>
  <rect height="10" width="10" x="85.1191" y="32.5524"/>
  <rect height="10" width="10" x="43.4922" y="10.6969"/>
  <rect height="10" width="10" x="66.7698" y="25.2526"/>
  <rect height="10" width="10" x="137.0313" y="29.6173"/>
  <rect height="10" width="10" x="103.737" y="39.1502"/>
  <rect height="10" width="10" x="59.5714" y="107.029"/>
  <rect height="10" width="10" x="92.8051" y="90.6698"/>
  <rect height="10" width="10" x="123.7919" y="90.8429"/>
  <svg baseProfile="tiny" fill="rgb(135,125,24)" height="400" stroke="black" stroke-opacity="1.0" stroke-width="0.5" version="1.2" width="400">
    <defs/>
    <rect height="10" width="10" x="0.0" y="0.0"/>
    <rect height="10" width="10" x="0.0" y="9.8338"/>
    <rect height="10" width="10" x="0.0" y="13.0317"/>
    <rect height="10" width="10" x="0.0" y="15.99"/>
    <rect height="10" width="10" x="0.0" y="45.1257"/>
    <rect height="10" width="10" x="0.0" y="55.4169"/>
    <rect height="10" width="10" x="0.0" y="77.7736"/>
    <rect height="10" width="10" x="0.0" y="37.5762"/>
    <rect height="10" width="10" x="0.0" y="92.0928"/>
    <rect height="10" width="10" x="0.0" y="45.5678"/>
    <rect height="10" width="10" x="7.9707" y="-0.3179"/>
    <rect height="10" width="10" x="4.8363" y="12.1591"/>
    <rect height="10" width="10" x="10.6483" y="12.2285"/>
    <rect height="10" width="10" x="14.0874" y="29.9812"/>
    <rect height="10" width="10" x="8.8634" y="57.3606"/>
    <rect height="10" width="10" x="13.0945" y="69.6558"/>
    <rect height="10" width="10" x="10.8182" y="35.3687"/>
    <rect height="10" width="10" x="4.6905" y="90.5818"/>
    <rect height="10" width="10" x="14.5465" y="58.954"/>
    <rect height="10" width="10" x="15.4232" y="118.0691"/>
    <rect height="10" width="10" x="20.8337" y="-0.9078"/>
    <rect height="10" width="10" x="13.7288" y="12.6731"/>
    <rect height="10" width="10" x="26.9678" y="20.983"/>
    <rect height="10" width="10" x="17.227" y="43.947"/>
    <rect height="10" width="10" x="15.8791" y="42.8161"/>
    <rect height="10" width="10" x="21.0356" y="31.6208"/>
    <rect height="10" width="10" x="12.3222" y="66.3746"/>
    <rect height="10" width="10" x="28.458" y="40.8137"/>
    <rect height="10" width="10" x="9.5475" y="103.7019"/>
    <rect height="10" width="10" x="14.4186" y="52.4423"/>
    <rect height="10" width="10" x="22.4257" y="-0.4405"/>
    <rect height="10" width="10" x="27.0869" y="15.6478"/>
    <rect height="10" width="10" x="20.4149" y="26.3448"/>
    <rect height="10" width="10" x="21.0789" y="19.5346"/>
    <rect height="10" width="10" x="28.7437" y="21.0081"/>
    <rect height="10" width="10" x="35.4124" y="63.8166"/>
    <rect height="10" width="10" x="36.3624" y="70.8656"/>
    <rect height="10" width="10" x="23.6176" y="56.0974"/>
    <rect height="10" width="10" x="18.6839" y="104.8347"/>
    <rect height="10" width="10" x="25.3644" y="124.1301"/>
    <rect height="10" width="10" x="26.4067" y="-1.0814"/>
    <rect height="10" width="10" x="26.5936" y="7.4064"/>
    <rect height="10" width="10" x="53.4165" y="26.2124"/>
    <rect height="10" width="10" x="31.6794" y="16.1422"/>
    <rect height="10" width="10" x="46.251" y="46.059"/>
    <rect height="10" width="10" x="56.7818" y="26.1761"/>
    <rect height="10" width="10" x="30.465" y="86.8845"/>
    <rect height="10" width="10" x="20.498" y="106.2623"/>
    <rect height="10" width="10" x="24.9359" y="76.4715"/>
    <rect height="10" width="10" x="18.9546" y="118.1148"/>
    <rect height="10" width="10" x="35.204" y="-0.7265"/>
    <rect height="10" width="10" x="38.404" y="14.4066"/>
    <rect height="10" width="10" x="31.7441" y="21.9837"/>
    <rect height="10" width="10" x="67.2456" y="32.6912"/>
    <rect height="10" width="10" x="39.8256" y="41.2103"/>
    <rect height="10" width="10" x="53.8249" y="30.1489"/>
    <rect height="10" width="10" x="63.8584" y="78.3663"/>
    <rect height="10" width="10" x="51.2399" y="77.7741"/>
    <rect height="10" width="10" x="55.4191" y="64.541"/>
    <rect height="10" width="10" x="44.5566" y="74.9662"/>
    <rect height="10" width="10" x="63.1118" y="0.5326"/>
    <rect height="10" width="10" x="27.4041" y="4.1441"/>
    <rect height="10" width="10" x="47.4982" y="21.4513"/>
    <rect height="10" width="10" x="58.0969" y="32.5705"/>
    <rect height="10" width="10" x="77.1318" y="41.7187"/>
    <rect height="10" width="10" x="62.4803" y="74.5666"/>
    <rect height="10" width="10" x="42.0359" y="68.8111"/>
    <rect height="10" width="10" x="30.8976" y="83.6092"/>
    <rect height="10" width="10" x="77.9622" y="113.4021"/>
    <rect height="10" width="10" x="69.7072" y="83.5564"/>
    <rect height="10" width="10" x="55.7171" y="-2.7037"/>
    <rect height="10" width="10" x="97.3465" y="2.0621"/>
    <rect height="10" width="10" x="46.1115" y="11.5196"/>
    <rect height="10" width="10" x="42.6493" y="16.1623"/>
    <rect height="10" width="10" x="56.6296" y="45.6574"/>
    <rect height="10" width="10" x="43.1687" y="42.2393"/>
    <rect height="10" width="10" x="54.6591" y="63.4029"/>
    <rect height="10" width="10" x="70.876" y="32.8337"/>
    <rect height="10" width="10" x="80.7463" y="65.1133"/>
    <rect height="10" width="10" x="46.6565" y="89.6863"/>
    <rect height="10" width="10" x="65.4394" y="3.3695"/>
    <rect height="10" width="10" x="109.2559" y="10.2594"/>
    <rect height="10" width="10" x="45.0536" y="14.0341"/>
    <rect height="10" width="10" x="39.4395" y="36.7149"/>
    <rect height="10" width="10" x="105.0614" y="37.006"/>
    <rect height="10" width="10" x="70.7769" y="45.0074"/>
    <rect height="10" width="10" x="54.5062" y="86.7579"/>
    <rect height="10" width="10" x="41.3707" y="60.4115"/>
    <rect height="10" width="10" x="65.5538" y="83.3507"/>
    <rect height="10" width="10" x="81.6967" y="92.5735"/>
    <rect height="10" width="10" x="54.4961" y="-1.5778"/>
    <rect height="10" width="10" x="80.342" y="7.8874"/>
    <rect height="10" width="10" x="135.7151" y="17.8723"/>
    <rect height="10" width="10" x="108.3591" y="24.253"/>
    <rect height="10" width="10" x="50.3113" y="38.9096"/>
    <rect height="10" width="10" x="122.2843" y="70.5606"/>
    <rect height="10" width="10" x="80.5582" y="26.2808"/>
    <rect height="10" width="10" x="134.6982" y="46.4536"/>
    <rect height="10" width="10" x="64.5665" y="69.2942"/>
    <rect height="10" width="10" x="100.423" y="117.7277"/>
  </svg>
  <svg baseProfile="tiny" fill="rgb(212,125,215)" height="400" stroke="black" stroke-opacity="1.0" stroke-width="0.5" version="1.2" width="400">
    <defs/>
    <rect height="10" width="15" x="0.0" y="0.0"/>
    <rect height="10" width="15" x="0.0" y="6.4235"/>
    <rect height="10" width="15" x="0.0" y="18.5211"/>
    <rect height="10" width="15" x="0.0" y="39.8999"/>
    <rect height="10" width="15" x="0.0" y="50.0748"/>
    <rect height="10" width="15" x="0.0" y="29.3835"/>
    <rect height="10" width="15" x="0.0" y="64.0625"/>
    <rect height="10" width="15" x="0.0" y="81.1281"/>
    <rect height="10" width="15" x="0.0" y="48.7004"/>
    <rect height="10" width="15" x="0.0" y="107.2588"/>
    <rect height="10" width="15" x="8.6528" y="0.3397"/>
    <rect height="10" width="15" x="8.9716" y="12.0704"/>
    <rect height="10" width="15" x="17.6106" y="19.9691"/>
    <rect height="10" width="15" x="9.5315" y="26.8191"/>
    <rect height="10" width="15" x="6.8005" y="58.606"/>
    <rect height="10" width="15" x="14.7144" y="24.9519"/>
    <rect height="10" width="15" x="6.9013" y="56.3182"/>
    <rect height="10" width="15" x="16.8382" y="104.429"/>
    <rect height="10" width="15" x="12.5401" y="66.297"/>
    <rect height="10" width="15" x="3.9508" y="107.9805"/>
    <rect height="10" width="15" x="12.2157" y="-0.625"/>
    <rect height="10" width="15" x="14.0428" y="15.6397"/>
    <rect height="10" width="15" x="29.6328" y="23.2724"/>
    <rect height="10" width="15" x="33.3585" y="29.5525"/>
    <rect height="10" width="15" x="16.3404" y="21.5764"/>
    <rect height="10" width="15" x="19.9668" y="46.7936"/>
    <rect height="10" width="15" x="9.702" y="54.5914"/>
    <rect height="10" width="15" x="10.9635" y="86.9639"/>
    <rect height="10" width="15" x="26.9677" y="82.6385"/>
    <rect height="10" width="15" x="9.5609" y="45.0625"/>
    <rect height="10" width="15" x="39.6222" y="-0.2284"/>
    <rect height="10" width="15" x="53.5474" y="5.009"/>
    <rect height="10" width="15" x="16.0334" y="20.9125"/>
    <rect height="10" width="15" x="41.1377" y="43.63"/>
    <rect height="10" width="15" x="17.431" y="50.1611"/>
    <rect height="10" width="15" x="31.4935" y="64.4135"/>
    <rect height="10" width="15" x="48.6898" y="70.1448"/>
    <rect height="10" width="15" x="31.4361" y="77.5491"/>
    <rect height="10" width="15" x="31.4989" y="87.9801"/>
    <rect height="10" width="15" x="47.3212" y="84.7728"/>
    <rect height="10" width="15" x="55.305" y="0.3962"/>
    <rect height="10" width="15" x="11.8329" y="6.5981"/>
    <rect height="10" width="15" x="53.5025" y="30.89"/>
    <rect height="10" width="15" x="23.4141" y="16.9981"/>
    <rect height="10" width="15" x="11.1242" y="24.4707"/>
    <rect height="10" width="15" x="65.5895" y="70.8627"/>
    <rect height="10" width="15" x="54.4997" y="38.7809"/>
    <rect height="10" width="15" x="38.4922" y="87.2558"/>
    <rect height="10" width="15" x="22.2857" y="89.7732"/>
    <rect height="10" width="15" x="18.8891" y="80.9291"/>
    <rect height="10" width="15" x="77.3814" y="-1.175"/>
    <rect height="10" width="15" x="24.1196" y="7.6167"/>
    <rect height="10" width="15" x="38.7379" y="30.074"/>
    <rect height="10" width="15" x="86.0169" y="29.9838"/>
    <rect height="10" width="15" x="49.8566" y="26.9773"/>
    <rect height="10" width="15" x="66.4277" y="35.4796"/>
    <rect height="10" width="15" x="45.8938" y="60.3494"/>
    <rect height="10" width="15" x="82.6182" y="33.7491"/>
    <rect height="10" width="15" x="22.8743" y="44.7496"/>
    <rect height="10" width="15" x="15.4193" y="122.0989"/>
    <rect height="10" width="15" x="61.722" y="-0.8674"/>
    <rect height="10" width="15" x="54.7595" y="3.4286"/>
    <rect height="10" width="15" x="34.5415" y="19.6952"/>
    <rect height="10" width="15" x="103.8099" y="32.6367"/>
    <rect height="10" width="15" x="50.486" y="53.725"/>
    <rect height="10" width="15" x="75.413" y="58.9298"/>
    <rect height="10" width="15" x="93.8557" y="44.0128"/>
    <rect height="10" width="15" x="40.4245" y="43.8279"/>
    <rect height="10" width="15" x="55.3116" y="116.596"/>
    <rect height="10" width="15" x="64.7375" y="73.4745"/>
    <rect height="10" width="15" x="36.9744" y="-1.2241"/>
    <rect height="10" width="15" x="59.3288" y="18.0418"/>
    <rect height="10" width="15" x="21.3898" y="20.4995"/>
    <rect height="10" width="15" x="93.8974" y="24.6223"/>
    <rect height="10" width="15" x="86.233" y="56.2956"/>
    <rect height="10" width="15" x="14.2409" y="77.1769"/>
    <rect height="10" width="15" x="42.8819" y="63.4198"/>
    <rect height="10" width="15" x="68.4074" y="68.6262"/>
    <rect height="10" width="15" x="71.8417" y="101.3381"/>
    <rect height="10" width="15" x="96.0204" y="92.4484"/>
    <rect height="10" width="15" x="93.8725" y="-1.5905"/>
    <rect height="10" width="15" x="45.0065" y="6.3162"/>
    <rect height="10" width="15" x="38.4495" y="14.8754"/>
    <rect height="10" width="15" x="92.3719" y="47.9435"/>
    <rect height="10" width="15" x="76.0395" y="31.5804"/>
    <rect height="10" width="15" x="136.8976" y="21.1126"/>
    <rect height="10" width="15" x="30.2402" y="50.9351"/>
    <rect height="10" width="15" x="58.6332" y="81.7652"/>
    <rect height="10" width="15" x="85.5553" y="94.8864"/>
    <rect height="10" width="15" x="63.0207" y="72.004"/>
    <rect height="10" width="15" x="110.7199" y="2.5973"/>
    <rect height="10" width="15" x="132.8941" y="3.1485"/>
    <rect height="10" width="15" x="103.8261" y="25.3192"/>
    <rect height="10" width="15" x="75.9591" y="12.5296"/>
    <rect height="10" width="15" x="102.9871" y="63.0803"/>
    <rect height="10" width="15" x="137.6985" y="66.5589"/>
    <rect height="10" width="15" x="140.9752" y="88.8053"/>
    <rect height="10" width="15" x="92.9117" y="38.7486"/>
    <rect height="10" width="15" x="53.1964" y="56.387"/>
    <rect height="10" width="15" x="19.7887" y="139.3999"/>
    <rect height="10" width="15" x="20.8638" y="1.8367"/>
    <rect height="10" width="15" x="76.9459" y="16.9975"/>
    <rect height="10" width="15" x="143.0021" y="25.585"/>
    <rect height="10" width="15" x="75.3449" y="44.55"/>
    <rect height="10" width="15" x="147.9591" y="58.0757"/>
    <rect height="10" width="15" x="79.0928" y="31.8416"/>
    <rect height="10" width="15" x="21.1826" y="93.9995"/>
    <rect height="10" width="15" x="50.0585" y="109.4426"/>
    <rect height="10" width="15" x="44.3688" y="56.4225"/>
    <rect height="10" width="15" x="164.0847" y="52.5135"/>
    <rect height="10" width="15" x="111.4083" y="0.5485"/>
    <rect height="10" width="15" x="86.9351" y="2.6122"/>
    <rect height="10" width="15" x="121.318" y="10.1415"/>
    <rect height="10" width="15" x="59.3932" y="31.1776"/>
    <rect height="10" width="15" x="183.9189" y="52.4469"/>
    <rect height="10" width="15" x="95.8055" y="32.3174"/>
    <rect height="10" width="15" x="48.1883" y="92.2398"/>
    <rect height="10" width="15" x="63.578" y="41.2188"/>
    <rect height="10" width="15" x="113.8449" y="92.4375"/>
    <rect height="10" width="15" x="107.1676" y="108.3795"/>
    <rect height="10" width="15" x="78.7272" y="5.1618"/>
    <rect height="10" width="15" x="184.3812" y="20.0189"/>
    <rect height="10" width="15" x="206.9075" y="26.3596"/>
    <rect height="10" width="15" x="79.7989" y="39.3277"/>
    <rect height="10" width="15" x="36.47" y="31.7718"/>
    <rect height="10" width="15" x="187.2355" y="20.3278"/>
    <rect height="10" width="15" x="169.5948" y="26.148"/>
    <rect height="10" width="15" x="53.136" y="100.4265"/>
    <rect height="10" width="15" x="131.3039" y="43.4206"/>
    <rect height="10" width="15" x="191.6482" y="72.3202"/>
    <rect height="10" width="15" x="119.4427" y="-5.33"/>
    <rect height="10" width="15" x="33.9597" y="7.9097"/>
    <rect height="10" width="15" x="198.0725" y="25.5769"/>
    <rect height="10" width="15" x="110.1311" y="44.0478"/>
    <rect height="10" width="15" x="196.197" y="44.51"/>
    <rect height="10" width="15" x="133.5998" y="30.1684"/>
    <rect height="10" width="15" x="136.4981" y="50.0158"/>
    <rect height="10" width="15" x="51.9713" y="48.915"/>
    <rect height="10" width="15" x="130.6835" y="78.4155"/>
    <rect height="10" width="15" x="119.6481" y="52.0433"/>
    <rect height="10" width="15" x="199.5676" y="4.6952"/>
    <rect height="10" width="15" x="70.7312" y="10.949"/>
    <rect height="10" width="15" x="69.3365" y="25.7156"/>
    <rect height="10" width="15" x="165.7253" y="46.632"/>
    <rect height="10" width="15" x="136.8928" y="62.0777"/>
    <rect height="10" width="15" x="41.9849" y="63.3733"/>
    <rect height="10" width="15" x="184.0212" y="39.2739"/>
    <rect height="10" width="15" x="194.8541" y="111.6053"/>
    <rect height="10" width="15" x="81.8586" y="92.4221"/>
    <rect height="10" width="15" x="186.123" y="43.3516"/>
  </svg>
  <svg baseProfile="tiny" fill="rgb(125,212,215)" height="400" stroke="black" stroke-opacity="1.0" stroke-width="0.5" version="1.2" width="400">
    <defs/>
    <rect height="10" width="15" x="400.0" y="400.0"/>
    <rect height="10" width="15" x="400.0" y="386.7278"/>
    <rect height="10" width="15" x="400.0" y="373.5862"/>
    <rect height="10" width="15" x="400.0" y="364.4839"/>
    <rect height="10" width="15" x="400.0" y="348.3731"/>
    <rect height="10" width="15" x="400.0" y="347.8674"/>
    <rect height="10" width="15" x="400.0" y="310.2067"/>
    <rect height="10" width="15" x="400.0" y="330.2729"/>
    <rect height="10" width="15" x="400.0" y="352.1172"/>
    <rect height="10" width="15" x="400.0" y="286.312"/>
    <rect height="10" width="15" x="396.4845" y="399.7511"/>
    <rect height="10" width="15" x="392.0666" y="391.2237"/>
    <rect height="10" width="15" x="386.7034" y="371.9122"/>
    <rect height="10" width="15" x="387.0746" y="381.4673"/>
    <rect height="10" width="15" x="393.0958" y="344.2972"/>
    <rect height="10" width="15" x="382.8302" y="372.0227"/>
    <rect height="10" width="15" x="396.3594" y="363.0436"/>
    <rect height="10" width="15" x="389.2172" y="336.2578"/>
    <rect height="10" width="15" x="389.6757" y="329.6446"/>
    <rect height="10" width="15" x="397.1529" y="272.0233"/>
    <rect height="10" width="15" x="390.8091" y="399.3501"/>
    <rect height="10" width="15" x="378.6326" y="384.1015"/>
    <rect height="10" width="15" x="393.5072" y="376.8046"/>
    <rect height="10" width="15" x="382.2964" y="383.9688"/>
    <rect height="10" width="15" x="387.3523" y="351.3093"/>
    <rect height="10" width="15" x="366.5871" y="337.9805"/>
    <rect height="10" width="15" x="389.8619" y="322.7693"/>
    <rect height="10" width="15" x="364.3099" y="335.6964"/>
    <rect height="10" width="15" x="395.0168" y="321.957"/>
    <rect height="10" width="15" x="386.2098" y="291.7657"/>
    <rect height="10" width="15" x="354.206" y="401.3046"/>
    <rect height="10" width="15" x="364.6845" y="395.7337"/>
    <rect height="10" width="15" x="371.0264" y="377.7444"/>
    <rect height="10" width="15" x="347.6359" y="371.0281"/>
    <rect height="10" width="15" x="346.2444" y="362.6686"/>
    <rect height="10" width="15" x="386.3039" y="371.118"/>
    <rect height="10" width="15" x="392.2816" y="362.4679"/>
    <rect height="10" width="15" x="362.2139" y="321.4595"/>
    <rect height="10" width="15" x="379.9329" y="323.7827"/>
    <rect height="10" width="15" x="387.2925" y="322.9606"/>
    <rect height="10" width="15" x="344.5638" y="398.5404"/>
    <rect height="10" width="15" x="379.6751" y="396.5884"/>
    <rect height="10" width="15" x="332.252" y="384.5002"/>
    <rect height="10" width="15" x="333.2012" y="361.6924"/>
    <rect height="10" width="15" x="338.7646" y="358.027"/>
    <rect height="10" width="15" x="360.4442" y="334.0948"/>
    <rect height="10" width="15" x="377.1303" y="348.349"/>
    <rect height="10" width="15" x="388.9393" y="308.9178"/>
    <rect height="10" width="15" x="347.7994" y="355.0755"/>
    <rect height="10" width="15" x="360.5525" y="292.2593"/>
    <rect height="10" width="15" x="355.8457" y="398.8835"/>
    <rect height="10" width="15" x="355.5132" y="388.5022"/>
    <rect height="10" width="15" x="326.1043" y="386.5909"/>
    <rect height="10" width="15" x="359.3045" y="372.3983"/>
    <rect height="10" width="15" x="353.34" y="363.4186"/>
    <rect height="10" width="15" x="384.959" y="377.4738"/>
    <rect height="10" width="15" x="389.4413" y="328.3789"/>
    <rect height="10" width="15" x="332.0795" y="293.2585"/>
    <rect height="10" width="15" x="327.5194" y="286.2318"/>
    <rect height="10" width="15" x="320.4877" y="348.1248"/>
    <rect height="10" width="15" x="338.2642" y="397.2398"/>
    <rect height="10" width="15" x="295.2204" y="395.669"/>
    <rect height="10" width="15" x="321.9362" y="385.7382"/>
    <rect height="10" width="15" x="313.2088" y="374.6134"/>
    <rect height="10" width="15" x="344.3943" y="365.4501"/>
    <rect height="10" width="15" x="301.3986" y="355.1676"/>
    <rect height="10" width="15" x="360.069" y="343.2008"/>
    <rect height="10" width="15" x="333.8056" y="316.0214"/>
    <rect height="10" width="15" x="375.8711" y="287.7259"/>
    <rect height="10" width="15" x="321.7027" y="340.9338"/>
    <rect height="10" width="15" x="332.4444" y="396.6209"/>
    <rect height="10" width="15" x="373.7201" y="392.8086"/>
    <rect height="10" width="15" x="341.0211" y="389.3863"/>
    <rect height="10" width="15" x="287.0268" y="358.1776"/>
    <rect height="10" width="15" x="330.1782" y="380.5374"/>
    <rect height="10" width="15" x="367.2058" y="326.0183"/>
    <rect height="10" width="15" x="336.0784" y="325.3614"/>
    <rect height="10" width="15" x="274.7929" y="298.6776"/>
    <rect height="10" width="15" x="317.3837" y="282.6274"/>
    <rect height="10" width="15" x="377.2262" y="316.1675"/>
    <rect height="10" width="15" x="378.1319" y="403.6625"/>
    <rect height="10" width="15" x="258.5741" y="385.6209"/>
    <rect height="10" width="15" x="322.9745" y="390.3354"/>
    <rect height="10" width="15" x="286.083" y="363.0676"/>
    <rect height="10" width="15" x="348.9139" y="336.9738"/>
    <rect height="10" width="15" x="326.1816" y="335.755"/>
    <rect height="10" width="15" x="326.0955" y="312.5109"/>
    <rect height="10" width="15" x="329.8543" y="347.9508"/>
    <rect height="10" width="15" x="331.5493" y="307.3463"/>
    <rect height="10" width="15" x="318.3169" y="295.2092"/>
    <rect height="10" width="15" x="344.9246" y="397.0932"/>
    <rect height="10" width="15" x="266.2974" y="388.4185"/>
    <rect height="10" width="15" x="312.1286" y="374.1321"/>
    <rect height="10" width="15" x="367.4241" y="384.7691"/>
    <rect height="10" width="15" x="274.003" y="377.2709"/>
    <rect height="10" width="15" x="311.2635" y="370.099"/>
    <rect height="10" width="15" x="270.3494" y="322.8842"/>
    <rect height="10" width="15" x="306.8321" y="349.7897"/>
    <rect height="10" width="15" x="359.9285" y="292.2441"/>
    <rect height="10" width="15" x="307.9247" y="281.6791"/>
    <rect height="10" width="15" x="285.4308" y="395.9464"/>
    <rect height="10" width="15" x="341.3363" y="397.0752"/>
    <rect height="10" width="15" x="230.3503" y="394.1685"/>
    <rect height="10" width="15" x="253.3913" y="371.5288"/>
    <rect height="10" width="15" x="262.9349" y="383.3821"/>
    <rect height="10" width="15" x="274.3305" y="345.2868"/>
    <rect height="10" width="15" x="228.0269" y="367.3834"/>
    <rect height="10" width="15" x="357.3208" y="355.9926"/>
    <rect height="10" width="15" x="248.6711" y="330.9417"/>
    <rect height="10" width="15" x="379.1918" y="276.8514"/>
    <rect height="10" width="15" x="217.2212" y="402.1402"/>
    <rect height="10" width="15" x="341.223" y="386.5784"/>
    <rect height="10" width="15" x="228.6958" y="379.9614"/>
    <rect height="10" width="15" x="250.4384" y="352.217"/>
    <rect height="10" width="15" x="348.7465" y="355.5047"/>
    <rect height="10" width="15" x="266.1866" y="320.1711"/>
    <rect height="10" width="15" x="359.7494" y="353.1415"/>
    <rect height="10" width="15" x="280.0124" y="310.5817"/>
    <rect height="10" width="15" x="240.5975" y="276.679"/>
    <rect height="10" width="15" x="356.2307" y="294.6908"/>
    <rect height="10" width="15" x="367.1386" y="399.2989"/>
    <rect height="10" width="15" x="321.1432" y="384.1604"/>
    <rect height="10" width="15" x="313.6103" y="373.5953"/>
    <rect height="10" width="15" x="225.403" y="375.2484"/>
    <rect height="10" width="15" x="306.9362" y="374.6454"/>
    <rect height="10" width="15" x="374.9282" y="336.0134"/>
    <rect height="10" width="15" x="333.981" y="374.4966"/>
    <rect height="10" width="15" x="351.101" y="292.0604"/>
    <rect height="10" width="15" x="301.117" y="305.5317"/>
    <rect height="10" width="15" x="358.4537" y="340.7208"/>
    <rect height="10" width="15" x="253.7114" y="395.7388"/>
    <rect height="10" width="15" x="296.4375" y="383.0659"/>
    <rect height="10" width="15" x="287.8086" y="372.8826"/>
    <rect height="10" width="15" x="363.7714" y="366.1119"/>
    <rect height="10" width="15" x="287.4498" y="346.1331"/>
    <rect height="10" width="15" x="242.384" y="338.7063"/>
    <rect height="10" width="15" x="218.2373" y="375.5209"/>
    <rect height="10" width="15" x="262.8557" y="363.9474"/>
    <rect height="10" width="15" x="230.1171" y="332.6026"/>
    <rect height="10" width="15" x="169.4354" y="319.3179"/>
    <rect height="10" width="15" x="287.9581" y="394.3928"/>
    <rect height="10" width="15" x="243.8408" y="381.7742"/>
    <rect height="10" width="15" x="333.7661" y="391.5127"/>
    <rect height="10" width="15" x="173.6063" y="367.8015"/>
    <rect height="10" width="15" x="280.563" y="340.4724"/>
    <rect height="10" width="15" x="272.5223" y="329.8439"/>
    <rect height="10" width="15" x="367.7838" y="320.7935"/>
    <rect height="10" width="15" x="233.4467" y="369.2062"/>
    <rect height="10" width="15" x="181.8321" y="274.0882"/>
    <rect height="10" width="15" x="271.9219" y="303.0644"/>
    <text fill="#290" font-family="Arial" font-size="30px" font-weight="bold" stroke="none" x="70" y="325">complex origins</text>
  </svg>
</svg>
