<?xml version='1.0' encoding='ASCII' standalone='yes'?>
<svg xmlns="http://www.w3.org/2000/svg" xmlns:ev="http://www.w3.org/2001/xml-events" xmlns:xlink="http://www.w3.org/1999/xlink" baseProfile="tiny" fill="rgb(135,125,24)" height="400" stroke="black" stroke-opacity="1.0" stroke-width="0.5" version="1.2" width="400">
  <defs/>
  <rect height="10" width="10" x="0.0" y="0.0"/>
  <rect height="10" width="10" x="0.0" y="7.8448"/>
  <rect height="10" width="10" x="0.0" y="25.7022"/>
  <rect height="10" width="10" x="0.0" y="38.7186"/>
  <rect height="10" width="10" x="0.0" y="51.4216"/>
  <rect height="10" width="10" x="0.0" y="61.8013"/>
  <rect height="10" width="10" x="0.0" y="58.3205"/>
  <rect height="10" width="10" x="0.0" y="38.2459"/>
  <rect height="10" width="10" x="0.0" y="73.8783"/>
  <rect height="10" width="10" x="0.0" y="105.6501"/>
  <rect height="10" width="10" x="9.0057" y="-0.0685"/>
  <rect height="10" width="10" x="8.4575" y="6.6829"/>
  <rect height="10" width="10" x="14.1926" y="25.4065"/>
  <rect height="10" width="10" x="6.2994" y="34.5269"/>
  <rect height="10" width="10" x="8.7387" y="58.04"/>
  <rect height="10" width="10" x="12.4888" y="51.6554"/>
  <rect height="10" width="10" x="7.6251" y="45.382"/>
  <rect height="10" width="10" x="5.4089" y="85.9409"/>
  <rect height="10" width="10" x="14.6704" y="79.0689"/>
  <rect height="10" width="10" x="10.3124" y="103.2169"/>
  <rect height="10" width="10" x="13.2556" y="0.7413"/>
  <rect height="10" width="10" x="27.5809" y="13.2582"/>
  <rect height="10" width="10" x="14.7705" y="14.6405"/>
  <rect height="10" width="10" x="13.7688" y="30.7702"/>
  <rect height="10" width="10" x="23.7189" y="60.5924"/>
  <rect height="10" width="10" x="30.2202" y="58.1364"/>
  <rect height="10" width="10" x="28.9317" y="49.0543"/>
  <rect height="10" width="10" x="26.2088" y="80.6499"/>
  <rect height="10" width="10" x="15.9171" y="92.1523"/>
  <rect height="10" width="10" x="16.2462" y="71.5403"/>
  <rect height="10" width="10" x="32.4957" y="-0.1911"/>
  <rect height="10" width="10" x="17.6858" y="7.4448"/>
  <rect height="10" width="10" x="24.5432" y="22.0956"/>
  <rect height="10" width="10" x="25.0143" y="41.6578"/>
  <rect height="10" width="10" x="30.9163" y="35.784"/>
  <rect height="10" width="10" x="20.611" y="39.4743"/>
  <rect height="10" width="10" x="20.9204" y="66.47"/>
  <rect height="10" width="10" x="27.0726" y="91.8016"/>
  <rect height="10" width="10" x="34.6334" y="41.9012"/>
  <rect height="10" width="10" x="30.3016" y="109.0611"/>
  <rect height="10" width="10" x="47.824" y="1.0537"/>
  <rect height="10" width="10" x="52.463" y="16.8138"/>
  <rect height="10" width="10" x="53.476" y="26.8663"/>
  <rect height="10" width="10" x="44.5887" y="39.211"/>
  <rect height="10" width="10" x="54.4858" y="47.4275"/>
  <rect height="10" width="10" x="58.3655" y="43.0893"/>
  <rect height="10" width="10" x="25.2089" y="35.5626"/>
  <rect height="10" width="10" x="47.1604" y="49.7887"/>
  <rect height="10" width="10" x="51.8113" y="56.0045"/>
  <rect height="10" width="10" x="56.0185" y="136.5853"/>
  <rect height="10" width="10" x="58.5037" y="1.7576"/>
  <rect height="10" width="10" x="54.8957" y="9.6477"/>
  <rect height="10" width="10" x="35.0257" y="16.2038"/>
  <rect height="10" width="10" x="49.7431" y="30.9764"/>
  <rect height="10" width="10" x="68.4921" y="45.7869"/>
  <rect height="10" width="10" x="76.776" y="54.82"/>
  <rect height="10" width="10" x="27.8025" y="90.4321"/>
  <rect height="10" width="10" x="38.3054" y="55.8492"/>
  <rect height="10" width="10" x="28.3753" y="75.4766"/>
  <rect height="10" width="10" x="40.8301" y="126.7379"/>
  <rect height="10" width="10" x="57.1532" y="-1.7614"/>
  <rect height="10" width="10" x="28.4829" y="11.3293"/>
  <rect height="10" width="10" x="30.8329" y="18.0478"/>
  <rect height="10" width="10" x="69.1561" y="44.3699"/>
  <rect height="10" width="10" x="58.4197" y="41.8758"/>
  <rect height="10" width="10" x="29.1505" y="39.5948"/>
  <rect height="10" width="10" x="91.7505" y="83.1633"/>
  <rect height="10" width="10" x="69.0131" y="33.0042"/>
  <rect height="10" width="10" x="72.5688" y="48.7601"/>
  <rect height="10" width="10" x="66.5483" y="60.3"/>
  <rect height="10" width="10" x="52.2304" y="-1.8515"/>
  <rect height="10" width="10" x="105.0442" y="2.3813"/>
  <rect height="10" width="10" x="107.6722" y="15.7436"/>
  <rect height="10" width="10" x="48.0648" y="46.5093"/>
  <rect height="10" width="10" x="59.3788" y="56.0354"/>
  <rect height="10" width="10" x="82.9701" y="67.563"/>
  <rect height="10" width="10" x="82.1848" y="65.0065"/>
  <rect height="10" width="10" x="75.8563" y="102.8059"/>
  <rect height="10" width="10" x="40.9474" y="94.4346"/>
  <rect height="10" width="10" x="107.7385" y="134.0804"/>
  <rect height="10" width="10" x="61.4749" y="0.4382"/>
  <rect height="10" width="10" x="106.8227" y="7.7715"/>
  <rect height="10" width="10" x="117.787" y="7.1683"/>
  <rect height="10" width="10" x="94.5522" y="18.3174"/>
  <rect height="10" width="10" x="70.8565" y="37.1531"/>
  <rect height="10" width="10" x="70.931" y="68.4293"/>
  <rect height="10" width="10" x="122.5294" y="67.4089"/>
  <rect height="10" width="10" x="55.1082" y="44.0387"/>
  <rect height="10" width="10" x="120.6806" y="63.2609"/>
  <rect height="10" width="10" x="121.3476" y="111.4698"/>
  <rect height="10" width="10" x="64.7021" y="3.8423"/>
  <rect height="10" width="10" x="126.5359" y="1.5245"/>
  <rect height="10" width="10" x="85.1191" y="32.5524"/>
  <rect height="10" width="10" x="43.4922" y="10.6969"/>
  <rect height="10" width="10" x="66.7698" y="25.2526"/>
  <rect height="10" width="10" x="137.0313" y="29.6173"/>
  <rect height="10" width="10" x="103.737" y="39.1502"/>
  <rect height="10" width="10" x="59.5714" y="107.029"/>
  <rect height="10" width="10" x="92.8051" y="90.6698"/>
  <rect height="10" width="10" x="123.7919" y="90.8429"/>
  <svg baseProfile="tiny" fill="rgb(135,125,24)" height="400" stroke="black" stroke-opacity="1.0" stroke-width="0.5" version="1.2" width="400">
    <defs/>
    <rect height="10" width="10" x="0.0" y="0.0"/>
    <rect height="10" width="10" x="0.0" y="5.0804"/>
    <rect height="10" width="10" x="0.0" y="22.7908"/>
    <rect height="10" width="10" x="0.0" y="42.5854"/>
    <rect height="10" width="10" x="0.0" y="59.9826"/>
    <rect height="10" width="10" x="0.0" y="29.3088"/>
    <rect height="10" width="10" x="0.0" y="38.8309"/>
    <rect height="10" width="10" x="0.0" y="85.5089"/>
    <rect height="10" width="10" x="0.0" y="91.3659"/>
    <rect height="10" width="10" x="0.0" y="76.1145"/>
    <rect height="10" width="10" x="8.646" y="-0.4375"/>
    <rect height="10" width="10" x="6.4635" y="7.3486"/>
    <rect height="10" width="10" x="11.8398" y="25.2703"/>
    <rect height="10" width="10" x="5.6375" y="31.4883"/>
    <rect height="10" width="10" x="9.4282" y="40.503"/>
    <rect height="10" width="10" x="15.2737" y="34.5216"/>
    <rect height="10" width="10" x="5.5402" y="63.2383"/>
    <rect height="10" width="10" x="12.2872" y="89.246"/>
    <rect height="10" width="10" x="14.254" y="68.8771"/>
    <rect height="10" width="10" x="5.334" y="78.6339"/>
    <rect height="10" width="10" x="18.1524" y="-0.3663"/>
    <rect height="10" width="10" x="21.2552" y="5.9243"/>
    <rect height="10" width="10" x="15.7514" y="28.3069"/>
    <rect height="10" width="10" x="23.6824" y="39.6871"/>
    <rect height="10" width="10" x="22.3402" y="49.5799"/>
    <rect height="10" width="10" x="30.5303" y="39.32"/>
    <rect height="10" width="10" x="25.267" y="37.827"/>
    <rect height="10" width="10" x="14.7497" y="65.2334"/>
    <rect height="10" width="10" x="21.7908" y="71.9808"/>
    <rect height="10" width="10" x="25.836" y="53.2957"/>
    <rect height="10" width="10" x="35.5597" y="-1.3802"/>
    <rect height="10" width="10" x="20.3185" y="10.9618"/>
    <rect height="10" width="10" x="14.6419" y="12.9727"/>
    <rect height="10" width="10" x="15.6244" y="25.3596"/>
    <rect height="10" width="10" x="26.5791" y="33.0167"/>
    <rect height="10" width="10" x="22.261" y="49.3104"/>
    <rect height="10" width="10" x="41.6479" y="46.2191"/>
    <rect height="10" width="10" x="46.3418" y="64.7835"/>
    <rect height="10" width="10" x="21.172" y="43.7186"/>
    <rect height="10" width="10" x="44.608" y="122.535"/>
    <rect height="10" width="10" x="33.9972" y="1.5609"/>
    <rect height="10" width="10" x="26.2906" y="14.031"/>
    <rect height="10" width="10" x="39.4439" y="13.6948"/>
    <rect height="10" width="10" x="51.2534" y="43.1003"/>
    <rect height="10" width="10" x="24.4978" y="50.175"/>
    <rect height="10" width="10" x="58.1636" y="52.9726"/>
    <rect height="10" width="10" x="26.9106" y="82.2497"/>
    <rect height="10" width="10" x="57.9076" y="99.6429"/>
    <rect height="10" width="10" x="47.3766" y="61.6341"/>
    <rect height="10" width="10" x="27.474" y="111.9355"/>
    <rect height="10" width="10" x="39.7587" y="-1.4457"/>
    <rect height="10" width="10" x="39.0244" y="14.1687"/>
    <rect height="10" width="10" x="38.0154" y="24.01"/>
    <rect height="10" width="10" x="47.8559" y="25.2605"/>
    <rect height="10" width="10" x="43.0563" y="50.8144"/>
    <rect height="10" width="10" x="76.2671" y="59.3418"/>
    <rect height="10" width="10" x="47.0687" y="71.2505"/>
    <rect height="10" width="10" x="51.9031" y="56.0223"/>
    <rect height="10" width="10" x="31.513" y="43.5701"/>
    <rect height="10" width="10" x="26.044" y="97.4288"/>
    <rect height="10" width="10" x="69.9462" y="-1.3497"/>
    <rect height="10" width="10" x="29.3646" y="16.1089"/>
    <rect height="10" width="10" x="31.601" y="18.8666"/>
    <rect height="10" width="10" x="68.7911" y="41.7254"/>
    <rect height="10" width="10" x="27.4056" y="46.2499"/>
    <rect height="10" width="10" x="82.083" y="31.9302"/>
    <rect height="10" width="10" x="33.926" y="48.2127"/>
    <rect height="10" width="10" x="48.2843" y="107.8677"/>
    <rect height="10" width="10" x="66.5066" y="47.7013"/>
    <rect height="10" width="10" x="90.7316" y="42.5542"/>
    <rect height="10" width="10" x="43.0539" y="-3.2367"/>
    <rect height="10" width="10" x="35.8136" y="16.3434"/>
    <rect height="10" width="10" x="104.6513" y="12.1047"/>
    <rect height="10" width="10" x="74.0572" y="24.7267"/>
    <rect height="10" width="10" x="57.0427" y="38.6233"/>
    <rect height="10" width="10" x="84.817" y="22.8561"/>
    <rect height="10" width="10" x="100.0297" y="63.5697"/>
    <rect height="10" width="10" x="75.8726" y="82.9256"/>
    <rect height="10" width="10" x="92.2189" y="54.3432"/>
    <rect height="10" width="10" x="56.3912" y="106.2005"/>
    <rect height="10" width="10" x="112.5301" y="-0.5587"/>
    <rect height="10" width="10" x="54.0566" y="1.8665"/>
    <rect height="10" width="10" x="42.3203" y="8.2841"/>
    <rect height="10" width="10" x="100.9364" y="11.8048"/>
    <rect height="10" width="10" x="78.4857" y="60.6353"/>
    <rect height="10" width="10" x="89.7862" y="39.4477"/>
    <rect height="10" width="10" x="110.3897" y="58.4238"/>
    <rect height="10" width="10" x="61.5248" y="81.8906"/>
    <rect height="10" width="10" x="42.1963" y="40.9213"/>
    <rect height="10" width="10" x="40.1831" y="72.7535"/>
    <rect height="10" width="10" x="46.044" y="0.5147"/>
    <rect height="10" width="10" x="89.0393" y="2.0709"/>
    <rect height="10" width="10" x="112.6852" y="17.74"/>
    <rect height="10" width="10" x="80.6582" y="40.8913"/>
    <rect height="10" width="10" x="46.3518" y="61.3607"/>
    <rect height="10" width="10" x="50.8173" y="37.7817"/>
    <rect height="10" width="10" x="116.3454" y="73.5262"/>
    <rect height="10" width="10" x="94.9493" y="70.1978"/>
    <rect height="10" width="10" x="127.2396" y="82.4664"/>
    <rect height="10" width="10" x="110.4089" y="53.2947"/>
  </svg>
  <svg baseProfile="tiny" fill="rgb(185,114,14)" height="400" stroke="black" stroke-opacity="1.0" stroke-width="0.5" version="1.2" width="400">
    <defs/>
    <rect height="10" width="15" x="0.0" y="0.0"/>
    <rect height="10" width="15" x="0.0" y="5.3635"/>
    <rect height="10" width="15" x="0.0" y="26.7768"/>
    <rect height="10" width="15" x="0.0" y="39.7402"/>
    <rect height="10" width="15" x="0.0" y="41.8047"/>
    <rect height="10" width="15" x="0.0" y="28.5867"/>
    <rect height="10" width="15" x="0.0" y="44.5418"/>
    <rect height="10" width="15" x="0.0" y="51.8617"/>
    <rect height="10" width="15" x="0.0" y="66.7429"/>
    <rect height="10" width="15" x="0.0" y="93.254"/>
    <rect height="10" width="15" x="3.9944" y="0.0084"/>
    <rect height="10" width="15" x="2.6453" y="8.3872"/>
    <rect height="10" width="15" x="5.2916" y="23.346"/>
    <rect height="10" width="15" x="8.7182" y="36.0391"/>
    <rect height="10" width="15" x="3.5952" y="20.2569"/>
    <rect height="10" width="15" x="10.7535" y="57.7426"/>
    <rect height="10" width="15" x="11.1601" y="58.7853"/>
    <rect height="10" width="15" x="6.9219" y="97.4847"/>
    <rect height="10" width="15" x="11.4592" y="66.6017"/>
    <rect height="10" width="15" x="14.5708" y="68.3949"/>
    <rect height="10" width="15" x="11.5374" y="-0.2337"/>
    <rect height="10" width="15" x="16.7356" y="10.1759"/>
    <rect height="10" width="15" x="8.0949" y="9.1767"/>
    <rect height="10" width="15" x="22.4311" y="29.3438"/>
    <rect height="10" width="15" x="5.5201" y="20.3527"/>
    <rect height="10" width="15" x="34.4112" y="49.0593"/>
    <rect height="10" width="15" x="23.0194" y="59.8234"/>
    <rect height="10" width="15" x="20.9265" y="59.8278"/>
    <rect height="10" width="15" x="11.4632" y="117.1568"/>
    <rect height="10" width="15" x="26.7465" y="86.2503"/>
    <rect height="10" width="15" x="8.2822" y="-0.6819"/>
    <rect height="10" width="15" x="27.6394" y="12.8507"/>
    <rect height="10" width="15" x="53.5567" y="14.9473"/>
    <rect height="10" width="15" x="20.3229" y="28.4501"/>
    <rect height="10" width="15" x="31.0861" y="44.5563"/>
    <rect height="10" width="15" x="16.3986" y="40.2954"/>
    <rect height="10" width="15" x="37.7008" y="67.395"/>
    <rect height="10" width="15" x="15.0899" y="73.6904"/>
    <rect height="10" width="15" x="29.6201" y="80.4726"/>
    <rect height="10" width="15" x="53.694" y="104.9803"/>
    <rect height="10" width="15" x="26.9672" y="-0.7881"/>
    <rect height="10" width="15" x="20.0728" y="15.3794"/>
    <rect height="10" width="15" x="10.0611" y="11.3714"/>
    <rect height="10" width="15" x="53.7895" y="39.6641"/>
    <rect height="10" width="15" x="15.0192" y="22.2345"/>
    <rect height="10" width="15" x="24.1945" y="33.669"/>
    <rect height="10" width="15" x="31.6635" y="44.8073"/>
    <rect height="10" width="15" x="67.4064" y="106.305"/>
    <rect height="10" width="15" x="29.7501" y="65.502"/>
    <rect height="10" width="15" x="53.6462" y="118.0825"/>
    <rect height="10" width="15" x="12.8035" y="1.6865"/>
    <rect height="10" width="15" x="83.0853" y="9.9452"/>
    <rect height="10" width="15" x="58.1757" y="19.7661"/>
    <rect height="10" width="15" x="11.32" y="31.6785"/>
    <rect height="10" width="15" x="24.6384" y="37.3133"/>
    <rect height="10" width="15" x="22.6658" y="34.768"/>
    <rect height="10" width="15" x="49.28" y="38.5023"/>
    <rect height="10" width="15" x="23.246" y="38.5757"/>
    <rect height="10" width="15" x="47.3431" y="55.8806"/>
    <rect height="10" width="15" x="65.4476" y="128.8339"/>
    <rect height="10" width="15" x="20.9744" y="-0.4423"/>
    <rect height="10" width="15" x="87.6095" y="5.1866"/>
    <rect height="10" width="15" x="65.3983" y="8.415"/>
    <rect height="10" width="15" x="54.93" y="32.5279"/>
    <rect height="10" width="15" x="64.7027" y="25.2588"/>
    <rect height="10" width="15" x="107.251" y="54.7218"/>
    <rect height="10" width="15" x="86.1237" y="58.4713"/>
    <rect height="10" width="15" x="47.055" y="42.8988"/>
    <rect height="10" width="15" x="22.0746" y="110.8673"/>
    <rect height="10" width="15" x="95.7743" y="106.9412"/>
    <rect height="10" width="15" x="119.377" y="0.1604"/>
    <rect height="10" width="15" x="55.8814" y="2.965"/>
    <rect height="10" width="15" x="115.907" y="11.9672"/>
    <rect height="10" width="15" x="61.1579" y="48.3014"/>
    <rect height="10" width="15" x="88.2545" y="23.6184"/>
    <rect height="10" width="15" x="117.9422" y="41.8007"/>
    <rect height="10" width="15" x="17.6418" y="56.5801"/>
    <rect height="10" width="15" x="18.3975" y="63.4428"/>
    <rect height="10" width="15" x="75.779" y="120.0054"/>
    <rect height="10" width="15" x="58.456" y="91.2854"/>
    <rect height="10" width="15" x="89.5943" y="-2.19"/>
    <rect height="10" width="15" x="72.5833" y="8.1763"/>
    <rect height="10" width="15" x="141.3541" y="7.7833"/>
    <rect height="10" width="15" x="52.9043" y="42.5035"/>
    <rect height="10" width="15" x="21.8696" y="23.2336"/>
    <rect height="10" width="15" x="141.4864" y="47.9324"/>
    <rect height="10" width="15" x="69.5388" y="87.6541"/>
    <rect height="10" width="15" x="135.2356" y="49.6028"/>
    <rect height="10" width="15" x="112.319" y="41.8079"/>
    <rect height="10" width="15" x="35.5658" y="103.5185"/>
    <rect height="10" width="15" x="66.8991" y="-0.8716"/>
    <rect height="10" width="15" x="122.7931" y="19.4174"/>
    <rect height="10" width="15" x="75.2147" y="15.8629"/>
    <rect height="10" width="15" x="68.8795" y="17.2069"/>
    <rect height="10" width="15" x="66.8743" y="45.3174"/>
    <rect height="10" width="15" x="64.1917" y="46.3554"/>
    <rect height="10" width="15" x="39.2379" y="64.0425"/>
    <rect height="10" width="15" x="121.0946" y="69.4607"/>
    <rect height="10" width="15" x="148.9865" y="56.5371"/>
    <rect height="10" width="15" x="157.6011" y="87.4175"/>
    <rect height="10" width="15" x="58.4103" y="-0.3412"/>
    <rect height="10" width="15" x="133.6789" y="10.6806"/>
    <rect height="10" width="15" x="132.3007" y="9.3111"/>
    <rect height="10" width="15" x="41.1459" y="34.8409"/>
    <rect height="10" width="15" x="117.06" y="44.5976"/>
    <rect height="10" width="15" x="159.9343" y="61.3713"/>
    <rect height="10" width="15" x="60.8231" y="93.5686"/>
    <rect height="10" width="15" x="164.2961" y="37.4239"/>
    <rect height="10" width="15" x="25.5571" y="45.3031"/>
    <rect height="10" width="15" x="55.8026" y="121.5255"/>
    <rect height="10" width="15" x="108.134" y="2.7364"/>
    <rect height="10" width="15" x="156.5478" y="4.0424"/>
    <rect height="10" width="15" x="172.5366" y="33.9677"/>
    <rect height="10" width="15" x="44.9216" y="33.7961"/>
    <rect height="10" width="15" x="68.8072" y="50.4486"/>
    <rect height="10" width="15" x="138.982" y="38.4279"/>
    <rect height="10" width="15" x="140.091" y="45.1332"/>
    <rect height="10" width="15" x="100.6638" y="58.4505"/>
    <rect height="10" width="15" x="107.5754" y="52.5266"/>
    <rect height="10" width="15" x="167.7333" y="92.8241"/>
    <rect height="10" width="15" x="29.9027" y="2.3547"/>
    <rect height="10" width="15" x="207.0755" y="11.5696"/>
    <rect height="10" width="15" x="193.8379" y="30.7325"/>
    <rect height="10" width="15" x="119.4493" y="24.3414"/>
    <rect height="10" width="15" x="167.5663" y="33.5408"/>
    <rect height="10" width="15" x="169.9071" y="36.2019"/>
    <rect height="10" width="15" x="156.6153" y="75.5442"/>
    <rect height="10" width="15" x="119.9165" y="66.7383"/>
    <rect height="10" width="15" x="47.3844" y="71.8777"/>
    <rect height="10" width="15" x="113.747" y="107.9752"/>
    <rect height="10" width="15" x="59.9707" y="4.5992"/>
    <rect height="10" width="15" x="54.474" y="-0.2654"/>
    <rect height="10" width="15" x="102.8242" y="26.4012"/>
    <rect height="10" width="15" x="158.3968" y="43.1536"/>
    <rect height="10" width="15" x="69.4252" y="63.4924"/>
    <rect height="10" width="15" x="169.3267" y="27.5365"/>
    <rect height="10" width="15" x="150.8187" y="26.9546"/>
    <rect height="10" width="15" x="55.8486" y="61.0504"/>
    <rect height="10" width="15" x="106.2558" y="98.7811"/>
    <rect height="10" width="15" x="201.4156" y="83.0105"/>
    <rect height="10" width="15" x="203.8233" y="4.7467"/>
    <rect height="10" width="15" x="238.8914" y="7.1309"/>
    <rect height="10" width="15" x="165.572" y="30.4754"/>
    <rect height="10" width="15" x="42.0752" y="12.6762"/>
    <rect height="10" width="15" x="100.1804" y="50.8668"/>
    <rect height="10" width="15" x="136.6768" y="55.2694"/>
    <rect height="10" width="15" x="182.9611" y="40.3189"/>
    <rect height="10" width="15" x="33.5534" y="41.5535"/>
    <rect height="10" width="15" x="158.6866" y="63.3684"/>
    <rect height="10" width="15" x="235.1324" y="88.2505"/>
  </svg>
  <svg baseProfile="tiny" fill="rgb(114,185,14)" height="400" stroke="black" stroke-opacity="1.0" stroke-width="0.5" version="1.2" width="400">
    <defs/>
    <rect height="10" width="15" x="400.0" y="400.0"/>
    <rect height="10" width="15" x="400.0" y="386.0331"/>
    <rect height="10" width="15" x="400.0" y="385.9173"/>
    <rect height="10" width="15" x="400.0" y="359.0031"/>
    <rect height="10" width="15" x="400.0" y="354.814"/>
    <rect height="10" width="15" x="400.0" y="373.0265"/>
    <rect height="10" width="15" x="400.0" y="340.6314"/>
    <rect height="10" width="15" x="400.0" y="364.4688"/>
    <rect height="10" width="15" x="400.0" y="294.6132"/>
    <rect height="10" width="15" x="400.0" y="280.8327"/>
    <rect height="10" width="15" x="396.5894" y="399.8064"/>
    <rect height="10" width="15" x="397.6318" y="386.1715"/>
    <rect height="10" width="15" x="387.6748" y="370.6213"/>
    <rect height="10" width="15" x="395.5975" y="368.2968"/>
    <rect height="10" width="15" x="396.8607" y="358.0051"/>
    <rect height="10" width="15" x="386.2079" y="364.9521"/>
    <rect height="10" width="15" x="393.2968" y="316.9372"/>
    <rect height="10" width="15" x="393.5783" y="337.9999"/>
    <rect height="10" width="15" x="384.7397" y="283.4262"/>
    <rect height="10" width="15" x="384.6383" y="303.8203"/>
    <rect height="10" width="15" x="386.5493" y="400.2916"/>
    <rect height="10" width="15" x="375.671" y="388.6704"/>
    <rect height="10" width="15" x="383.816" y="386.8639"/>
    <rect height="10" width="15" x="392.9581" y="371.1616"/>
    <rect height="10" width="15" x="395.0636" y="349.6877"/>
    <rect height="10" width="15" x="392.5259" y="345.9716"/>
    <rect height="10" width="15" x="371.8946" y="311.2185"/>
    <rect height="10" width="15" x="384.258" y="322.0769"/>
    <rect height="10" width="15" x="376.2381" y="301.4738"/>
    <rect height="10" width="15" x="371.083" y="339.6907"/>
    <rect height="10" width="15" x="385.4848" y="399.7043"/>
    <rect height="10" width="15" x="386.5038" y="392.7566"/>
    <rect height="10" width="15" x="346.0042" y="375.2233"/>
    <rect height="10" width="15" x="356.993" y="366.6025"/>
    <rect height="10" width="15" x="383.1389" y="358.006"/>
    <rect height="10" width="15" x="385.4994" y="359.8163"/>
    <rect height="10" width="15" x="350.7335" y="352.3208"/>
    <rect height="10" width="15" x="371.1591" y="300.9581"/>
    <rect height="10" width="15" x="375.795" y="297.4604"/>
    <rect height="10" width="15" x="383.0534" y="332.6679"/>
    <rect height="10" width="15" x="354.0108" y="400.6925"/>
    <rect height="10" width="15" x="352.2579" y="385.9745"/>
    <rect height="10" width="15" x="385.0659" y="369.7443"/>
    <rect height="10" width="15" x="382.0486" y="376.7298"/>
    <rect height="10" width="15" x="355.0445" y="353.1793"/>
    <rect height="10" width="15" x="338.0586" y="347.6237"/>
    <rect height="10" width="15" x="359.4759" y="326.5239"/>
    <rect height="10" width="15" x="379.1746" y="300.0114"/>
    <rect height="10" width="15" x="388.7837" y="301.4849"/>
    <rect height="10" width="15" x="373.3682" y="272.3726"/>
    <rect height="10" width="15" x="367.5279" y="399.1363"/>
    <rect height="10" width="15" x="310.1684" y="384.6707"/>
    <rect height="10" width="15" x="387.1508" y="376.584"/>
    <rect height="10" width="15" x="379.276" y="359.9255"/>
    <rect height="10" width="15" x="313.0386" y="343.9172"/>
    <rect height="10" width="15" x="381.182" y="373.4525"/>
    <rect height="10" width="15" x="362.5377" y="325.071"/>
    <rect height="10" width="15" x="388.5526" y="346.9517"/>
    <rect height="10" width="15" x="313.3239" y="357.6378"/>
    <rect height="10" width="15" x="368.655" y="328.2562"/>
    <rect height="10" width="15" x="304.0047" y="397.4439"/>
    <rect height="10" width="15" x="312.2074" y="392.9926"/>
    <rect height="10" width="15" x="328.4992" y="380.4329"/>
    <rect height="10" width="15" x="298.9496" y="367.0504"/>
    <rect height="10" width="15" x="368.0912" y="350.3846"/>
    <rect height="10" width="15" x="377.9512" y="375.8118"/>
    <rect height="10" width="15" x="318.9783" y="352.7198"/>
    <rect height="10" width="15" x="297.952" y="331.489"/>
    <rect height="10" width="15" x="369.7397" y="343.2557"/>
    <rect height="10" width="15" x="345.2054" y="294.346"/>
    <rect height="10" width="15" x="324.0035" y="401.7539"/>
    <rect height="10" width="15" x="367.9636" y="398.1425"/>
    <rect height="10" width="15" x="355.8318" y="378.177"/>
    <rect height="10" width="15" x="351.5795" y="377.7906"/>
    <rect height="10" width="15" x="342.6506" y="378.0748"/>
    <rect height="10" width="15" x="286.6577" y="341.2084"/>
    <rect height="10" width="15" x="378.2552" y="331.6937"/>
    <rect height="10" width="15" x="303.3858" y="339.075"/>
    <rect height="10" width="15" x="365.2647" y="304.2522"/>
    <rect height="10" width="15" x="383.0074" y="264.2035"/>
    <rect height="10" width="15" x="342.5827" y="400.622"/>
    <rect height="10" width="15" x="373.3174" y="388.6484"/>
    <rect height="10" width="15" x="315.158" y="385.3131"/>
    <rect height="10" width="15" x="297.9853" y="380.2182"/>
    <rect height="10" width="15" x="339.8279" y="348.4299"/>
    <rect height="10" width="15" x="289.3994" y="359.4126"/>
    <rect height="10" width="15" x="280.6306" y="361.2623"/>
    <rect height="10" width="15" x="370.2298" y="292.5779"/>
    <rect height="10" width="15" x="332.5487" y="290.4801"/>
    <rect height="10" width="15" x="366.9449" y="346.1492"/>
    <rect height="10" width="15" x="308.4683" y="397.7749"/>
    <rect height="10" width="15" x="289.9842" y="389.9437"/>
    <rect height="10" width="15" x="326.7374" y="384.7483"/>
    <rect height="10" width="15" x="375.8929" y="370.568"/>
    <rect height="10" width="15" x="274.3177" y="354.8136"/>
    <rect height="10" width="15" x="305.8365" y="338.4941"/>
    <rect height="10" width="15" x="312.0651" y="332.4417"/>
    <rect height="10" width="15" x="310.8609" y="360.3406"/>
    <rect height="10" width="15" x="291.4462" y="301.3307"/>
    <rect height="10" width="15" x="350.5503" y="286.6467"/>
    <rect height="10" width="15" x="275.8231" y="404.0148"/>
    <rect height="10" width="15" x="303.3011" y="395.936"/>
    <rect height="10" width="15" x="337.1036" y="373.9544"/>
    <rect height="10" width="15" x="234.1388" y="356.3367"/>
    <rect height="10" width="15" x="262.4624" y="359.0226"/>
    <rect height="10" width="15" x="292.0153" y="329.5622"/>
    <rect height="10" width="15" x="286.0431" y="344.5838"/>
    <rect height="10" width="15" x="247.4178" y="356.1383"/>
    <rect height="10" width="15" x="260.3435" y="285.609"/>
    <rect height="10" width="15" x="314.0945" y="303.2873"/>
    <rect height="10" width="15" x="306.3136" y="399.279"/>
    <rect height="10" width="15" x="340.7647" y="386.6646"/>
    <rect height="10" width="15" x="283.0674" y="375.9671"/>
    <rect height="10" width="15" x="227.5261" y="376.2988"/>
    <rect height="10" width="15" x="247.6648" y="376.1903"/>
    <rect height="10" width="15" x="208.07" y="327.3378"/>
    <rect height="10" width="15" x="287.613" y="340.6213"/>
    <rect height="10" width="15" x="311.0093" y="325.3293"/>
    <rect height="10" width="15" x="350.1868" y="355.7117"/>
    <rect height="10" width="15" x="232.9932" y="262.7903"/>
    <rect height="10" width="15" x="260.7404" y="403.084"/>
    <rect height="10" width="15" x="268.7499" y="381.6667"/>
    <rect height="10" width="15" x="235.9001" y="385.4895"/>
    <rect height="10" width="15" x="333.5561" y="362.4935"/>
    <rect height="10" width="15" x="275.4775" y="373.4822"/>
    <rect height="10" width="15" x="221.9156" y="371.7417"/>
    <rect height="10" width="15" x="364.7629" y="342.6174"/>
    <rect height="10" width="15" x="201.9555" y="362.5475"/>
    <rect height="10" width="15" x="236.6242" y="329.5703"/>
    <rect height="10" width="15" x="352.751" y="347.5168"/>
    <rect height="10" width="15" x="369.2792" y="400.2755"/>
    <rect height="10" width="15" x="193.8586" y="391.3498"/>
    <rect height="10" width="15" x="280.7878" y="379.6405"/>
    <rect height="10" width="15" x="319.7601" y="359.9963"/>
    <rect height="10" width="15" x="316.8982" y="368.1359"/>
    <rect height="10" width="15" x="313.8101" y="361.6305"/>
    <rect height="10" width="15" x="287.2408" y="350.2515"/>
    <rect height="10" width="15" x="171.6671" y="289.8543"/>
    <rect height="10" width="15" x="301.084" y="321.8422"/>
    <rect height="10" width="15" x="304.9956" y="268.467"/>
    <rect height="10" width="15" x="321.9251" y="405.007"/>
    <rect height="10" width="15" x="347.7195" y="401.6128"/>
    <rect height="10" width="15" x="194.2296" y="396.4609"/>
    <rect height="10" width="15" x="361.5641" y="390.8184"/>
    <rect height="10" width="15" x="233.3648" y="346.562"/>
    <rect height="10" width="15" x="359.1269" y="374.0875"/>
    <rect height="10" width="15" x="343.4871" y="374.2759"/>
    <rect height="10" width="15" x="359.6838" y="367.5669"/>
    <rect height="10" width="15" x="319.6671" y="293.8727"/>
    <rect height="10" width="15" x="183.6109" y="282.3159"/>
    <text fill="#290" font-family="Arial" font-size="30px" font-weight="bold" stroke="none" x="70" y="325">complex origins</text>
  </svg>
</svg>
