<?xml version='1.0' encoding='ASCII' standalone='yes'?>
<svg xmlns="http://www.w3.org/2000/svg" xmlns:ev="http://www.w3.org/2001/xml-events" xmlns:xlink="http://www.w3.org/1999/xlink" baseProfile="tiny" fill="rgb(135,125,24)" height="400" stroke="black" stroke-opacity="1.0" stroke-width="0.5" version="1.2" width="400">
  <defs/>
  <rect height="10" width="10" x="0.0" y="0.0"/>
  <rect height="10" width="10" x="0.0" y="7.8448"/>
  <rect height="10" width="10" x="0.0" y="25.7022"/>
  <rect height="10" width="10" x="0.0" y="38.7186"/>
  <rect height="10" width="10" x="0.0" y="51.4216"/>
  <rect height="10" width="10" x="0.0" y="61.8013"/>
  <rect height="10" width="10" x="0.0" y="58.3205"/>
  <rect height="10" width="10" x="0.0" y="38.2459"/>
  <rect height="10" width="10" x="0.0" y="73.8783"/>
  <rect height="10" width="10" x="0.0" y="105.6501"/>
  <rect height="10" width="10" x="9.0057" y="-0.0685"/>
  <rect height="10" width="10" x="8.4575" y="6.6829"/>
  <rect height="10" width="10" x="14.1926" y="25.4065"/>
  <rect height="10" width="10" x="6.2994" y="34.5269"/>
  <rect height="10" width="10" x="8.7387" y="58.04"/>
  <rect height="10" width="10" x="12.4888" y="51.6554"/>
  <rect height="10" width="10" x="7.6251" y="45.382"/>
  <rect height="10" width="10" x="5.4089" y="85.9409"/>
  <rect height="10" width="10" x="14.6704" y="79.0689"/>
  <rect height="10" width="10" x="10.3124" y="103.2169"/>
  <rect height="10" width="10" x="13.2556" y="0.7413"/>
  <rect height="10" width="10" x="27.5809" y="13.2582"/>
  <rect height="10" width="10" x="14.7705" y="14.6405"/>
  <rect height="10" width="10" x="13.7688" y="30.7702"/>
  <rect height="10" width="10" x="23.7189" y="60.5924"/>
  <rect height="10" width="10" x="30.2202" y="58.1364"/>
  <rect height="10" width="10" x="28.9317" y="49.0543"/>
  <rect height="10" width="10" x="26.2088" y="80.6499"/>
  <rect height="10" width="10" x="15.9171" y="92.1523"/>
  <rect height="10" width="10" x="16.2462" y="71.5403"/>
  <rect height="10" width="10" x="32.4957" y="-0.1911"/>
  <rect height="10" width="10" x="17.6858" y="7.4448"/>
  <rect height="10" width="10" x="24.5432" y="22.0956"/>
  <rect height="10" width="10" x="25.0143" y="41.6578"/>
  <rect height="10" width="10" x="30.9163" y="35.784"/>
  <rect height="10" width="10" x="20.611" y="39.4743"/>
  <rect height="10" width="10" x="20.9204" y="66.47"/>
  <rect height="10" width="10" x="27.0726" y="91.8016"/>
  <rect height="10" width="10" x="34.6334" y="41.9012"/>
  <rect height="10" width="10" x="30.3016" y="109.0611"/>
  <rect height="10" width="10" x="47.824" y="1.0537"/>
  <rect height="10" width="10" x="52.463" y="16.8138"/>
  <rect height="10" width="10" x="53.476" y="26.8663"/>
  <rect height="10" width="10" x="44.5887" y="39.211"/>
  <rect height="10" width="10" x="54.4858" y="47.4275"/>
  <rect height="10" width="10" x="58.3655" y="43.0893"/>
  <rect height="10" width="10" x="25.2089" y="35.5626"/>
  <rect height="10" width="10" x="47.1604" y="49.7887"/>
  <rect height="10" width="10" x="51.8113" y="56.0045"/>
  <rect height="10" width="10" x="56.0185" y="136.5853"/>
  <rect height="10" width="10" x="58.5037" y="1.7576"/>
  <rect height="10" width="10" x="54.8957" y="9.6477"/>
  <rect height="10" width="10" x="35.0257" y="16.2038"/>
  <rect height="10" width="10" x="49.7431" y="30.9764"/>
  <rect height="10" width="10" x="68.4921" y="45.7869"/>
  <rect height="10" width="10" x="76.776" y="54.82"/>
  <rect height="10" width="10" x="27.8025" y="90.4321"/>
  <rect height="10" width="10" x="38.3054" y="55.8492"/>
  <rect height="10" width="10" x="28.3753" y="75.4766"/>
  <rect height="10" width="10" x="40.8301" y="126.7379"/>
  <rect height="10" width="10" x="57.1532" y="-1.7614"/>
  <rect height="10" width="10" x="28.4829" y="11.3293"/>
  <rect height="10" width="10" x="30.8329" y="18.0478"/>
  <rect height="10" width="10" x="69.1561" y="44.3699"/>
  <rect height="10" width="10" x="58.4197" y="41.8758"/>
  <rect height="10" width="10" x="29.1505" y="39.5948"/>
  <rect height="10" width="10" x="91.7505" y="83.1633"/>
  <rect height="10" width="10" x="69.0131" y="33.0042"/>
  <rect height="10" width="10" x="72.5688" y="48.7601"/>
  <rect height="10" width="10" x="66.5483" y="60.3"/>
  <rect height="10" width="10" x="52.2304" y="-1.8515"/>
  <rect height="10" width="10" x="105.0442" y="2.3813"/>
  <rect height="10" width="10" x="107.6722" y="15.7436"/>
  <rect height="10" width="10" x="48.0648" y="46.5093"/>
  <rect height="10" width="10" x="59.3788" y="56.0354"/>
  <rect height="10" width="10" x="82.9701" y="67.563"/>
  <rect height="10" width="10" x="82.1848" y="65.0065"/>
  <rect height="10" width="10" x="75.8563" y="102.8059"/>
  <rect height="10" width="10" x="40.9474" y="94.4346"/>
  <rect height="10" width="10" x="107.7385" y="134.0804"/>
  <rect height="10" width="10" x="61.4749" y="0.4382"/>
  <rect height="10" width="10" x="106.8227" y="7.7715"/>
  <rect height="10" width="10" x="117.787" y="7.1683"/>
  <rect height="10" width="10" x="94.5522" y="18.3174"/>
  <rect height="10" width="10" x="70.8565" y="37.1531"/>
  <rect height="10" width="10" x="70.931" y="68.4293"/>
  <rect height="10" width="10" x="122.5294" y="67.4089"/>
  <rect height="10" width="10" x="55.1082" y="44.0387"/>
  <rect height="10" width="10" x="120.6806" y="63.2609"/>
  <rect height="10" width="10" x="121.3476" y="111.4698"/>
  <rect height="10" width="10" x="64.7021" y="3.8423"/>
  <rect height="10" width="10" x="126.5359" y="1.5245"/>
  <rect height="10" width="10" x="85.1191" y="32.5524"/>
  <rect height="10" width="10" x="43.4922" y="10.6969"/>
  <rect height="10" width="10" x="66.7698" y="25.2526"/>
  <rect height="10" width="10" x="137.0313" y="29.6173"/>
  <rect height="10" width="10" x="103.737" y="39.1502"/>
  <rect height="10" width="10" x="59.5714" y="107.029"/>
  <rect height="10" width="10" x="92.8051" y="90.6698"/>
  <rect height="10" width="10" x="123.7919" y="90.8429"/>
  <svg baseProfile="tiny" fill="rgb(135,125,24)" height="400" stroke="black" stroke-opacity="1.0" stroke-width="0.5" version="1.2" width="400">
    <defs/>
    <rect height="10" width="10" x="0.0" y="0.0"/>
    <rect height="10" width="10" x="0.0" y="8.0108"/>
    <rect height="10" width="10" x="0.0" y="22.1677"/>
    <rect height="10" width="10" x="0.0" y="35.734"/>
    <rect height="10" width="10" x="0.0" y="57.6141"/>
    <rect height="10" width="10" x="0.0" y="73.1466"/>
    <rect height="10" width="10" x="0.0" y="73.9652"/>
    <rect height="10" width="10" x="0.0" y="41.4553"/>
    <rect height="10" width="10" x="0.0" y="95.5713"/>
    <rect height="10" width="10" x="0.0" y="46.3833"/>
    <rect height="10" width="10" x="11.2668" y="0.4428"/>
    <rect height="10" width="10" x="6.3207" y="15.2563"/>
    <rect height="10" width="10" x="12.1382" y="24.1533"/>
    <rect height="10" width="10" x="13.6719" y="26.5272"/>
    <rect height="10" width="10" x="13.0484" y="59.4293"/>
    <rect height="10" width="10" x="8.3404" y="39.8475"/>
    <rect height="10" width="10" x="12.6527" y="76.3377"/>
    <rect height="10" width="10" x="14.7924" y="46.9743"/>
    <rect height="10" width="10" x="11.7601" y="75.522"/>
    <rect height="10" width="10" x="11.0061" y="132.6159"/>
    <rect height="10" width="10" x="15.9065" y="-0.1587"/>
    <rect height="10" width="10" x="19.4447" y="10.2509"/>
    <rect height="10" width="10" x="15.6146" y="29.1354"/>
    <rect height="10" width="10" x="20.9152" y="38.6902"/>
    <rect height="10" width="10" x="30.3867" y="48.4158"/>
    <rect height="10" width="10" x="15.4695" y="66.6492"/>
    <rect height="10" width="10" x="30.9432" y="63.2884"/>
    <rect height="10" width="10" x="29.7371" y="44.609"/>
    <rect height="10" width="10" x="16.2349" y="84.0682"/>
    <rect height="10" width="10" x="14.4342" y="118.1922"/>
    <rect height="10" width="10" x="19.54" y="1.0618"/>
    <rect height="10" width="10" x="38.321" y="8.8647"/>
    <rect height="10" width="10" x="23.2129" y="22.0513"/>
    <rect height="10" width="10" x="25.1604" y="37.842"/>
    <rect height="10" width="10" x="29.158" y="36.7779"/>
    <rect height="10" width="10" x="27.1905" y="74.2855"/>
    <rect height="10" width="10" x="14.9556" y="48.3609"/>
    <rect height="10" width="10" x="16.4629" y="48.9297"/>
    <rect height="10" width="10" x="18.0553" y="82.7874"/>
    <rect height="10" width="10" x="26.6541" y="128.2994"/>
    <rect height="10" width="10" x="42.9456" y="-1.509"/>
    <rect height="10" width="10" x="36.5062" y="3.7105"/>
    <rect height="10" width="10" x="47.1933" y="22.3019"/>
    <rect height="10" width="10" x="38.8661" y="43.6436"/>
    <rect height="10" width="10" x="26.738" y="58.3344"/>
    <rect height="10" width="10" x="37.2726" y="73.5355"/>
    <rect height="10" width="10" x="48.8516" y="85.7772"/>
    <rect height="10" width="10" x="41.0744" y="43.7252"/>
    <rect height="10" width="10" x="30.8834" y="43.1302"/>
    <rect height="10" width="10" x="25.6761" y="95.8949"/>
    <rect height="10" width="10" x="65.1716" y="-0.1197"/>
    <rect height="10" width="10" x="54.2749" y="2.8575"/>
    <rect height="10" width="10" x="41.6195" y="30.7047"/>
    <rect height="10" width="10" x="38.0658" y="44.5741"/>
    <rect height="10" width="10" x="33.8903" y="32.4785"/>
    <rect height="10" width="10" x="57.5989" y="53.9323"/>
    <rect height="10" width="10" x="54.4238" y="81.5183"/>
    <rect height="10" width="10" x="47.8556" y="86.4356"/>
    <rect height="10" width="10" x="45.6407" y="108.8533"/>
    <rect height="10" width="10" x="57.1971" y="109.768"/>
    <rect height="10" width="10" x="32.4281" y="2.6696"/>
    <rect height="10" width="10" x="61.2032" y="8.4792"/>
    <rect height="10" width="10" x="73.0786" y="10.6747"/>
    <rect height="10" width="10" x="65.1537" y="47.0236"/>
    <rect height="10" width="10" x="58.2535" y="21.3349"/>
    <rect height="10" width="10" x="57.0546" y="39.8931"/>
    <rect height="10" width="10" x="84.0754" y="38.2216"/>
    <rect height="10" width="10" x="43.1428" y="56.5895"/>
    <rect height="10" width="10" x="74.2139" y="55.5449"/>
    <rect height="10" width="10" x="51.4315" y="111.0141"/>
    <rect height="10" width="10" x="77.5038" y="-3.105"/>
    <rect height="10" width="10" x="49.5155" y="13.2963"/>
    <rect height="10" width="10" x="39.2604" y="7.9139"/>
    <rect height="10" width="10" x="50.5349" y="24.4355"/>
    <rect height="10" width="10" x="61.9612" y="59.5573"/>
    <rect height="10" width="10" x="35.026" y="28.5223"/>
    <rect height="10" width="10" x="39.0894" y="87.2536"/>
    <rect height="10" width="10" x="96.4864" y="52.8907"/>
    <rect height="10" width="10" x="104.2969" y="56.7662"/>
    <rect height="10" width="10" x="61.048" y="99.2898"/>
    <rect height="10" width="10" x="107.9078" y="1.3462"/>
    <rect height="10" width="10" x="104.4478" y="17.6459"/>
    <rect height="10" width="10" x="95.5951" y="22.4282"/>
    <rect height="10" width="10" x="122.1107" y="34.1478"/>
    <rect height="10" width="10" x="73.6295" y="45.6892"/>
    <rect height="10" width="10" x="63.6581" y="42.2429"/>
    <rect height="10" width="10" x="100.4395" y="33.1081"/>
    <rect height="10" width="10" x="110.3502" y="54.7866"/>
    <rect height="10" width="10" x="96.2748" y="114.7301"/>
    <rect height="10" width="10" x="42.3271" y="46.4225"/>
    <rect height="10" width="10" x="61.2061" y="-3.3521"/>
    <rect height="10" width="10" x="84.2749" y="10.6189"/>
    <rect height="10" width="10" x="63.1563" y="33.2669"/>
    <rect height="10" width="10" x="130.7228" y="22.3062"/>
    <rect height="10" width="10" x="57.0557" y="42.3224"/>
    <rect height="10" width="10" x="57.4821" y="71.5381"/>
    <rect height="10" width="10" x="111.9166" y="93.4278"/>
    <rect height="10" width="10" x="118.6716" y="59.2202"/>
    <rect height="10" width="10" x="119.0024" y="46.0668"/>
    <rect height="10" width="10" x="93.2537" y="97.6448"/>
  </svg>
  <svg baseProfile="tiny" fill="rgb(134,63,46)" height="400" stroke="black" stroke-opacity="1.0" stroke-width="0.5" version="1.2" width="400">
    <defs/>
    <rect height="10" width="15" x="0.0" y="0.0"/>
    <rect height="10" width="15" x="0.0" y="5.8793"/>
    <rect height="10" width="15" x="0.0" y="19.5451"/>
    <rect height="10" width="15" x="0.0" y="24.8475"/>
    <rect height="10" width="15" x="0.0" y="39.7749"/>
    <rect height="10" width="15" x="0.0" y="37.0212"/>
    <rect height="10" width="15" x="0.0" y="37.4063"/>
    <rect height="10" width="15" x="0.0" y="41.735"/>
    <rect height="10" width="15" x="0.0" y="55.1595"/>
    <rect height="10" width="15" x="0.0" y="122.6228"/>
    <rect height="10" width="15" x="4.4773" y="-0.1835"/>
    <rect height="10" width="15" x="3.1335" y="13.7863"/>
    <rect height="10" width="15" x="7.2504" y="29.1251"/>
    <rect height="10" width="15" x="16.5685" y="32.8177"/>
    <rect height="10" width="15" x="5.4243" y="45.0849"/>
    <rect height="10" width="15" x="11.5969" y="52.4965"/>
    <rect height="10" width="15" x="13.9423" y="41.5703"/>
    <rect height="10" width="15" x="4.3272" y="39.321"/>
    <rect height="10" width="15" x="12.773" y="111.3959"/>
    <rect height="10" width="15" x="2.0636" y="135.3318"/>
    <rect height="10" width="15" x="18.0865" y="-0.5955"/>
    <rect height="10" width="15" x="24.5951" y="5.0426"/>
    <rect height="10" width="15" x="6.8547" y="20.4756"/>
    <rect height="10" width="15" x="16.8413" y="45.242"/>
    <rect height="10" width="15" x="10.297" y="20.8577"/>
    <rect height="10" width="15" x="7.1927" y="48.6979"/>
    <rect height="10" width="15" x="11.3328" y="54.4808"/>
    <rect height="10" width="15" x="13.3931" y="89.0432"/>
    <rect height="10" width="15" x="17.4939" y="68.0666"/>
    <rect height="10" width="15" x="11.7607" y="127.826"/>
    <rect height="10" width="15" x="47.7361" y="1.2468"/>
    <rect height="10" width="15" x="42.1611" y="8.415"/>
    <rect height="10" width="15" x="15.0685" y="28.8503"/>
    <rect height="10" width="15" x="48.8138" y="22.212"/>
    <rect height="10" width="15" x="38.7923" y="59.6556"/>
    <rect height="10" width="15" x="30.2206" y="23.8217"/>
    <rect height="10" width="15" x="31.6976" y="42.0165"/>
    <rect height="10" width="15" x="11.6682" y="101.1334"/>
    <rect height="10" width="15" x="14.369" y="92.9824"/>
    <rect height="10" width="15" x="17.2202" y="118.4719"/>
    <rect height="10" width="15" x="49.8094" y="-0.9996"/>
    <rect height="10" width="15" x="70.6922" y="5.8567"/>
    <rect height="10" width="15" x="23.3743" y="29.0376"/>
    <rect height="10" width="15" x="53.0864" y="34.5749"/>
    <rect height="10" width="15" x="55.216" y="33.3835"/>
    <rect height="10" width="15" x="50.4547" y="28.9547"/>
    <rect height="10" width="15" x="64.5738" y="28.0057"/>
    <rect height="10" width="15" x="39.1312" y="68.1403"/>
    <rect height="10" width="15" x="64.8204" y="64.9897"/>
    <rect height="10" width="15" x="29.6113" y="96.5577"/>
    <rect height="10" width="15" x="76.9729" y="-2.203"/>
    <rect height="10" width="15" x="15.1748" y="5.08"/>
    <rect height="10" width="15" x="37.1034" y="27.1485"/>
    <rect height="10" width="15" x="77.3479" y="22.7662"/>
    <rect height="10" width="15" x="24.8565" y="42.3618"/>
    <rect height="10" width="15" x="78.388" y="69.9457"/>
    <rect height="10" width="15" x="76.2273" y="48.2391"/>
    <rect height="10" width="15" x="84.5779" y="65.5962"/>
    <rect height="10" width="15" x="49.1084" y="94.261"/>
    <rect height="10" width="15" x="47.8659" y="115.092"/>
    <rect height="10" width="15" x="84.5782" y="0.6889"/>
    <rect height="10" width="15" x="80.6907" y="10.5333"/>
    <rect height="10" width="15" x="80.8216" y="21.046"/>
    <rect height="10" width="15" x="13.7078" y="19.5966"/>
    <rect height="10" width="15" x="100.6104" y="50.8782"/>
    <rect height="10" width="15" x="81.0129" y="46.4637"/>
    <rect height="10" width="15" x="105.7158" y="91.8982"/>
    <rect height="10" width="15" x="53.3638" y="53.8141"/>
    <rect height="10" width="15" x="49.1997" y="109.2182"/>
    <rect height="10" width="15" x="28.6969" y="86.2482"/>
    <rect height="10" width="15" x="79.3027" y="-0.069"/>
    <rect height="10" width="15" x="110.015" y="10.8687"/>
    <rect height="10" width="15" x="32.5507" y="9.6147"/>
    <rect height="10" width="15" x="34.1682" y="13.7643"/>
    <rect height="10" width="15" x="23.1772" y="40.1245"/>
    <rect height="10" width="15" x="35.6458" y="61.8288"/>
    <rect height="10" width="15" x="88.3384" y="88.6731"/>
    <rect height="10" width="15" x="83.8573" y="97.8617"/>
    <rect height="10" width="15" x="73.92" y="99.8716"/>
    <rect height="10" width="15" x="48.7564" y="128.6061"/>
    <rect height="10" width="15" x="66.5405" y="-0.1718"/>
    <rect height="10" width="15" x="29.8161" y="13.0053"/>
    <rect height="10" width="15" x="24.1804" y="33.9611"/>
    <rect height="10" width="15" x="113.4669" y="44.2266"/>
    <rect height="10" width="15" x="78.1936" y="40.1324"/>
    <rect height="10" width="15" x="125.6573" y="75.5876"/>
    <rect height="10" width="15" x="67.7614" y="91.5212"/>
    <rect height="10" width="15" x="94.3019" y="94.8527"/>
    <rect height="10" width="15" x="128.0674" y="75.6728"/>
    <rect height="10" width="15" x="110.1125" y="110.0026"/>
    <rect height="10" width="15" x="56.7216" y="-2.045"/>
    <rect height="10" width="15" x="66.5722" y="4.4523"/>
    <rect height="10" width="15" x="83.4779" y="17.5363"/>
    <rect height="10" width="15" x="22.6592" y="14.8711"/>
    <rect height="10" width="15" x="19.5331" y="30.2929"/>
    <rect height="10" width="15" x="45.9657" y="44.4075"/>
    <rect height="10" width="15" x="121.6444" y="74.5807"/>
    <rect height="10" width="15" x="122.6136" y="58.837"/>
    <rect height="10" width="15" x="88.1764" y="53.932"/>
    <rect height="10" width="15" x="156.2037" y="126.457"/>
    <rect height="10" width="15" x="137.4108" y="2.2693"/>
    <rect height="10" width="15" x="143.6306" y="13.1753"/>
    <rect height="10" width="15" x="131.9729" y="34.7548"/>
    <rect height="10" width="15" x="158.9987" y="17.6967"/>
    <rect height="10" width="15" x="150.2401" y="58.7578"/>
    <rect height="10" width="15" x="179.2313" y="27.5194"/>
    <rect height="10" width="15" x="178.1425" y="27.9663"/>
    <rect height="10" width="15" x="144.6055" y="39.83"/>
    <rect height="10" width="15" x="61.762" y="73.2178"/>
    <rect height="10" width="15" x="52.1604" y="98.1576"/>
    <rect height="10" width="15" x="186.8297" y="4.9799"/>
    <rect height="10" width="15" x="161.072" y="18.6892"/>
    <rect height="10" width="15" x="181.9668" y="7.3509"/>
    <rect height="10" width="15" x="173.492" y="23.472"/>
    <rect height="10" width="15" x="119.8867" y="62.7299"/>
    <rect height="10" width="15" x="37.1016" y="78.6493"/>
    <rect height="10" width="15" x="64.8996" y="26.0738"/>
    <rect height="10" width="15" x="147.7169" y="97.6094"/>
    <rect height="10" width="15" x="138.2002" y="67.7623"/>
    <rect height="10" width="15" x="111.4727" y="63.4949"/>
    <rect height="10" width="15" x="175.8483" y="4.2921"/>
    <rect height="10" width="15" x="115.1644" y="15.0286"/>
    <rect height="10" width="15" x="138.3102" y="33.7925"/>
    <rect height="10" width="15" x="165.5887" y="26.0917"/>
    <rect height="10" width="15" x="89.7698" y="43.3489"/>
    <rect height="10" width="15" x="103.6594" y="27.8385"/>
    <rect height="10" width="15" x="123.8063" y="89.0896"/>
    <rect height="10" width="15" x="136.1145" y="71.2831"/>
    <rect height="10" width="15" x="112.7376" y="40.1486"/>
    <rect height="10" width="15" x="210.0062" y="54.109"/>
    <rect height="10" width="15" x="220.0001" y="2.3543"/>
    <rect height="10" width="15" x="112.9231" y="10.7086"/>
    <rect height="10" width="15" x="135.1019" y="11.7116"/>
    <rect height="10" width="15" x="156.3206" y="34.5327"/>
    <rect height="10" width="15" x="102.132" y="61.5425"/>
    <rect height="10" width="15" x="121.5686" y="66.1548"/>
    <rect height="10" width="15" x="64.7911" y="72.6944"/>
    <rect height="10" width="15" x="223.1456" y="97.2185"/>
    <rect height="10" width="15" x="140.5468" y="122.0996"/>
    <rect height="10" width="15" x="175.314" y="105.5426"/>
    <rect height="10" width="15" x="161.7797" y="5.6805"/>
    <rect height="10" width="15" x="67.3248" y="8.3385"/>
    <rect height="10" width="15" x="128.2" y="3.4671"/>
    <rect height="10" width="15" x="229.6964" y="17.3571"/>
    <rect height="10" width="15" x="30.0123" y="29.9442"/>
    <rect height="10" width="15" x="179.0379" y="54.2234"/>
    <rect height="10" width="15" x="45.8691" y="69.266"/>
    <rect height="10" width="15" x="132.7284" y="33.4919"/>
    <rect height="10" width="15" x="137.2642" y="53.0962"/>
    <rect height="10" width="15" x="193.3471" y="50.4932"/>
  </svg>
  <svg baseProfile="tiny" fill="rgb(63,134,46)" height="400" stroke="black" stroke-opacity="1.0" stroke-width="0.5" version="1.2" width="400">
    <defs/>
    <rect height="10" width="15" x="400.0" y="400.0"/>
    <rect height="10" width="15" x="400.0" y="387.5434"/>
    <rect height="10" width="15" x="400.0" y="387.4036"/>
    <rect height="10" width="15" x="400.0" y="377.0628"/>
    <rect height="10" width="15" x="400.0" y="377.7224"/>
    <rect height="10" width="15" x="400.0" y="350.4968"/>
    <rect height="10" width="15" x="400.0" y="365.5341"/>
    <rect height="10" width="15" x="400.0" y="354.5912"/>
    <rect height="10" width="15" x="400.0" y="319.8436"/>
    <rect height="10" width="15" x="400.0" y="302.0792"/>
    <rect height="10" width="15" x="392.6469" y="400.1673"/>
    <rect height="10" width="15" x="385.5668" y="388.0357"/>
    <rect height="10" width="15" x="393.5368" y="385.4923"/>
    <rect height="10" width="15" x="394.6836" y="368.8019"/>
    <rect height="10" width="15" x="396.8896" y="345.0573"/>
    <rect height="10" width="15" x="387.818" y="336.0426"/>
    <rect height="10" width="15" x="386.8461" y="349.7837"/>
    <rect height="10" width="15" x="393.0853" y="364.56"/>
    <rect height="10" width="15" x="389.0722" y="294.8304"/>
    <rect height="10" width="15" x="397.8023" y="292.5033"/>
    <rect height="10" width="15" x="395.3634" y="399.0306"/>
    <rect height="10" width="15" x="374.8383" y="389.3883"/>
    <rect height="10" width="15" x="376.0988" y="379.1349"/>
    <rect height="10" width="15" x="375.5982" y="364.9556"/>
    <rect height="10" width="15" x="392.642" y="340.6989"/>
    <rect height="10" width="15" x="376.5972" y="363.5921"/>
    <rect height="10" width="15" x="378.3724" y="365.9409"/>
    <rect height="10" width="15" x="375.7031" y="338.3276"/>
    <rect height="10" width="15" x="379.5995" y="327.1021"/>
    <rect height="10" width="15" x="381.0858" y="332.8444"/>
    <rect height="10" width="15" x="386.1454" y="398.7557"/>
    <rect height="10" width="15" x="385.9054" y="383.8008"/>
    <rect height="10" width="15" x="385.2627" y="374.4969"/>
    <rect height="10" width="15" x="347.5175" y="365.2711"/>
    <rect height="10" width="15" x="360.4969" y="373.6938"/>
    <rect height="10" width="15" x="349.0156" y="339.9079"/>
    <rect height="10" width="15" x="364.5791" y="365.9878"/>
    <rect height="10" width="15" x="362.6313" y="342.7323"/>
    <rect height="10" width="15" x="383.5457" y="356.9022"/>
    <rect height="10" width="15" x="391.9678" y="283.8804"/>
    <rect height="10" width="15" x="342.1601" y="398.7312"/>
    <rect height="10" width="15" x="341.7539" y="384.9432"/>
    <rect height="10" width="15" x="381.3077" y="387.6072"/>
    <rect height="10" width="15" x="332.964" y="372.8096"/>
    <rect height="10" width="15" x="356.1127" y="360.522"/>
    <rect height="10" width="15" x="377.4266" y="351.6701"/>
    <rect height="10" width="15" x="357.6204" y="366.8401"/>
    <rect height="10" width="15" x="358.9134" y="296.2768"/>
    <rect height="10" width="15" x="356.4043" y="299.2432"/>
    <rect height="10" width="15" x="341.1338" y="335.4168"/>
    <rect height="10" width="15" x="351.7218" y="400.7164"/>
    <rect height="10" width="15" x="357.3445" y="389.9033"/>
    <rect height="10" width="15" x="378.5727" y="374.3336"/>
    <rect height="10" width="15" x="377.0418" y="364.9355"/>
    <rect height="10" width="15" x="325.2216" y="362.0216"/>
    <rect height="10" width="15" x="349.4541" y="375.7241"/>
    <rect height="10" width="15" x="385.146" y="363.5853"/>
    <rect height="10" width="15" x="380.6009" y="331.388"/>
    <rect height="10" width="15" x="346.2764" y="329.7685"/>
    <rect height="10" width="15" x="368.1675" y="326.1102"/>
    <rect height="10" width="15" x="346.2013" y="402.804"/>
    <rect height="10" width="15" x="344.2552" y="391.2068"/>
    <rect height="10" width="15" x="345.7604" y="381.1338"/>
    <rect height="10" width="15" x="341.6871" y="364.0241"/>
    <rect height="10" width="15" x="358.4282" y="347.2982"/>
    <rect height="10" width="15" x="382.5709" y="338.8027"/>
    <rect height="10" width="15" x="312.5435" y="325.3876"/>
    <rect height="10" width="15" x="350.8906" y="319.0857"/>
    <rect height="10" width="15" x="359.4496" y="307.0724"/>
    <rect height="10" width="15" x="376.8854" y="337.1652"/>
    <rect height="10" width="15" x="381.7223" y="397.2281"/>
    <rect height="10" width="15" x="369.6341" y="395.1136"/>
    <rect height="10" width="15" x="377.4307" y="379.1797"/>
    <rect height="10" width="15" x="294.4798" y="377.6088"/>
    <rect height="10" width="15" x="356.2599" y="363.917"/>
    <rect height="10" width="15" x="281.5546" y="359.9749"/>
    <rect height="10" width="15" x="298.6182" y="364.5864"/>
    <rect height="10" width="15" x="322.0336" y="349.6724"/>
    <rect height="10" width="15" x="296.1408" y="288.8712"/>
    <rect height="10" width="15" x="349.3301" y="338.0858"/>
    <rect height="10" width="15" x="293.8864" y="396.0414"/>
    <rect height="10" width="15" x="327.0061" y="398.4739"/>
    <rect height="10" width="15" x="262.8234" y="385.0479"/>
    <rect height="10" width="15" x="335.4981" y="385.1629"/>
    <rect height="10" width="15" x="355.8734" y="365.1873"/>
    <rect height="10" width="15" x="369.0355" y="340.158"/>
    <rect height="10" width="15" x="263.2754" y="364.7135"/>
    <rect height="10" width="15" x="306.491" y="330.0482"/>
    <rect height="10" width="15" x="323.4873" y="299.9578"/>
    <rect height="10" width="15" x="296.5687" y="322.9064"/>
    <rect height="10" width="15" x="244.6634" y="402.6672"/>
    <rect height="10" width="15" x="345.7557" y="390.8986"/>
    <rect height="10" width="15" x="244.2712" y="381.6346"/>
    <rect height="10" width="15" x="373.0378" y="373.2527"/>
    <rect height="10" width="15" x="332.5381" y="355.1308"/>
    <rect height="10" width="15" x="324.2954" y="343.5144"/>
    <rect height="10" width="15" x="277.9924" y="318.8955"/>
    <rect height="10" width="15" x="368.0504" y="325.011"/>
    <rect height="10" width="15" x="354.6666" y="357.6051"/>
    <rect height="10" width="15" x="308.6156" y="291.7179"/>
    <rect height="10" width="15" x="323.8985" y="396.3564"/>
    <rect height="10" width="15" x="298.6513" y="385.3714"/>
    <rect height="10" width="15" x="230.5834" y="381.119"/>
    <rect height="10" width="15" x="367.2398" y="385.4142"/>
    <rect height="10" width="15" x="351.7095" y="350.2117"/>
    <rect height="10" width="15" x="300.7818" y="357.2509"/>
    <rect height="10" width="15" x="306.7435" y="333.5153"/>
    <rect height="10" width="15" x="368.3417" y="301.5229"/>
    <rect height="10" width="15" x="357.3117" y="305.8179"/>
    <rect height="10" width="15" x="308.1521" y="317.7347"/>
    <rect height="10" width="15" x="204.2457" y="404.4952"/>
    <rect height="10" width="15" x="239.007" y="388.0006"/>
    <rect height="10" width="15" x="348.5365" y="375.5343"/>
    <rect height="10" width="15" x="206.6026" y="369.5678"/>
    <rect height="10" width="15" x="318.9126" y="384.8997"/>
    <rect height="10" width="15" x="272.9099" y="356.3718"/>
    <rect height="10" width="15" x="303.4842" y="306.626"/>
    <rect height="10" width="15" x="314.1106" y="298.4892"/>
    <rect height="10" width="15" x="362.4371" y="353.4715"/>
    <rect height="10" width="15" x="325.0292" y="342.9013"/>
    <rect height="10" width="15" x="208.498" y="394.4083"/>
    <rect height="10" width="15" x="363.9962" y="379.8453"/>
    <rect height="10" width="15" x="255.8424" y="367.3337"/>
    <rect height="10" width="15" x="210.2985" y="382.6366"/>
    <rect height="10" width="15" x="266.6973" y="362.0734"/>
    <rect height="10" width="15" x="195.1648" y="347.962"/>
    <rect height="10" width="15" x="363.0117" y="322.6085"/>
    <rect height="10" width="15" x="365.3641" y="305.069"/>
    <rect height="10" width="15" x="199.286" y="307.9196"/>
    <rect height="10" width="15" x="347.8559" y="318.6794"/>
    <rect height="10" width="15" x="225.1683" y="394.1368"/>
    <rect height="10" width="15" x="173.6184" y="391.2106"/>
    <rect height="10" width="15" x="254.2015" y="369.7461"/>
    <rect height="10" width="15" x="170.2698" y="365.9788"/>
    <rect height="10" width="15" x="249.3971" y="378.8551"/>
    <rect height="10" width="15" x="231.4662" y="331.9377"/>
    <rect height="10" width="15" x="184.8708" y="356.1214"/>
    <rect height="10" width="15" x="349.2459" y="353.8517"/>
    <rect height="10" width="15" x="249.0682" y="273.7433"/>
    <rect height="10" width="15" x="349.4268" y="325.5532"/>
    <rect height="10" width="15" x="281.4473" y="399.6384"/>
    <rect height="10" width="15" x="234.1135" y="394.589"/>
    <rect height="10" width="15" x="346.034" y="376.6089"/>
    <rect height="10" width="15" x="225.2393" y="352.2484"/>
    <rect height="10" width="15" x="310.7713" y="371.2169"/>
    <rect height="10" width="15" x="299.2504" y="358.2974"/>
    <rect height="10" width="15" x="257.8392" y="360.6458"/>
    <rect height="10" width="15" x="328.7704" y="333.7921"/>
    <rect height="10" width="15" x="362.9606" y="298.3248"/>
    <rect height="10" width="15" x="169.6567" y="331.5517"/>
    <text fill="#290" font-family="Arial" font-size="30px" font-weight="bold" stroke="none" x="70" y="325">complex origins</text>
  </svg>
</svg>
