<?xml version='1.0' encoding='ASCII' standalone='yes'?>
<svg xmlns="http://www.w3.org/2000/svg" xmlns:ev="http://www.w3.org/2001/xml-events" xmlns:xlink="http://www.w3.org/1999/xlink" baseProfile="tiny" fill="rgb(135,125,24)" height="400" stroke="black" stroke-opacity="1.0" stroke-width="0.5" version="1.2" width="400">
  <defs/>
  <rect height="10" width="10" x="0.0" y="0.0"/>
  <rect height="10" width="10" x="0.0" y="7.8448"/>
  <rect height="10" width="10" x="0.0" y="25.7022"/>
  <rect height="10" width="10" x="0.0" y="38.7186"/>
  <rect height="10" width="10" x="0.0" y="51.4216"/>
  <rect height="10" width="10" x="0.0" y="61.8013"/>
  <rect height="10" width="10" x="0.0" y="58.3205"/>
  <rect height="10" width="10" x="0.0" y="38.2459"/>
  <rect height="10" width="10" x="0.0" y="73.8783"/>
  <rect height="10" width="10" x="0.0" y="105.6501"/>
  <rect height="10" width="10" x="9.0057" y="-0.0685"/>
  <rect height="10" width="10" x="8.4575" y="6.6829"/>
  <rect height="10" width="10" x="14.1926" y="25.4065"/>
  <rect height="10" width="10" x="6.2994" y="34.5269"/>
  <rect height="10" width="10" x="8.7387" y="58.04"/>
  <rect height="10" width="10" x="12.4888" y="51.6554"/>
  <rect height="10" width="10" x="7.6251" y="45.382"/>
  <rect height="10" width="10" x="5.4089" y="85.9409"/>
  <rect height="10" width="10" x="14.6704" y="79.0689"/>
  <rect height="10" width="10" x="10.3124" y="103.2169"/>
  <rect height="10" width="10" x="13.2556" y="0.7413"/>
  <rect height="10" width="10" x="27.5809" y="13.2582"/>
  <rect height="10" width="10" x="14.7705" y="14.6405"/>
  <rect height="10" width="10" x="13.7688" y="30.7702"/>
  <rect height="10" width="10" x="23.7189" y="60.5924"/>
  <rect height="10" width="10" x="30.2202" y="58.1364"/>
  <rect height="10" width="10" x="28.9317" y="49.0543"/>
  <rect height="10" width="10" x="26.2088" y="80.6499"/>
  <rect height="10" width="10" x="15.9171" y="92.1523"/>
  <rect height="10" width="10" x="16.2462" y="71.5403"/>
  <rect height="10" width="10" x="32.4957" y="-0.1911"/>
  <rect height="10" width="10" x="17.6858" y="7.4448"/>
  <rect height="10" width="10" x="24.5432" y="22.0956"/>
  <rect height="10" width="10" x="25.0143" y="41.6578"/>
  <rect height="10" width="10" x="30.9163" y="35.784"/>
  <rect height="10" width="10" x="20.611" y="39.4743"/>
  <rect height="10" width="10" x="20.9204" y="66.47"/>
  <rect height="10" width="10" x="27.0726" y="91.8016"/>
  <rect height="10" width="10" x="34.6334" y="41.9012"/>
  <rect height="10" width="10" x="30.3016" y="109.0611"/>
  <rect height="10" width="10" x="47.824" y="1.0537"/>
  <rect height="10" width="10" x="52.463" y="16.8138"/>
  <rect height="10" width="10" x="53.476" y="26.8663"/>
  <rect height="10" width="10" x="44.5887" y="39.211"/>
  <rect height="10" width="10" x="54.4858" y="47.4275"/>
  <rect height="10" width="10" x="58.3655" y="43.0893"/>
  <rect height="10" width="10" x="25.2089" y="35.5626"/>
  <rect height="10" width="10" x="47.1604" y="49.7887"/>
  <rect height="10" width="10" x="51.8113" y="56.0045"/>
  <rect height="10" width="10" x="56.0185" y="136.5853"/>
  <rect height="10" width="10" x="58.5037" y="1.7576"/>
  <rect height="10" width="10" x="54.8957" y="9.6477"/>
  <rect height="10" width="10" x="35.0257" y="16.2038"/>
  <rect height="10" width="10" x="49.7431" y="30.9764"/>
  <rect height="10" width="10" x="68.4921" y="45.7869"/>
  <rect height="10" width="10" x="76.776" y="54.82"/>
  <rect height="10" width="10" x="27.8025" y="90.4321"/>
  <rect height="10" width="10" x="38.3054" y="55.8492"/>
  <rect height="10" width="10" x="28.3753" y="75.4766"/>
  <rect height="10" width="10" x="40.8301" y="126.7379"/>
  <rect height="10" width="10" x="57.1532" y="-1.7614"/>
  <rect height="10" width="10" x="28.4829" y="11.3293"/>
  <rect height="10" width="10" x="30.8329" y="18.0478"/>
  <rect height="10" width="10" x="69.1561" y="44.3699"/>
  <rect height="10" width="10" x="58.4197" y="41.8758"/>
  <rect height="10" width="10" x="29.1505" y="39.5948"/>
  <rect height="10" width="10" x="91.7505" y="83.1633"/>
  <rect height="10" width="10" x="69.0131" y="33.0042"/>
  <rect height="10" width="10" x="72.5688" y="48.7601"/>
  <rect height="10" width="10" x="66.5483" y="60.3"/>
  <rect height="10" width="10" x="52.2304" y="-1.8515"/>
  <rect height="10" width="10" x="105.0442" y="2.3813"/>
  <rect height="10" width="10" x="107.6722" y="15.7436"/>
  <rect height="10" width="10" x="48.0648" y="46.5093"/>
  <rect height="10" width="10" x="59.3788" y="56.0354"/>
  <rect height="10" width="10" x="82.9701" y="67.563"/>
  <rect height="10" width="10" x="82.1848" y="65.0065"/>
  <rect height="10" width="10" x="75.8563" y="102.8059"/>
  <rect height="10" width="10" x="40.9474" y="94.4346"/>
  <rect height="10" width="10" x="107.7385" y="134.0804"/>
  <rect height="10" width="10" x="61.4749" y="0.4382"/>
  <rect height="10" width="10" x="106.8227" y="7.7715"/>
  <rect height="10" width="10" x="117.787" y="7.1683"/>
  <rect height="10" width="10" x="94.5522" y="18.3174"/>
  <rect height="10" width="10" x="70.8565" y="37.1531"/>
  <rect height="10" width="10" x="70.931" y="68.4293"/>
  <rect height="10" width="10" x="122.5294" y="67.4089"/>
  <rect height="10" width="10" x="55.1082" y="44.0387"/>
  <rect height="10" width="10" x="120.6806" y="63.2609"/>
  <rect height="10" width="10" x="121.3476" y="111.4698"/>
  <rect height="10" width="10" x="64.7021" y="3.8423"/>
  <rect height="10" width="10" x="126.5359" y="1.5245"/>
  <rect height="10" width="10" x="85.1191" y="32.5524"/>
  <rect height="10" width="10" x="43.4922" y="10.6969"/>
  <rect height="10" width="10" x="66.7698" y="25.2526"/>
  <rect height="10" width="10" x="137.0313" y="29.6173"/>
  <rect height="10" width="10" x="103.737" y="39.1502"/>
  <rect height="10" width="10" x="59.5714" y="107.029"/>
  <rect height="10" width="10" x="92.8051" y="90.6698"/>
  <rect height="10" width="10" x="123.7919" y="90.8429"/>
  <svg baseProfile="tiny" fill="rgb(135,125,24)" height="400" stroke="black" stroke-opacity="1.0" stroke-width="0.5" version="1.2" width="400">
    <defs/>
    <rect height="10" width="10" x="0.0" y="0.0"/>
    <rect height="10" width="10" x="0.0" y="10.3047"/>
    <rect height="10" width="10" x="0.0" y="23.7386"/>
    <rect height="10" width="10" x="0.0" y="30.6487"/>
    <rect height="10" width="10" x="0.0" y="41.5073"/>
    <rect height="10" width="10" x="0.0" y="69.448"/>
    <rect height="10" width="10" x="0.0" y="53.0994"/>
    <rect height="10" width="10" x="0.0" y="58.6319"/>
    <rect height="10" width="10" x="0.0" y="97.218"/>
    <rect height="10" width="10" x="0.0" y="116.3989"/>
    <rect height="10" width="10" x="14.4136" y="0.3422"/>
    <rect height="10" width="10" x="5.6842" y="14.4326"/>
    <rect height="10" width="10" x="15.1931" y="25.2521"/>
    <rect height="10" width="10" x="6.7552" y="30.4988"/>
    <rect height="10" width="10" x="12.1147" y="55.21"/>
    <rect height="10" width="10" x="9.1928" y="61.4477"/>
    <rect height="10" width="10" x="13.3548" y="89.0774"/>
    <rect height="10" width="10" x="9.1427" y="89.3475"/>
    <rect height="10" width="10" x="5.7474" y="53.2137"/>
    <rect height="10" width="10" x="7.7212" y="60.9832"/>
    <rect height="10" width="10" x="30.9027" y="-0.7195"/>
    <rect height="10" width="10" x="16.8724" y="7.7106"/>
    <rect height="10" width="10" x="14.9787" y="23.0031"/>
    <rect height="10" width="10" x="18.2755" y="15.3974"/>
    <rect height="10" width="10" x="27.3866" y="26.5962"/>
    <rect height="10" width="10" x="23.4035" y="28.0742"/>
    <rect height="10" width="10" x="28.5251" y="34.9351"/>
    <rect height="10" width="10" x="14.3539" y="88.5798"/>
    <rect height="10" width="10" x="9.3533" y="53.3803"/>
    <rect height="10" width="10" x="29.0143" y="68.6839"/>
    <rect height="10" width="10" x="17.4515" y="-0.9622"/>
    <rect height="10" width="10" x="31.3014" y="8.7467"/>
    <rect height="10" width="10" x="44.6744" y="29.8576"/>
    <rect height="10" width="10" x="31.5095" y="29.2166"/>
    <rect height="10" width="10" x="34.3612" y="45.1507"/>
    <rect height="10" width="10" x="38.8437" y="44.4746"/>
    <rect height="10" width="10" x="38.3966" y="74.4015"/>
    <rect height="10" width="10" x="13.6345" y="93.7706"/>
    <rect height="10" width="10" x="38.3663" y="83.3372"/>
    <rect height="10" width="10" x="19.6895" y="51.5482"/>
    <rect height="10" width="10" x="56.0074" y="0.4429"/>
    <rect height="10" width="10" x="45.0564" y="3.5221"/>
    <rect height="10" width="10" x="20.062" y="19.9713"/>
    <rect height="10" width="10" x="19.7927" y="24.9211"/>
    <rect height="10" width="10" x="41.9252" y="34.318"/>
    <rect height="10" width="10" x="21.0827" y="38.6369"/>
    <rect height="10" width="10" x="60.2699" y="39.2526"/>
    <rect height="10" width="10" x="30.2294" y="60.0697"/>
    <rect height="10" width="10" x="47.5156" y="111.9756"/>
    <rect height="10" width="10" x="20.3159" y="79.6926"/>
    <rect height="10" width="10" x="26.0958" y="1.3523"/>
    <rect height="10" width="10" x="69.8877" y="7.6767"/>
    <rect height="10" width="10" x="34.2046" y="9.6933"/>
    <rect height="10" width="10" x="41.1749" y="25.7999"/>
    <rect height="10" width="10" x="52.0328" y="33.2433"/>
    <rect height="10" width="10" x="34.6841" y="65.022"/>
    <rect height="10" width="10" x="35.142" y="71.948"/>
    <rect height="10" width="10" x="63.2769" y="67.6239"/>
    <rect height="10" width="10" x="47.9395" y="104.8769"/>
    <rect height="10" width="10" x="33.8402" y="67.1025"/>
    <rect height="10" width="10" x="74.4643" y="1.1489"/>
    <rect height="10" width="10" x="43.3795" y="15.8626"/>
    <rect height="10" width="10" x="27.6574" y="28.1333"/>
    <rect height="10" width="10" x="28.1723" y="16.6632"/>
    <rect height="10" width="10" x="74.059" y="18.9142"/>
    <rect height="10" width="10" x="78.5089" y="76.466"/>
    <rect height="10" width="10" x="43.6827" y="58.0044"/>
    <rect height="10" width="10" x="87.8592" y="78.0051"/>
    <rect height="10" width="10" x="64.7097" y="74.5975"/>
    <rect height="10" width="10" x="35.5527" y="125.003"/>
    <rect height="10" width="10" x="36.9436" y="1.5591"/>
    <rect height="10" width="10" x="80.0013" y="14.7768"/>
    <rect height="10" width="10" x="108.3367" y="26.3591"/>
    <rect height="10" width="10" x="63.677" y="15.5442"/>
    <rect height="10" width="10" x="71.3245" y="20.0824"/>
    <rect height="10" width="10" x="76.5215" y="62.5111"/>
    <rect height="10" width="10" x="33.0789" y="50.6416"/>
    <rect height="10" width="10" x="70.3245" y="100.5415"/>
    <rect height="10" width="10" x="45.5319" y="100.4185"/>
    <rect height="10" width="10" x="38.6507" y="60.1174"/>
    <rect height="10" width="10" x="106.9783" y="0.758"/>
    <rect height="10" width="10" x="113.8995" y="5.6384"/>
    <rect height="10" width="10" x="40.8775" y="28.6151"/>
    <rect height="10" width="10" x="111.9629" y="20.7325"/>
    <rect height="10" width="10" x="62.3239" y="16.1597"/>
    <rect height="10" width="10" x="109.5792" y="28.5029"/>
    <rect height="10" width="10" x="91.3815" y="65.4516"/>
    <rect height="10" width="10" x="69.6147" y="85.9665"/>
    <rect height="10" width="10" x="102.8252" y="74.2928"/>
    <rect height="10" width="10" x="97.1718" y="50.0396"/>
    <rect height="10" width="10" x="97.25" y="-3.6956"/>
    <rect height="10" width="10" x="87.5278" y="13.6692"/>
    <rect height="10" width="10" x="66.2912" y="5.6711"/>
    <rect height="10" width="10" x="65.7183" y="30.0979"/>
    <rect height="10" width="10" x="137.0556" y="41.5003"/>
    <rect height="10" width="10" x="128.487" y="47.5138"/>
    <rect height="10" width="10" x="132.9698" y="41.3519"/>
    <rect height="10" width="10" x="81.2787" y="83.7524"/>
    <rect height="10" width="10" x="61.4711" y="64.008"/>
    <rect height="10" width="10" x="130.3061" y="90.6132"/>
  </svg>
  <svg baseProfile="tiny" fill="rgb(96,238,222)" height="400" stroke="black" stroke-opacity="1.0" stroke-width="0.5" version="1.2" width="400">
    <defs/>
    <rect height="10" width="15" x="0.0" y="0.0"/>
    <rect height="10" width="15" x="0.0" y="7.4778"/>
    <rect height="10" width="15" x="0.0" y="26.7076"/>
    <rect height="10" width="15" x="0.0" y="18.6531"/>
    <rect height="10" width="15" x="0.0" y="42.2816"/>
    <rect height="10" width="15" x="0.0" y="38.8951"/>
    <rect height="10" width="15" x="0.0" y="79.8355"/>
    <rect height="10" width="15" x="0.0" y="37.0907"/>
    <rect height="10" width="15" x="0.0" y="84.7149"/>
    <rect height="10" width="15" x="0.0" y="82.6142"/>
    <rect height="10" width="15" x="12.2099" y="0.4993"/>
    <rect height="10" width="15" x="17.5122" y="14.3801"/>
    <rect height="10" width="15" x="16.5701" y="28.3084"/>
    <rect height="10" width="15" x="5.5639" y="18.9239"/>
    <rect height="10" width="15" x="7.1336" y="54.0933"/>
    <rect height="10" width="15" x="3.8394" y="62.2836"/>
    <rect height="10" width="15" x="16.6561" y="89.6951"/>
    <rect height="10" width="15" x="8.8217" y="36.3687"/>
    <rect height="10" width="15" x="2.4707" y="59.6268"/>
    <rect height="10" width="15" x="4.7117" y="83.3378"/>
    <rect height="10" width="15" x="13.7086" y="0.2644"/>
    <rect height="10" width="15" x="30.4634" y="10.6354"/>
    <rect height="10" width="15" x="33.3457" y="16.8928"/>
    <rect height="10" width="15" x="20.0735" y="45.5432"/>
    <rect height="10" width="15" x="15.4027" y="23.3998"/>
    <rect height="10" width="15" x="29.0252" y="29.424"/>
    <rect height="10" width="15" x="28.5031" y="74.0946"/>
    <rect height="10" width="15" x="32.8946" y="92.9375"/>
    <rect height="10" width="15" x="7.822" y="83.0809"/>
    <rect height="10" width="15" x="31.4245" y="46.488"/>
    <rect height="10" width="15" x="39.0107" y="1.1663"/>
    <rect height="10" width="15" x="14.805" y="9.817"/>
    <rect height="10" width="15" x="20.5049" y="20.5375"/>
    <rect height="10" width="15" x="22.7255" y="27.7543"/>
    <rect height="10" width="15" x="9.3177" y="46.7459"/>
    <rect height="10" width="15" x="29.9918" y="50.9278"/>
    <rect height="10" width="15" x="13.7821" y="39.716"/>
    <rect height="10" width="15" x="24.1149" y="93.432"/>
    <rect height="10" width="15" x="7.4693" y="66.9497"/>
    <rect height="10" width="15" x="49.6021" y="80.481"/>
    <rect height="10" width="15" x="53.5989" y="1.9037"/>
    <rect height="10" width="15" x="12.5049" y="11.3272"/>
    <rect height="10" width="15" x="57.9849" y="30.0324"/>
    <rect height="10" width="15" x="45.6822" y="27.1795"/>
    <rect height="10" width="15" x="46.4441" y="24.9138"/>
    <rect height="10" width="15" x="15.1945" y="71.5456"/>
    <rect height="10" width="15" x="36.3596" y="41.7592"/>
    <rect height="10" width="15" x="43.1406" y="64.0398"/>
    <rect height="10" width="15" x="56.959" y="73.9365"/>
    <rect height="10" width="15" x="52.9734" y="76.5164"/>
    <rect height="10" width="15" x="10.0791" y="-2.4583"/>
    <rect height="10" width="15" x="17.9495" y="15.1972"/>
    <rect height="10" width="15" x="16.5075" y="17.9596"/>
    <rect height="10" width="15" x="11.2489" y="33.0791"/>
    <rect height="10" width="15" x="36.9489" y="23.3074"/>
    <rect height="10" width="15" x="24.1763" y="28.1743"/>
    <rect height="10" width="15" x="72.1425" y="90.3319"/>
    <rect height="10" width="15" x="76.0649" y="38.1497"/>
    <rect height="10" width="15" x="82.9717" y="114.6283"/>
    <rect height="10" width="15" x="44.7609" y="49.2627"/>
    <rect height="10" width="15" x="26.2741" y="-0.3526"/>
    <rect height="10" width="15" x="62.6407" y="14.6636"/>
    <rect height="10" width="15" x="40.8881" y="15.4147"/>
    <rect height="10" width="15" x="64.0494" y="33.9766"/>
    <rect height="10" width="15" x="36.5965" y="26.0759"/>
    <rect height="10" width="15" x="88.3876" y="38.8803"/>
    <rect height="10" width="15" x="77.507" y="38.1413"/>
    <rect height="10" width="15" x="55.175" y="55.6371"/>
    <rect height="10" width="15" x="74.6079" y="96.9867"/>
    <rect height="10" width="15" x="50.645" y="114.1061"/>
    <rect height="10" width="15" x="73.9175" y="3.1974"/>
    <rect height="10" width="15" x="117.5306" y="10.9326"/>
    <rect height="10" width="15" x="77.7206" y="12.1793"/>
    <rect height="10" width="15" x="115.3379" y="30.2616"/>
    <rect height="10" width="15" x="61.26" y="29.6876"/>
    <rect height="10" width="15" x="36.7038" y="56.0711"/>
    <rect height="10" width="15" x="121.8413" y="57.6747"/>
    <rect height="10" width="15" x="30.8779" y="69.1033"/>
    <rect height="10" width="15" x="62.4084" y="78.2762"/>
    <rect height="10" width="15" x="40.1391" y="95.5181"/>
    <rect height="10" width="15" x="26.9422" y="-3.1395"/>
    <rect height="10" width="15" x="51.1185" y="10.205"/>
    <rect height="10" width="15" x="120.6871" y="21.6385"/>
    <rect height="10" width="15" x="44.0444" y="23.0577"/>
    <rect height="10" width="15" x="131.0057" y="46.0316"/>
    <rect height="10" width="15" x="122.5915" y="22.2816"/>
    <rect height="10" width="15" x="19.699" y="88.117"/>
    <rect height="10" width="15" x="122.4578" y="100.4372"/>
    <rect height="10" width="15" x="130.6094" y="59.3556"/>
    <rect height="10" width="15" x="50.7435" y="106.2883"/>
    <rect height="10" width="15" x="120.9174" y="-3.7758"/>
    <rect height="10" width="15" x="86.4137" y="15.655"/>
    <rect height="10" width="15" x="133.1438" y="24.8164"/>
    <rect height="10" width="15" x="154.0567" y="20.6512"/>
    <rect height="10" width="15" x="44.14" y="26.4079"/>
    <rect height="10" width="15" x="57.9484" y="71.133"/>
    <rect height="10" width="15" x="156.7982" y="52.9587"/>
    <rect height="10" width="15" x="84.2815" y="81.6453"/>
    <rect height="10" width="15" x="53.1622" y="39.1131"/>
    <rect height="10" width="15" x="111.4309" y="92.7978"/>
    <rect height="10" width="15" x="71.6466" y="-3.1622"/>
    <rect height="10" width="15" x="71.6464" y="5.4133"/>
    <rect height="10" width="15" x="76.3439" y="26.6286"/>
    <rect height="10" width="15" x="121.2062" y="39.4663"/>
    <rect height="10" width="15" x="159.4405" y="54.087"/>
    <rect height="10" width="15" x="22.8322" y="44.0995"/>
    <rect height="10" width="15" x="134.3032" y="46.6533"/>
    <rect height="10" width="15" x="108.0592" y="57.2"/>
    <rect height="10" width="15" x="119.099" y="104.8767"/>
    <rect height="10" width="15" x="66.9939" y="81.5354"/>
    <rect height="10" width="15" x="48.568" y="4.4845"/>
    <rect height="10" width="15" x="119.0699" y="0.9532"/>
    <rect height="10" width="15" x="52.1811" y="10.363"/>
    <rect height="10" width="15" x="67.4318" y="22.1693"/>
    <rect height="10" width="15" x="41.8391" y="17.5711"/>
    <rect height="10" width="15" x="129.9373" y="42.6148"/>
    <rect height="10" width="15" x="122.8006" y="52.6873"/>
    <rect height="10" width="15" x="69.1078" y="30.8817"/>
    <rect height="10" width="15" x="33.1298" y="98.6968"/>
    <rect height="10" width="15" x="44.2247" y="73.1713"/>
    <rect height="10" width="15" x="79.0408" y="0.5261"/>
    <rect height="10" width="15" x="70.8146" y="4.9776"/>
    <rect height="10" width="15" x="173.4688" y="25.7731"/>
    <rect height="10" width="15" x="68.5502" y="20.6322"/>
    <rect height="10" width="15" x="199.6043" y="47.1994"/>
    <rect height="10" width="15" x="41.0369" y="49.2222"/>
    <rect height="10" width="15" x="132.9036" y="54.1139"/>
    <rect height="10" width="15" x="196.4682" y="34.8844"/>
    <rect height="10" width="15" x="172.6429" y="120.3614"/>
    <rect height="10" width="15" x="173.9189" y="76.8081"/>
    <rect height="10" width="15" x="149.3822" y="-5.1483"/>
    <rect height="10" width="15" x="140.4192" y="4.9424"/>
    <rect height="10" width="15" x="210.408" y="14.7813"/>
    <rect height="10" width="15" x="57.0983" y="25.6166"/>
    <rect height="10" width="15" x="160.0614" y="33.2511"/>
    <rect height="10" width="15" x="185.4986" y="27.4898"/>
    <rect height="10" width="15" x="129.9578" y="39.3116"/>
    <rect height="10" width="15" x="89.6145" y="45.5248"/>
    <rect height="10" width="15" x="39.5032" y="67.9515"/>
    <rect height="10" width="15" x="219.366" y="111.9436"/>
    <rect height="10" width="15" x="31.1085" y="-5.4177"/>
    <rect height="10" width="15" x="150.7602" y="10.5284"/>
    <rect height="10" width="15" x="223.7126" y="32.0911"/>
    <rect height="10" width="15" x="202.8681" y="25.0283"/>
    <rect height="10" width="15" x="140.9075" y="37.9386"/>
    <rect height="10" width="15" x="108.7304" y="74.8391"/>
    <rect height="10" width="15" x="32.3473" y="75.2031"/>
    <rect height="10" width="15" x="202.6667" y="59.4825"/>
    <rect height="10" width="15" x="93.0544" y="67.347"/>
    <rect height="10" width="15" x="33.3564" y="41.1361"/>
  </svg>
  <svg baseProfile="tiny" fill="rgb(238,96,222)" height="400" stroke="black" stroke-opacity="1.0" stroke-width="0.5" version="1.2" width="400">
    <defs/>
    <rect height="10" width="15" x="400.0" y="400.0"/>
    <rect height="10" width="15" x="400.0" y="390.2928"/>
    <rect height="10" width="15" x="400.0" y="372.3007"/>
    <rect height="10" width="15" x="400.0" y="359.0154"/>
    <rect height="10" width="15" x="400.0" y="379.2481"/>
    <rect height="10" width="15" x="400.0" y="335.3208"/>
    <rect height="10" width="15" x="400.0" y="363.7179"/>
    <rect height="10" width="15" x="400.0" y="364.9796"/>
    <rect height="10" width="15" x="400.0" y="322.524"/>
    <rect height="10" width="15" x="400.0" y="280.7001"/>
    <rect height="10" width="15" x="397.4416" y="399.6378"/>
    <rect height="10" width="15" x="385.9237" y="388.1047"/>
    <rect height="10" width="15" x="397.1465" y="375.7096"/>
    <rect height="10" width="15" x="389.7489" y="377.1605"/>
    <rect height="10" width="15" x="395.5911" y="352.0706"/>
    <rect height="10" width="15" x="390.8144" y="362.3007"/>
    <rect height="10" width="15" x="385.306" y="356.4934"/>
    <rect height="10" width="15" x="384.4592" y="338.2629"/>
    <rect height="10" width="15" x="388.9195" y="280.9809"/>
    <rect height="10" width="15" x="383.3971" y="344.4606"/>
    <rect height="10" width="15" x="373.8351" y="400.6573"/>
    <rect height="10" width="15" x="378.0567" y="395.7143"/>
    <rect height="10" width="15" x="391.8278" y="371.0163"/>
    <rect height="10" width="15" x="378.2265" y="367.6117"/>
    <rect height="10" width="15" x="386.1258" y="348.1082"/>
    <rect height="10" width="15" x="371.0822" y="344.4079"/>
    <rect height="10" width="15" x="364.2068" y="315.7805"/>
    <rect height="10" width="15" x="376.3242" y="317.478"/>
    <rect height="10" width="15" x="364.5985" y="307.9235"/>
    <rect height="10" width="15" x="381.8409" y="326.5758"/>
    <rect height="10" width="15" x="349.4817" y="401.3516"/>
    <rect height="10" width="15" x="392.5572" y="393.4628"/>
    <rect height="10" width="15" x="375.2915" y="374.3148"/>
    <rect height="10" width="15" x="379.2193" y="353.7493"/>
    <rect height="10" width="15" x="388.2325" y="364.639"/>
    <rect height="10" width="15" x="352.8685" y="344.318"/>
    <rect height="10" width="15" x="355.5437" y="362.6972"/>
    <rect height="10" width="15" x="380.5556" y="310.912"/>
    <rect height="10" width="15" x="372.4186" y="300.2032"/>
    <rect height="10" width="15" x="367.3556" y="296.1414"/>
    <rect height="10" width="15" x="380.7778" y="400.8072"/>
    <rect height="10" width="15" x="379.3011" y="384.8664"/>
    <rect height="10" width="15" x="389.6193" y="378.8853"/>
    <rect height="10" width="15" x="372.4708" y="361.3722"/>
    <rect height="10" width="15" x="329.9003" y="354.576"/>
    <rect height="10" width="15" x="335.1219" y="373.6784"/>
    <rect height="10" width="15" x="373.9002" y="317.8045"/>
    <rect height="10" width="15" x="373.2869" y="298.0173"/>
    <rect height="10" width="15" x="336.3346" y="291.8928"/>
    <rect height="10" width="15" x="360.2109" y="343.3144"/>
    <rect height="10" width="15" x="376.0534" y="399.7056"/>
    <rect height="10" width="15" x="320.9631" y="390.7797"/>
    <rect height="10" width="15" x="362.1547" y="372.4187"/>
    <rect height="10" width="15" x="350.5136" y="383.6191"/>
    <rect height="10" width="15" x="376.0908" y="378.7733"/>
    <rect height="10" width="15" x="324.4654" y="332.8854"/>
    <rect height="10" width="15" x="360.89" y="356.1795"/>
    <rect height="10" width="15" x="366.5531" y="336.6966"/>
    <rect height="10" width="15" x="374.6786" y="298.5985"/>
    <rect height="10" width="15" x="367.1668" y="287.5502"/>
    <rect height="10" width="15" x="311.1856" y="398.6631"/>
    <rect height="10" width="15" x="375.8718" y="386.498"/>
    <rect height="10" width="15" x="296.5963" y="369.3377"/>
    <rect height="10" width="15" x="307.5773" y="387.6727"/>
    <rect height="10" width="15" x="292.9026" y="360.8157"/>
    <rect height="10" width="15" x="296.9021" y="364.2755"/>
    <rect height="10" width="15" x="310.0119" y="329.3267"/>
    <rect height="10" width="15" x="376.3576" y="352.5271"/>
    <rect height="10" width="15" x="379.7408" y="295.5229"/>
    <rect height="10" width="15" x="299.0297" y="294.8368"/>
    <rect height="10" width="15" x="288.7461" y="402.4036"/>
    <rect height="10" width="15" x="357.5354" y="386.4278"/>
    <rect height="10" width="15" x="335.0606" y="377.3254"/>
    <rect height="10" width="15" x="378.7308" y="375.1298"/>
    <rect height="10" width="15" x="376.249" y="352.5623"/>
    <rect height="10" width="15" x="301.845" y="329.4731"/>
    <rect height="10" width="15" x="375.7096" y="356.3858"/>
    <rect height="10" width="15" x="297.4497" y="322.3372"/>
    <rect height="10" width="15" x="307.6089" y="317.3866"/>
    <rect height="10" width="15" x="302.6734" y="356.7174"/>
    <rect height="10" width="15" x="315.2435" y="396.4789"/>
    <rect height="10" width="15" x="331.6314" y="390.302"/>
    <rect height="10" width="15" x="345.5057" y="378.6852"/>
    <rect height="10" width="15" x="256.682" y="355.9272"/>
    <rect height="10" width="15" x="353.9258" y="348.7612"/>
    <rect height="10" width="15" x="270.0578" y="365.1895"/>
    <rect height="10" width="15" x="280.1285" y="316.5971"/>
    <rect height="10" width="15" x="326.7273" y="321.5097"/>
    <rect height="10" width="15" x="320.5505" y="331.9236"/>
    <rect height="10" width="15" x="265.349" y="265.2191"/>
    <rect height="10" width="15" x="311.1178" y="397.6696"/>
    <rect height="10" width="15" x="352.6349" y="393.1106"/>
    <rect height="10" width="15" x="340.2942" y="391.991"/>
    <rect height="10" width="15" x="354.2154" y="361.3592"/>
    <rect height="10" width="15" x="361.1913" y="354.0668"/>
    <rect height="10" width="15" x="379.2446" y="364.8458"/>
    <rect height="10" width="15" x="309.2648" y="354.3343"/>
    <rect height="10" width="15" x="300.9459" y="314.379"/>
    <rect height="10" width="15" x="353.6629" y="290.2136"/>
    <rect height="10" width="15" x="327.8486" y="326.2322"/>
    <rect height="10" width="15" x="263.888" y="399.9794"/>
    <rect height="10" width="15" x="228.7965" y="383.2661"/>
    <rect height="10" width="15" x="323.7633" y="393.0761"/>
    <rect height="10" width="15" x="294.6376" y="358.6778"/>
    <rect height="10" width="15" x="344.8718" y="360.7953"/>
    <rect height="10" width="15" x="260.116" y="365.7307"/>
    <rect height="10" width="15" x="328.7806" y="339.5702"/>
    <rect height="10" width="15" x="229.2258" y="353.6079"/>
    <rect height="10" width="15" x="377.622" y="355.9848"/>
    <rect height="10" width="15" x="243.015" y="278.1934"/>
    <rect height="10" width="15" x="360.0543" y="398.893"/>
    <rect height="10" width="15" x="211.6342" y="387.8297"/>
    <rect height="10" width="15" x="282.8434" y="393.0676"/>
    <rect height="10" width="15" x="222.7362" y="374.0015"/>
    <rect height="10" width="15" x="297.023" y="368.3349"/>
    <rect height="10" width="15" x="324.1216" y="335.0715"/>
    <rect height="10" width="15" x="271.8701" y="307.9381"/>
    <rect height="10" width="15" x="313.4844" y="331.9313"/>
    <rect height="10" width="15" x="335.4327" y="286.0407"/>
    <rect height="10" width="15" x="346.7441" y="302.8073"/>
    <rect height="10" width="15" x="316.7033" y="398.2159"/>
    <rect height="10" width="15" x="215.4418" y="381.603"/>
    <rect height="10" width="15" x="273.7941" y="381.1931"/>
    <rect height="10" width="15" x="232.4255" y="355.6316"/>
    <rect height="10" width="15" x="263.1808" y="351.1084"/>
    <rect height="10" width="15" x="258.2038" y="378.0118"/>
    <rect height="10" width="15" x="362.2945" y="353.8296"/>
    <rect height="10" width="15" x="213.9127" y="334.8381"/>
    <rect height="10" width="15" x="226.5684" y="338.8236"/>
    <rect height="10" width="15" x="336.6119" y="328.5205"/>
    <rect height="10" width="15" x="246.9491" y="394.1405"/>
    <rect height="10" width="15" x="266.2502" y="385.3031"/>
    <rect height="10" width="15" x="350.7022" y="364.6052"/>
    <rect height="10" width="15" x="307.318" y="386.1734"/>
    <rect height="10" width="15" x="213.7451" y="334.7425"/>
    <rect height="10" width="15" x="190.0946" y="343.5461"/>
    <rect height="10" width="15" x="310.0704" y="303.7575"/>
    <rect height="10" width="15" x="356.4907" y="291.6832"/>
    <rect height="10" width="15" x="183.6985" y="292.6594"/>
    <rect height="10" width="15" x="253.5209" y="332.7907"/>
    <rect height="10" width="15" x="188.8233" y="406.1122"/>
    <rect height="10" width="15" x="277.6249" y="379.9466"/>
    <rect height="10" width="15" x="210.3214" y="368.0107"/>
    <rect height="10" width="15" x="345.5774" y="377.5661"/>
    <rect height="10" width="15" x="250.6525" y="384.1681"/>
    <rect height="10" width="15" x="305.7852" y="378.8164"/>
    <rect height="10" width="15" x="356.5823" y="368.0779"/>
    <rect height="10" width="15" x="292.3689" y="291.5955"/>
    <rect height="10" width="15" x="237.2573" y="291.0729"/>
    <rect height="10" width="15" x="358.0724" y="317.3184"/>
    <text fill="#290" font-family="Arial" font-size="30px" font-weight="bold" stroke="none" x="70" y="325">complex origins</text>
  </svg>
</svg>
