<?xml version='1.0' encoding='ASCII' standalone='yes'?>
<svg xmlns="http://www.w3.org/2000/svg" xmlns:ev="http://www.w3.org/2001/xml-events" xmlns:xlink="http://www.w3.org/1999/xlink" baseProfile="tiny" fill="rgb(135,125,24)" height="400" stroke="black" stroke-opacity="1.0" stroke-width="0.5" version="1.2" width="400">
  <defs/>
  <rect height="10" width="10" x="0.0" y="0.0"/>
  <rect height="10" width="10" x="0.0" y="7.8448"/>
  <rect height="10" width="10" x="0.0" y="25.7022"/>
  <rect height="10" width="10" x="0.0" y="38.7186"/>
  <rect height="10" width="10" x="0.0" y="51.4216"/>
  <rect height="10" width="10" x="0.0" y="61.8013"/>
  <rect height="10" width="10" x="0.0" y="58.3205"/>
  <rect height="10" width="10" x="0.0" y="38.2459"/>
  <rect height="10" width="10" x="0.0" y="73.8783"/>
  <rect height="10" width="10" x="0.0" y="105.6501"/>
  <rect height="10" width="10" x="9.0057" y="-0.0685"/>
  <rect height="10" width="10" x="8.4575" y="6.6829"/>
  <rect height="10" width="10" x="14.1926" y="25.4065"/>
  <rect height="10" width="10" x="6.2994" y="34.5269"/>
  <rect height="10" width="10" x="8.7387" y="58.04"/>
  <rect height="10" width="10" x="12.4888" y="51.6554"/>
  <rect height="10" width="10" x="7.6251" y="45.382"/>
  <rect height="10" width="10" x="5.4089" y="85.9409"/>
  <rect height="10" width="10" x="14.6704" y="79.0689"/>
  <rect height="10" width="10" x="10.3124" y="103.2169"/>
  <rect height="10" width="10" x="13.2556" y="0.7413"/>
  <rect height="10" width="10" x="27.5809" y="13.2582"/>
  <rect height="10" width="10" x="14.7705" y="14.6405"/>
  <rect height="10" width="10" x="13.7688" y="30.7702"/>
  <rect height="10" width="10" x="23.7189" y="60.5924"/>
  <rect height="10" width="10" x="30.2202" y="58.1364"/>
  <rect height="10" width="10" x="28.9317" y="49.0543"/>
  <rect height="10" width="10" x="26.2088" y="80.6499"/>
  <rect height="10" width="10" x="15.9171" y="92.1523"/>
  <rect height="10" width="10" x="16.2462" y="71.5403"/>
  <rect height="10" width="10" x="32.4957" y="-0.1911"/>
  <rect height="10" width="10" x="17.6858" y="7.4448"/>
  <rect height="10" width="10" x="24.5432" y="22.0956"/>
  <rect height="10" width="10" x="25.0143" y="41.6578"/>
  <rect height="10" width="10" x="30.9163" y="35.784"/>
  <rect height="10" width="10" x="20.611" y="39.4743"/>
  <rect height="10" width="10" x="20.9204" y="66.47"/>
  <rect height="10" width="10" x="27.0726" y="91.8016"/>
  <rect height="10" width="10" x="34.6334" y="41.9012"/>
  <rect height="10" width="10" x="30.3016" y="109.0611"/>
  <rect height="10" width="10" x="47.824" y="1.0537"/>
  <rect height="10" width="10" x="52.463" y="16.8138"/>
  <rect height="10" width="10" x="53.476" y="26.8663"/>
  <rect height="10" width="10" x="44.5887" y="39.211"/>
  <rect height="10" width="10" x="54.4858" y="47.4275"/>
  <rect height="10" width="10" x="58.3655" y="43.0893"/>
  <rect height="10" width="10" x="25.2089" y="35.5626"/>
  <rect height="10" width="10" x="47.1604" y="49.7887"/>
  <rect height="10" width="10" x="51.8113" y="56.0045"/>
  <rect height="10" width="10" x="56.0185" y="136.5853"/>
  <rect height="10" width="10" x="58.5037" y="1.7576"/>
  <rect height="10" width="10" x="54.8957" y="9.6477"/>
  <rect height="10" width="10" x="35.0257" y="16.2038"/>
  <rect height="10" width="10" x="49.7431" y="30.9764"/>
  <rect height="10" width="10" x="68.4921" y="45.7869"/>
  <rect height="10" width="10" x="76.776" y="54.82"/>
  <rect height="10" width="10" x="27.8025" y="90.4321"/>
  <rect height="10" width="10" x="38.3054" y="55.8492"/>
  <rect height="10" width="10" x="28.3753" y="75.4766"/>
  <rect height="10" width="10" x="40.8301" y="126.7379"/>
  <rect height="10" width="10" x="57.1532" y="-1.7614"/>
  <rect height="10" width="10" x="28.4829" y="11.3293"/>
  <rect height="10" width="10" x="30.8329" y="18.0478"/>
  <rect height="10" width="10" x="69.1561" y="44.3699"/>
  <rect height="10" width="10" x="58.4197" y="41.8758"/>
  <rect height="10" width="10" x="29.1505" y="39.5948"/>
  <rect height="10" width="10" x="91.7505" y="83.1633"/>
  <rect height="10" width="10" x="69.0131" y="33.0042"/>
  <rect height="10" width="10" x="72.5688" y="48.7601"/>
  <rect height="10" width="10" x="66.5483" y="60.3"/>
  <rect height="10" width="10" x="52.2304" y="-1.8515"/>
  <rect height="10" width="10" x="105.0442" y="2.3813"/>
  <rect height="10" width="10" x="107.6722" y="15.7436"/>
  <rect height="10" width="10" x="48.0648" y="46.5093"/>
  <rect height="10" width="10" x="59.3788" y="56.0354"/>
  <rect height="10" width="10" x="82.9701" y="67.563"/>
  <rect height="10" width="10" x="82.1848" y="65.0065"/>
  <rect height="10" width="10" x="75.8563" y="102.8059"/>
  <rect height="10" width="10" x="40.9474" y="94.4346"/>
  <rect height="10" width="10" x="107.7385" y="134.0804"/>
  <rect height="10" width="10" x="61.4749" y="0.4382"/>
  <rect height="10" width="10" x="106.8227" y="7.7715"/>
  <rect height="10" width="10" x="117.787" y="7.1683"/>
  <rect height="10" width="10" x="94.5522" y="18.3174"/>
  <rect height="10" width="10" x="70.8565" y="37.1531"/>
  <rect height="10" width="10" x="70.931" y="68.4293"/>
  <rect height="10" width="10" x="122.5294" y="67.4089"/>
  <rect height="10" width="10" x="55.1082" y="44.0387"/>
  <rect height="10" width="10" x="120.6806" y="63.2609"/>
  <rect height="10" width="10" x="121.3476" y="111.4698"/>
  <rect height="10" width="10" x="64.7021" y="3.8423"/>
  <rect height="10" width="10" x="126.5359" y="1.5245"/>
  <rect height="10" width="10" x="85.1191" y="32.5524"/>
  <rect height="10" width="10" x="43.4922" y="10.6969"/>
  <rect height="10" width="10" x="66.7698" y="25.2526"/>
  <rect height="10" width="10" x="137.0313" y="29.6173"/>
  <rect height="10" width="10" x="103.737" y="39.1502"/>
  <rect height="10" width="10" x="59.5714" y="107.029"/>
  <rect height="10" width="10" x="92.8051" y="90.6698"/>
  <rect height="10" width="10" x="123.7919" y="90.8429"/>
  <svg baseProfile="tiny" fill="rgb(135,125,24)" height="400" stroke="black" stroke-opacity="1.0" stroke-width="0.5" version="1.2" width="400">
    <defs/>
    <rect height="10" width="10" x="0.0" y="0.0"/>
    <rect height="10" width="10" x="0.0" y="10.8426"/>
    <rect height="10" width="10" x="0.0" y="17.744"/>
    <rect height="10" width="10" x="0.0" y="17.8282"/>
    <rect height="10" width="10" x="0.0" y="30.2004"/>
    <rect height="10" width="10" x="0.0" y="50.9939"/>
    <rect height="10" width="10" x="0.0" y="56.1283"/>
    <rect height="10" width="10" x="0.0" y="50.3717"/>
    <rect height="10" width="10" x="0.0" y="60.5035"/>
    <rect height="10" width="10" x="0.0" y="82.1017"/>
    <rect height="10" width="10" x="13.476" y="-0.3501"/>
    <rect height="10" width="10" x="7.6512" y="5.386"/>
    <rect height="10" width="10" x="11.889" y="16.3302"/>
    <rect height="10" width="10" x="10.0253" y="38.6274"/>
    <rect height="10" width="10" x="13.2259" y="42.2756"/>
    <rect height="10" width="10" x="14.088" y="33.9004"/>
    <rect height="10" width="10" x="11.3892" y="44.3284"/>
    <rect height="10" width="10" x="13.7021" y="69.1344"/>
    <rect height="10" width="10" x="8.2964" y="59.4199"/>
    <rect height="10" width="10" x="8.0834" y="116.9828"/>
    <rect height="10" width="10" x="30.3015" y="0.0236"/>
    <rect height="10" width="10" x="25.4785" y="8.1802"/>
    <rect height="10" width="10" x="18.3045" y="22.3072"/>
    <rect height="10" width="10" x="12.7447" y="31.2931"/>
    <rect height="10" width="10" x="14.5582" y="40.2365"/>
    <rect height="10" width="10" x="23.9612" y="61.4118"/>
    <rect height="10" width="10" x="11.4584" y="36.4424"/>
    <rect height="10" width="10" x="21.5097" y="82.7108"/>
    <rect height="10" width="10" x="19.8402" y="39.2664"/>
    <rect height="10" width="10" x="22.3039" y="112.5183"/>
    <rect height="10" width="10" x="28.8893" y="-0.7829"/>
    <rect height="10" width="10" x="38.3414" y="10.6267"/>
    <rect height="10" width="10" x="28.7779" y="30.5347"/>
    <rect height="10" width="10" x="31.3645" y="35.3361"/>
    <rect height="10" width="10" x="31.0588" y="24.2867"/>
    <rect height="10" width="10" x="37.2744" y="55.4318"/>
    <rect height="10" width="10" x="37.7136" y="63.9483"/>
    <rect height="10" width="10" x="37.872" y="54.4356"/>
    <rect height="10" width="10" x="36.6236" y="63.572"/>
    <rect height="10" width="10" x="35.8402" y="50.6491"/>
    <rect height="10" width="10" x="31.5297" y="-0.4209"/>
    <rect height="10" width="10" x="50.3542" y="10.7373"/>
    <rect height="10" width="10" x="54.2487" y="27.4635"/>
    <rect height="10" width="10" x="18.1113" y="23.3244"/>
    <rect height="10" width="10" x="19.9595" y="22.4997"/>
    <rect height="10" width="10" x="50.0089" y="29.5977"/>
    <rect height="10" width="10" x="26.1752" y="40.0777"/>
    <rect height="10" width="10" x="51.5489" y="47.8014"/>
    <rect height="10" width="10" x="27.0366" y="120.7847"/>
    <rect height="10" width="10" x="19.1994" y="68.3336"/>
    <rect height="10" width="10" x="59.3811" y="1.4394"/>
    <rect height="10" width="10" x="32.134" y="8.8316"/>
    <rect height="10" width="10" x="47.7532" y="25.4866"/>
    <rect height="10" width="10" x="77.2695" y="27.8848"/>
    <rect height="10" width="10" x="28.176" y="42.8282"/>
    <rect height="10" width="10" x="45.1279" y="62.5454"/>
    <rect height="10" width="10" x="37.1194" y="35.4893"/>
    <rect height="10" width="10" x="37.5044" y="39.9095"/>
    <rect height="10" width="10" x="71.7651" y="45.9012"/>
    <rect height="10" width="10" x="22.6667" y="76.2988"/>
    <rect height="10" width="10" x="77.9211" y="2.6451"/>
    <rect height="10" width="10" x="76.315" y="4.7386"/>
    <rect height="10" width="10" x="62.3577" y="22.7614"/>
    <rect height="10" width="10" x="33.0768" y="39.2205"/>
    <rect height="10" width="10" x="64.6296" y="43.4133"/>
    <rect height="10" width="10" x="30.9946" y="36.7586"/>
    <rect height="10" width="10" x="66.8257" y="37.2827"/>
    <rect height="10" width="10" x="30.5518" y="67.3902"/>
    <rect height="10" width="10" x="50.2196" y="52.8035"/>
    <rect height="10" width="10" x="39.5206" y="71.0406"/>
    <rect height="10" width="10" x="87.0813" y="0.6385"/>
    <rect height="10" width="10" x="63.2045" y="2.7698"/>
    <rect height="10" width="10" x="53.5826" y="16.7197"/>
    <rect height="10" width="10" x="73.4516" y="45.9316"/>
    <rect height="10" width="10" x="81.5531" y="62.1882"/>
    <rect height="10" width="10" x="77.2797" y="45.1532"/>
    <rect height="10" width="10" x="86.0459" y="42.8255"/>
    <rect height="10" width="10" x="39.4506" y="61.8997"/>
    <rect height="10" width="10" x="58.7391" y="71.8176"/>
    <rect height="10" width="10" x="72.8349" y="112.1023"/>
    <rect height="10" width="10" x="53.446" y="2.9116"/>
    <rect height="10" width="10" x="52.8559" y="5.9449"/>
    <rect height="10" width="10" x="75.6286" y="19.3453"/>
    <rect height="10" width="10" x="86.9147" y="35.6089"/>
    <rect height="10" width="10" x="50.6754" y="18.3414"/>
    <rect height="10" width="10" x="50.7279" y="69.0065"/>
    <rect height="10" width="10" x="104.2397" y="51.6155"/>
    <rect height="10" width="10" x="37.8563" y="62.343"/>
    <rect height="10" width="10" x="111.7991" y="42.4197"/>
    <rect height="10" width="10" x="96.1483" y="131.0121"/>
    <rect height="10" width="10" x="79.8124" y="4.4856"/>
    <rect height="10" width="10" x="49.7673" y="13.0915"/>
    <rect height="10" width="10" x="41.2397" y="5.7261"/>
    <rect height="10" width="10" x="50.2479" y="37.0891"/>
    <rect height="10" width="10" x="77.4608" y="29.4416"/>
    <rect height="10" width="10" x="44.7867" y="73.6568"/>
    <rect height="10" width="10" x="113.0662" y="88.9533"/>
    <rect height="10" width="10" x="48.5158" y="61.4759"/>
    <rect height="10" width="10" x="139.0816" y="59.2713"/>
    <rect height="10" width="10" x="136.1663" y="93.4641"/>
  </svg>
  <svg baseProfile="tiny" fill="rgb(72,30,127)" height="400" stroke="black" stroke-opacity="1.0" stroke-width="0.5" version="1.2" width="400">
    <defs/>
    <rect height="10" width="15" x="0.0" y="0.0"/>
    <rect height="10" width="15" x="0.0" y="6.5172"/>
    <rect height="10" width="15" x="0.0" y="27.6339"/>
    <rect height="10" width="15" x="0.0" y="15.0918"/>
    <rect height="10" width="15" x="0.0" y="36.7789"/>
    <rect height="10" width="15" x="0.0" y="62.7869"/>
    <rect height="10" width="15" x="0.0" y="44.2723"/>
    <rect height="10" width="15" x="0.0" y="44.6098"/>
    <rect height="10" width="15" x="0.0" y="80.452"/>
    <rect height="10" width="15" x="0.0" y="122.3646"/>
    <rect height="10" width="15" x="14.655" y="0.3217"/>
    <rect height="10" width="15" x="11.0412" y="8.9364"/>
    <rect height="10" width="15" x="9.3744" y="12.4902"/>
    <rect height="10" width="15" x="5.9359" y="17.8651"/>
    <rect height="10" width="15" x="4.6986" y="38.2828"/>
    <rect height="10" width="15" x="13.1468" y="66.7774"/>
    <rect height="10" width="15" x="9.2528" y="56.4317"/>
    <rect height="10" width="15" x="15.0757" y="51.0174"/>
    <rect height="10" width="15" x="15.7347" y="102.4573"/>
    <rect height="10" width="15" x="16.7909" y="108.7635"/>
    <rect height="10" width="15" x="30.4608" y="-0.9556"/>
    <rect height="10" width="15" x="25.9673" y="7.1428"/>
    <rect height="10" width="15" x="33.0858" y="13.4017"/>
    <rect height="10" width="15" x="28.6658" y="37.6542"/>
    <rect height="10" width="15" x="12.9136" y="19.1873"/>
    <rect height="10" width="15" x="27.4836" y="30.7292"/>
    <rect height="10" width="15" x="29.7754" y="83.9516"/>
    <rect height="10" width="15" x="19.7854" y="65.81"/>
    <rect height="10" width="15" x="16.5242" y="63.7607"/>
    <rect height="10" width="15" x="30.8659" y="106.4407"/>
    <rect height="10" width="15" x="31.0231" y="-1.0185"/>
    <rect height="10" width="15" x="44.5288" y="8.6745"/>
    <rect height="10" width="15" x="27.5575" y="24.4107"/>
    <rect height="10" width="15" x="34.7887" y="24.9532"/>
    <rect height="10" width="15" x="12.4971" y="21.48"/>
    <rect height="10" width="15" x="17.3572" y="64.7114"/>
    <rect height="10" width="15" x="43.0188" y="61.0656"/>
    <rect height="10" width="15" x="11.9571" y="47.4718"/>
    <rect height="10" width="15" x="42.036" y="45.3394"/>
    <rect height="10" width="15" x="37.8099" y="120.1771"/>
    <rect height="10" width="15" x="28.2144" y="0.0355"/>
    <rect height="10" width="15" x="9.5159" y="5.163"/>
    <rect height="10" width="15" x="14.5932" y="21.8831"/>
    <rect height="10" width="15" x="22.3542" y="30.2217"/>
    <rect height="10" width="15" x="25.8844" y="26.4581"/>
    <rect height="10" width="15" x="19.7925" y="23.4728"/>
    <rect height="10" width="15" x="70.466" y="87.6434"/>
    <rect height="10" width="15" x="35.6421" y="36.8281"/>
    <rect height="10" width="15" x="44.5781" y="85.6419"/>
    <rect height="10" width="15" x="42.1057" y="58.3225"/>
    <rect height="10" width="15" x="40.9201" y="-0.0683"/>
    <rect height="10" width="15" x="89.3029" y="9.1526"/>
    <rect height="10" width="15" x="30.3142" y="22.5737"/>
    <rect height="10" width="15" x="12.9579" y="15.0998"/>
    <rect height="10" width="15" x="35.8831" y="20.0186"/>
    <rect height="10" width="15" x="35.5617" y="48.1365"/>
    <rect height="10" width="15" x="40.114" y="91.3491"/>
    <rect height="10" width="15" x="35.551" y="80.8095"/>
    <rect height="10" width="15" x="26.7431" y="89.2434"/>
    <rect height="10" width="15" x="89.9214" y="107.1387"/>
    <rect height="10" width="15" x="46.6537" y="2.9927"/>
    <rect height="10" width="15" x="74.1951" y="9.7122"/>
    <rect height="10" width="15" x="64.9463" y="28.7595"/>
    <rect height="10" width="15" x="60.8956" y="39.6978"/>
    <rect height="10" width="15" x="86.8314" y="38.1599"/>
    <rect height="10" width="15" x="59.58" y="45.9339"/>
    <rect height="10" width="15" x="75.2804" y="58.0707"/>
    <rect height="10" width="15" x="95.5666" y="71.7558"/>
    <rect height="10" width="15" x="16.4714" y="88.0659"/>
    <rect height="10" width="15" x="24.981" y="96.1064"/>
    <rect height="10" width="15" x="112.4293" y="-2.026"/>
    <rect height="10" width="15" x="56.707" y="3.0208"/>
    <rect height="10" width="15" x="16.8897" y="24.3269"/>
    <rect height="10" width="15" x="84.8373" y="45.1304"/>
    <rect height="10" width="15" x="47.6508" y="38.3556"/>
    <rect height="10" width="15" x="73.9847" y="42.5054"/>
    <rect height="10" width="15" x="125.3266" y="41.0986"/>
    <rect height="10" width="15" x="45.258" y="93.7324"/>
    <rect height="10" width="15" x="110.1421" y="104.706"/>
    <rect height="10" width="15" x="113.3276" y="66.637"/>
    <rect height="10" width="15" x="23.0869" y="2.1593"/>
    <rect height="10" width="15" x="135.7574" y="3.8666"/>
    <rect height="10" width="15" x="83.109" y="25.3457"/>
    <rect height="10" width="15" x="74.1399" y="30.8949"/>
    <rect height="10" width="15" x="67.6823" y="44.9493"/>
    <rect height="10" width="15" x="103.0936" y="58.7289"/>
    <rect height="10" width="15" x="17.7443" y="92.1914"/>
    <rect height="10" width="15" x="64.8007" y="41.2173"/>
    <rect height="10" width="15" x="52.4495" y="117.5358"/>
    <rect height="10" width="15" x="129.8643" y="49.3144"/>
    <rect height="10" width="15" x="37.0137" y="0.6857"/>
    <rect height="10" width="15" x="92.8251" y="7.005"/>
    <rect height="10" width="15" x="50.7998" y="27.833"/>
    <rect height="10" width="15" x="39.9101" y="20.9494"/>
    <rect height="10" width="15" x="120.659" y="27.4286"/>
    <rect height="10" width="15" x="113.444" y="35.4912"/>
    <rect height="10" width="15" x="75.883" y="87.7461"/>
    <rect height="10" width="15" x="83.5706" y="102.7608"/>
    <rect height="10" width="15" x="73.1463" y="55.7849"/>
    <rect height="10" width="15" x="51.7472" y="102.5248"/>
    <rect height="10" width="15" x="77.9667" y="-0.743"/>
    <rect height="10" width="15" x="43.9097" y="8.7503"/>
    <rect height="10" width="15" x="20.1035" y="23.0146"/>
    <rect height="10" width="15" x="172.2112" y="27.5647"/>
    <rect height="10" width="15" x="92.349" y="64.7252"/>
    <rect height="10" width="15" x="53.4487" y="51.5028"/>
    <rect height="10" width="15" x="134.6314" y="93.6284"/>
    <rect height="10" width="15" x="134.676" y="59.1122"/>
    <rect height="10" width="15" x="122.5992" y="81.6916"/>
    <rect height="10" width="15" x="83.4391" y="82.681"/>
    <rect height="10" width="15" x="52.4774" y="-1.2729"/>
    <rect height="10" width="15" x="45.3312" y="14.3794"/>
    <rect height="10" width="15" x="166.0194" y="6.3632"/>
    <rect height="10" width="15" x="169.3436" y="29.5187"/>
    <rect height="10" width="15" x="24.7643" y="44.8103"/>
    <rect height="10" width="15" x="122.2462" y="33.0707"/>
    <rect height="10" width="15" x="136.2927" y="59.9748"/>
    <rect height="10" width="15" x="46.5612" y="44.7386"/>
    <rect height="10" width="15" x="141.1283" y="65.4952"/>
    <rect height="10" width="15" x="122.5172" y="84.1433"/>
    <rect height="10" width="15" x="53.9729" y="2.4348"/>
    <rect height="10" width="15" x="57.1194" y="3.8518"/>
    <rect height="10" width="15" x="114.422" y="12.2952"/>
    <rect height="10" width="15" x="110.9823" y="44.1571"/>
    <rect height="10" width="15" x="203.7315" y="58.9916"/>
    <rect height="10" width="15" x="164.8579" y="23.9687"/>
    <rect height="10" width="15" x="54.6515" y="69.3793"/>
    <rect height="10" width="15" x="76.0806" y="104.8845"/>
    <rect height="10" width="15" x="194.8551" y="74.9678"/>
    <rect height="10" width="15" x="152.4201" y="50.4873"/>
    <rect height="10" width="15" x="136.1676" y="-2.6801"/>
    <rect height="10" width="15" x="177.6584" y="20.8353"/>
    <rect height="10" width="15" x="160.4731" y="12.9315"/>
    <rect height="10" width="15" x="58.2441" y="11.6891"/>
    <rect height="10" width="15" x="85.7557" y="51.1569"/>
    <rect height="10" width="15" x="145.8048" y="63.7028"/>
    <rect height="10" width="15" x="183.441" y="92.0439"/>
    <rect height="10" width="15" x="172.8737" y="107.1975"/>
    <rect height="10" width="15" x="150.0375" y="83.5759"/>
    <rect height="10" width="15" x="158.3739" y="106.644"/>
    <rect height="10" width="15" x="232.8387" y="-2.7479"/>
    <rect height="10" width="15" x="59.7046" y="2.9697"/>
    <rect height="10" width="15" x="230.3923" y="24.6714"/>
    <rect height="10" width="15" x="62.2507" y="21.4837"/>
    <rect height="10" width="15" x="166.5508" y="27.3529"/>
    <rect height="10" width="15" x="201.2234" y="42.7172"/>
    <rect height="10" width="15" x="107.2673" y="32.5345"/>
    <rect height="10" width="15" x="42.8353" y="39.5451"/>
    <rect height="10" width="15" x="53.2604" y="67.5259"/>
    <rect height="10" width="15" x="91.2507" y="105.6945"/>
  </svg>
  <svg baseProfile="tiny" fill="rgb(30,72,127)" height="400" stroke="black" stroke-opacity="1.0" stroke-width="0.5" version="1.2" width="400">
    <defs/>
    <rect height="10" width="15" x="400.0" y="400.0"/>
    <rect height="10" width="15" x="400.0" y="385.5362"/>
    <rect height="10" width="15" x="400.0" y="382.2641"/>
    <rect height="10" width="15" x="400.0" y="368.6379"/>
    <rect height="10" width="15" x="400.0" y="354.7279"/>
    <rect height="10" width="15" x="400.0" y="362.5983"/>
    <rect height="10" width="15" x="400.0" y="327.0265"/>
    <rect height="10" width="15" x="400.0" y="307.4144"/>
    <rect height="10" width="15" x="400.0" y="355.6553"/>
    <rect height="10" width="15" x="400.0" y="275.5937"/>
    <rect height="10" width="15" x="386.8439" y="399.5675"/>
    <rect height="10" width="15" x="387.6803" y="390.4935"/>
    <rect height="10" width="15" x="397.5365" y="374.3125"/>
    <rect height="10" width="15" x="388.6493" y="361.0554"/>
    <rect height="10" width="15" x="384.2852" y="343.3723"/>
    <rect height="10" width="15" x="393.7395" y="370.476"/>
    <rect height="10" width="15" x="391.9853" y="337.6101"/>
    <rect height="10" width="15" x="397.8993" y="338.2606"/>
    <rect height="10" width="15" x="390.6796" y="290.9638"/>
    <rect height="10" width="15" x="388.275" y="349.0686"/>
    <rect height="10" width="15" x="386.4099" y="400.4402"/>
    <rect height="10" width="15" x="379.3558" y="391.5857"/>
    <rect height="10" width="15" x="377.3557" y="384.4962"/>
    <rect height="10" width="15" x="395.055" y="377.3204"/>
    <rect height="10" width="15" x="373.487" y="351.3606"/>
    <rect height="10" width="15" x="391.9985" y="333.1725"/>
    <rect height="10" width="15" x="391.9679" y="328.2047"/>
    <rect height="10" width="15" x="375.0298" y="298.9947"/>
    <rect height="10" width="15" x="387.7799" y="289.337"/>
    <rect height="10" width="15" x="394.8027" y="342.9932"/>
    <rect height="10" width="15" x="350.9763" y="399.0866"/>
    <rect height="10" width="15" x="358.5074" y="383.5973"/>
    <rect height="10" width="15" x="363.8403" y="388.5534"/>
    <rect height="10" width="15" x="387.2811" y="378.1347"/>
    <rect height="10" width="15" x="382.8484" y="341.2407"/>
    <rect height="10" width="15" x="354.0985" y="340.4947"/>
    <rect height="10" width="15" x="361.6726" y="326.3533"/>
    <rect height="10" width="15" x="388.0444" y="363.2966"/>
    <rect height="10" width="15" x="365.4852" y="278.7801"/>
    <rect height="10" width="15" x="384.8049" y="290.322"/>
    <rect height="10" width="15" x="387.0172" y="401.462"/>
    <rect height="10" width="15" x="328.7597" y="393.5648"/>
    <rect height="10" width="15" x="372.7223" y="382.3567"/>
    <rect height="10" width="15" x="354.4465" y="355.6327"/>
    <rect height="10" width="15" x="383.6828" y="338.2526"/>
    <rect height="10" width="15" x="384.2246" y="345.4532"/>
    <rect height="10" width="15" x="389.0972" y="324.4993"/>
    <rect height="10" width="15" x="363.1965" y="312.8313"/>
    <rect height="10" width="15" x="354.8038" y="285.1511"/>
    <rect height="10" width="15" x="358.5463" y="350.1348"/>
    <rect height="10" width="15" x="336.125" y="401.2337"/>
    <rect height="10" width="15" x="378.3972" y="382.7445"/>
    <rect height="10" width="15" x="336.7221" y="377.3657"/>
    <rect height="10" width="15" x="364.9886" y="375.7061"/>
    <rect height="10" width="15" x="379.139" y="374.8506"/>
    <rect height="10" width="15" x="339.3647" y="324.2195"/>
    <rect height="10" width="15" x="386.3298" y="359.4189"/>
    <rect height="10" width="15" x="369.1763" y="310.5401"/>
    <rect height="10" width="15" x="321.9896" y="283.2053"/>
    <rect height="10" width="15" x="319.8737" y="275.1259"/>
    <rect height="10" width="15" x="302.9605" y="400.8562"/>
    <rect height="10" width="15" x="334.4099" y="392.472"/>
    <rect height="10" width="15" x="327.3473" y="385.8981"/>
    <rect height="10" width="15" x="332.8692" y="367.7669"/>
    <rect height="10" width="15" x="346.1651" y="350.869"/>
    <rect height="10" width="15" x="354.3016" y="370.7932"/>
    <rect height="10" width="15" x="343.4552" y="335.2298"/>
    <rect height="10" width="15" x="340.939" y="329.341"/>
    <rect height="10" width="15" x="304.8701" y="361.2108"/>
    <rect height="10" width="15" x="304.8328" y="348.4852"/>
    <rect height="10" width="15" x="361.8573" y="397.1233"/>
    <rect height="10" width="15" x="333.8037" y="387.6588"/>
    <rect height="10" width="15" x="305.4303" y="376.3971"/>
    <rect height="10" width="15" x="279.4933" y="377.9486"/>
    <rect height="10" width="15" x="337.9875" y="357.3946"/>
    <rect height="10" width="15" x="275.3901" y="339.523"/>
    <rect height="10" width="15" x="299.8234" y="335.1709"/>
    <rect height="10" width="15" x="290.4375" y="296.5605"/>
    <rect height="10" width="15" x="364.3182" y="353.369"/>
    <rect height="10" width="15" x="323.5948" y="324.6252"/>
    <rect height="10" width="15" x="342.1109" y="399.7712"/>
    <rect height="10" width="15" x="277.9122" y="390.1697"/>
    <rect height="10" width="15" x="293.0302" y="369.6141"/>
    <rect height="10" width="15" x="278.1725" y="367.7028"/>
    <rect height="10" width="15" x="287.6377" y="367.3423"/>
    <rect height="10" width="15" x="342.6604" y="329.4773"/>
    <rect height="10" width="15" x="321.0965" y="362.6445"/>
    <rect height="10" width="15" x="349.8826" y="333.9383"/>
    <rect height="10" width="15" x="324.5409" y="301.1027"/>
    <rect height="10" width="15" x="344.5368" y="332.7982"/>
    <rect height="10" width="15" x="287.3502" y="401.2436"/>
    <rect height="10" width="15" x="310.2168" y="390.1813"/>
    <rect height="10" width="15" x="326.6493" y="368.6791"/>
    <rect height="10" width="15" x="349.3965" y="381.1011"/>
    <rect height="10" width="15" x="369.9202" y="377.3226"/>
    <rect height="10" width="15" x="273.9504" y="378.3075"/>
    <rect height="10" width="15" x="297.5989" y="317.9142"/>
    <rect height="10" width="15" x="240.9313" y="310.9459"/>
    <rect height="10" width="15" x="259.3814" y="294.8958"/>
    <rect height="10" width="15" x="343.3874" y="309.9221"/>
    <rect height="10" width="15" x="306.809" y="395.3139"/>
    <rect height="10" width="15" x="315.1139" y="390.9282"/>
    <rect height="10" width="15" x="297.9029" y="379.1984"/>
    <rect height="10" width="15" x="264.382" y="356.0555"/>
    <rect height="10" width="15" x="254.7349" y="336.645"/>
    <rect height="10" width="15" x="268.5922" y="360.2815"/>
    <rect height="10" width="15" x="312.8154" y="331.9581"/>
    <rect height="10" width="15" x="221.3328" y="310.1915"/>
    <rect height="10" width="15" x="303.1766" y="305.3064"/>
    <rect height="10" width="15" x="378.1173" y="303.6198"/>
    <rect height="10" width="15" x="232.3248" y="405.4372"/>
    <rect height="10" width="15" x="277.003" y="380.1768"/>
    <rect height="10" width="15" x="332.1439" y="385.749"/>
    <rect height="10" width="15" x="305.3584" y="366.2476"/>
    <rect height="10" width="15" x="302.4356" y="360.8705"/>
    <rect height="10" width="15" x="304.0684" y="324.4799"/>
    <rect height="10" width="15" x="312.4722" y="341.512"/>
    <rect height="10" width="15" x="281.4524" y="329.252"/>
    <rect height="10" width="15" x="203.7755" y="355.1125"/>
    <rect height="10" width="15" x="236.7388" y="338.3266"/>
    <rect height="10" width="15" x="270.5893" y="398.0938"/>
    <rect height="10" width="15" x="355.2522" y="381.0569"/>
    <rect height="10" width="15" x="289.5382" y="393.6986"/>
    <rect height="10" width="15" x="290.7433" y="362.6747"/>
    <rect height="10" width="15" x="226.6302" y="342.7617"/>
    <rect height="10" width="15" x="184.5102" y="324.4227"/>
    <rect height="10" width="15" x="338.159" y="369.3968"/>
    <rect height="10" width="15" x="288.9735" y="348.5803"/>
    <rect height="10" width="15" x="326.7637" y="294.8828"/>
    <rect height="10" width="15" x="329.5732" y="265.514"/>
    <rect height="10" width="15" x="212.0046" y="400.8031"/>
    <rect height="10" width="15" x="299.731" y="380.5617"/>
    <rect height="10" width="15" x="321.5347" y="389.6551"/>
    <rect height="10" width="15" x="306.1873" y="383.3254"/>
    <rect height="10" width="15" x="285.511" y="375.3396"/>
    <rect height="10" width="15" x="243.9834" y="331.2942"/>
    <rect height="10" width="15" x="311.8524" y="332.9461"/>
    <rect height="10" width="15" x="341.1619" y="371.3746"/>
    <rect height="10" width="15" x="330.1607" y="295.6905"/>
    <rect height="10" width="15" x="341.3006" y="263.9294"/>
    <rect height="10" width="15" x="175.9585" y="394.5376"/>
    <rect height="10" width="15" x="216.8454" y="380.5224"/>
    <rect height="10" width="15" x="355.6584" y="383.0142"/>
    <rect height="10" width="15" x="188.5111" y="362.441"/>
    <rect height="10" width="15" x="290.8075" y="339.0206"/>
    <rect height="10" width="15" x="297.7347" y="352.5891"/>
    <rect height="10" width="15" x="308.9214" y="330.1909"/>
    <rect height="10" width="15" x="231.5444" y="328.0285"/>
    <rect height="10" width="15" x="237.1615" y="311.5054"/>
    <rect height="10" width="15" x="200.4739" y="263.5918"/>
    <text fill="#290" font-family="Arial" font-size="30px" font-weight="bold" stroke="none" x="70" y="325">complex origins</text>
  </svg>
</svg>
