<?xml version='1.0' encoding='ASCII' standalone='yes'?>
<svg xmlns="http://www.w3.org/2000/svg" xmlns:ev="http://www.w3.org/2001/xml-events" xmlns:xlink="http://www.w3.org/1999/xlink" baseProfile="tiny" fill="rgb(135,125,24)" height="400" stroke="black" stroke-opacity="1.0" stroke-width="0.5" version="1.2" width="400">
  <defs/>
  <rect height="10" width="10" x="0.0" y="0.0"/>
  <rect height="10" width="10" x="0.0" y="7.8448"/>
  <rect height="10" width="10" x="0.0" y="25.7022"/>
  <rect height="10" width="10" x="0.0" y="38.7186"/>
  <rect height="10" width="10" x="0.0" y="51.4216"/>
  <rect height="10" width="10" x="0.0" y="61.8013"/>
  <rect height="10" width="10" x="0.0" y="58.3205"/>
  <rect height="10" width="10" x="0.0" y="38.2459"/>
  <rect height="10" width="10" x="0.0" y="73.8783"/>
  <rect height="10" width="10" x="0.0" y="105.6501"/>
  <rect height="10" width="10" x="9.0057" y="-0.0685"/>
  <rect height="10" width="10" x="8.4575" y="6.6829"/>
  <rect height="10" width="10" x="14.1926" y="25.4065"/>
  <rect height="10" width="10" x="6.2994" y="34.5269"/>
  <rect height="10" width="10" x="8.7387" y="58.04"/>
  <rect height="10" width="10" x="12.4888" y="51.6554"/>
  <rect height="10" width="10" x="7.6251" y="45.382"/>
  <rect height="10" width="10" x="5.4089" y="85.9409"/>
  <rect height="10" width="10" x="14.6704" y="79.0689"/>
  <rect height="10" width="10" x="10.3124" y="103.2169"/>
  <rect height="10" width="10" x="13.2556" y="0.7413"/>
  <rect height="10" width="10" x="27.5809" y="13.2582"/>
  <rect height="10" width="10" x="14.7705" y="14.6405"/>
  <rect height="10" width="10" x="13.7688" y="30.7702"/>
  <rect height="10" width="10" x="23.7189" y="60.5924"/>
  <rect height="10" width="10" x="30.2202" y="58.1364"/>
  <rect height="10" width="10" x="28.9317" y="49.0543"/>
  <rect height="10" width="10" x="26.2088" y="80.6499"/>
  <rect height="10" width="10" x="15.9171" y="92.1523"/>
  <rect height="10" width="10" x="16.2462" y="71.5403"/>
  <rect height="10" width="10" x="32.4957" y="-0.1911"/>
  <rect height="10" width="10" x="17.6858" y="7.4448"/>
  <rect height="10" width="10" x="24.5432" y="22.0956"/>
  <rect height="10" width="10" x="25.0143" y="41.6578"/>
  <rect height="10" width="10" x="30.9163" y="35.784"/>
  <rect height="10" width="10" x="20.611" y="39.4743"/>
  <rect height="10" width="10" x="20.9204" y="66.47"/>
  <rect height="10" width="10" x="27.0726" y="91.8016"/>
  <rect height="10" width="10" x="34.6334" y="41.9012"/>
  <rect height="10" width="10" x="30.3016" y="109.0611"/>
  <rect height="10" width="10" x="47.824" y="1.0537"/>
  <rect height="10" width="10" x="52.463" y="16.8138"/>
  <rect height="10" width="10" x="53.476" y="26.8663"/>
  <rect height="10" width="10" x="44.5887" y="39.211"/>
  <rect height="10" width="10" x="54.4858" y="47.4275"/>
  <rect height="10" width="10" x="58.3655" y="43.0893"/>
  <rect height="10" width="10" x="25.2089" y="35.5626"/>
  <rect height="10" width="10" x="47.1604" y="49.7887"/>
  <rect height="10" width="10" x="51.8113" y="56.0045"/>
  <rect height="10" width="10" x="56.0185" y="136.5853"/>
  <rect height="10" width="10" x="58.5037" y="1.7576"/>
  <rect height="10" width="10" x="54.8957" y="9.6477"/>
  <rect height="10" width="10" x="35.0257" y="16.2038"/>
  <rect height="10" width="10" x="49.7431" y="30.9764"/>
  <rect height="10" width="10" x="68.4921" y="45.7869"/>
  <rect height="10" width="10" x="76.776" y="54.82"/>
  <rect height="10" width="10" x="27.8025" y="90.4321"/>
  <rect height="10" width="10" x="38.3054" y="55.8492"/>
  <rect height="10" width="10" x="28.3753" y="75.4766"/>
  <rect height="10" width="10" x="40.8301" y="126.7379"/>
  <rect height="10" width="10" x="57.1532" y="-1.7614"/>
  <rect height="10" width="10" x="28.4829" y="11.3293"/>
  <rect height="10" width="10" x="30.8329" y="18.0478"/>
  <rect height="10" width="10" x="69.1561" y="44.3699"/>
  <rect height="10" width="10" x="58.4197" y="41.8758"/>
  <rect height="10" width="10" x="29.1505" y="39.5948"/>
  <rect height="10" width="10" x="91.7505" y="83.1633"/>
  <rect height="10" width="10" x="69.0131" y="33.0042"/>
  <rect height="10" width="10" x="72.5688" y="48.7601"/>
  <rect height="10" width="10" x="66.5483" y="60.3"/>
  <rect height="10" width="10" x="52.2304" y="-1.8515"/>
  <rect height="10" width="10" x="105.0442" y="2.3813"/>
  <rect height="10" width="10" x="107.6722" y="15.7436"/>
  <rect height="10" width="10" x="48.0648" y="46.5093"/>
  <rect height="10" width="10" x="59.3788" y="56.0354"/>
  <rect height="10" width="10" x="82.9701" y="67.563"/>
  <rect height="10" width="10" x="82.1848" y="65.0065"/>
  <rect height="10" width="10" x="75.8563" y="102.8059"/>
  <rect height="10" width="10" x="40.9474" y="94.4346"/>
  <rect height="10" width="10" x="107.7385" y="134.0804"/>
  <rect height="10" width="10" x="61.4749" y="0.4382"/>
  <rect height="10" width="10" x="106.8227" y="7.7715"/>
  <rect height="10" width="10" x="117.787" y="7.1683"/>
  <rect height="10" width="10" x="94.5522" y="18.3174"/>
  <rect height="10" width="10" x="70.8565" y="37.1531"/>
  <rect height="10" width="10" x="70.931" y="68.4293"/>
  <rect height="10" width="10" x="122.5294" y="67.4089"/>
  <rect height="10" width="10" x="55.1082" y="44.0387"/>
  <rect height="10" width="10" x="120.6806" y="63.2609"/>
  <rect height="10" width="10" x="121.3476" y="111.4698"/>
  <rect height="10" width="10" x="64.7021" y="3.8423"/>
  <rect height="10" width="10" x="126.5359" y="1.5245"/>
  <rect height="10" width="10" x="85.1191" y="32.5524"/>
  <rect height="10" width="10" x="43.4922" y="10.6969"/>
  <rect height="10" width="10" x="66.7698" y="25.2526"/>
  <rect height="10" width="10" x="137.0313" y="29.6173"/>
  <rect height="10" width="10" x="103.737" y="39.1502"/>
  <rect height="10" width="10" x="59.5714" y="107.029"/>
  <rect height="10" width="10" x="92.8051" y="90.6698"/>
  <rect height="10" width="10" x="123.7919" y="90.8429"/>
  <svg baseProfile="tiny" fill="rgb(135,125,24)" height="400" stroke="black" stroke-opacity="1.0" stroke-width="0.5" version="1.2" width="400">
    <defs/>
    <rect height="10" width="10" x="0.0" y="0.0"/>
    <rect height="10" width="10" x="0.0" y="7.2588"/>
    <rect height="10" width="10" x="0.0" y="17.1858"/>
    <rect height="10" width="10" x="0.0" y="19.5965"/>
    <rect height="10" width="10" x="0.0" y="24.4336"/>
    <rect height="10" width="10" x="0.0" y="70.1299"/>
    <rect height="10" width="10" x="0.0" y="85.5778"/>
    <rect height="10" width="10" x="0.0" y="69.6819"/>
    <rect height="10" width="10" x="0.0" y="91.6683"/>
    <rect height="10" width="10" x="0.0" y="109.8504"/>
    <rect height="10" width="10" x="14.4431" y="0.472"/>
    <rect height="10" width="10" x="13.8542" y="13.6622"/>
    <rect height="10" width="10" x="8.8771" y="17.9289"/>
    <rect height="10" width="10" x="12.547" y="21.7344"/>
    <rect height="10" width="10" x="12.9321" y="44.778"/>
    <rect height="10" width="10" x="9.5045" y="51.1083"/>
    <rect height="10" width="10" x="9.1479" y="47.5216"/>
    <rect height="10" width="10" x="9.8516" y="39.2001"/>
    <rect height="10" width="10" x="5.2272" y="88.4878"/>
    <rect height="10" width="10" x="4.7702" y="117.1054"/>
    <rect height="10" width="10" x="18.3761" y="0.0165"/>
    <rect height="10" width="10" x="29.3856" y="5.2509"/>
    <rect height="10" width="10" x="17.9576" y="20.3769"/>
    <rect height="10" width="10" x="14.4149" y="29.6121"/>
    <rect height="10" width="10" x="21.9495" y="20.6716"/>
    <rect height="10" width="10" x="12.1656" y="33.0688"/>
    <rect height="10" width="10" x="26.8913" y="36.118"/>
    <rect height="10" width="10" x="30.9314" y="58.2431"/>
    <rect height="10" width="10" x="26.8808" y="96.5815"/>
    <rect height="10" width="10" x="20.5294" y="128.5248"/>
    <rect height="10" width="10" x="44.23" y="-0.7968"/>
    <rect height="10" width="10" x="22.672" y="7.7695"/>
    <rect height="10" width="10" x="45.4124" y="13.3839"/>
    <rect height="10" width="10" x="44.5979" y="24.9629"/>
    <rect height="10" width="10" x="25.4195" y="20.4518"/>
    <rect height="10" width="10" x="36.2715" y="44.8261"/>
    <rect height="10" width="10" x="33.9725" y="58.7803"/>
    <rect height="10" width="10" x="31.7169" y="33.6904"/>
    <rect height="10" width="10" x="26.84" y="43.2803"/>
    <rect height="10" width="10" x="15.0599" y="62.0123"/>
    <rect height="10" width="10" x="29.2073" y="-0.5291"/>
    <rect height="10" width="10" x="31.4578" y="8.5953"/>
    <rect height="10" width="10" x="24.605" y="12.999"/>
    <rect height="10" width="10" x="19.9504" y="44.2768"/>
    <rect height="10" width="10" x="25.751" y="31.457"/>
    <rect height="10" width="10" x="32.1226" y="34.7567"/>
    <rect height="10" width="10" x="28.0886" y="73.2435"/>
    <rect height="10" width="10" x="43.9892" y="71.9242"/>
    <rect height="10" width="10" x="28.4085" y="62.1243"/>
    <rect height="10" width="10" x="21.8288" y="65.6704"/>
    <rect height="10" width="10" x="63.6873" y="-1.4789"/>
    <rect height="10" width="10" x="42.8628" y="10.7956"/>
    <rect height="10" width="10" x="36.5506" y="29.5208"/>
    <rect height="10" width="10" x="32.3419" y="32.5796"/>
    <rect height="10" width="10" x="44.8622" y="54.144"/>
    <rect height="10" width="10" x="67.029" y="41.0479"/>
    <rect height="10" width="10" x="35.7635" y="43.1813"/>
    <rect height="10" width="10" x="31.8587" y="39.799"/>
    <rect height="10" width="10" x="67.7202" y="96.6948"/>
    <rect height="10" width="10" x="46.0179" y="51.9305"/>
    <rect height="10" width="10" x="49.9878" y="-1.6925"/>
    <rect height="10" width="10" x="63.4455" y="17.0186"/>
    <rect height="10" width="10" x="34.5132" y="8.6426"/>
    <rect height="10" width="10" x="62.0228" y="46.9263"/>
    <rect height="10" width="10" x="27.4772" y="57.7538"/>
    <rect height="10" width="10" x="58.4756" y="43.2677"/>
    <rect height="10" width="10" x="88.8993" y="40.0108"/>
    <rect height="10" width="10" x="46.7564" y="89.9185"/>
    <rect height="10" width="10" x="33.3987" y="78.4817"/>
    <rect height="10" width="10" x="91.8086" y="103.1124"/>
    <rect height="10" width="10" x="95.4193" y="-2.5815"/>
    <rect height="10" width="10" x="93.5629" y="11.076"/>
    <rect height="10" width="10" x="84.5108" y="26.5589"/>
    <rect height="10" width="10" x="38.4311" y="18.1973"/>
    <rect height="10" width="10" x="49.4378" y="36.7714"/>
    <rect height="10" width="10" x="57.071" y="65.9789"/>
    <rect height="10" width="10" x="58.6294" y="92.8581"/>
    <rect height="10" width="10" x="55.1525" y="59.0977"/>
    <rect height="10" width="10" x="85.61" y="36.7884"/>
    <rect height="10" width="10" x="42.8213" y="130.392"/>
    <rect height="10" width="10" x="36.9641" y="2.7915"/>
    <rect height="10" width="10" x="56.0124" y="2.4965"/>
    <rect height="10" width="10" x="56.5336" y="21.5854"/>
    <rect height="10" width="10" x="97.2079" y="39.3699"/>
    <rect height="10" width="10" x="53.4076" y="47.4499"/>
    <rect height="10" width="10" x="46.0725" y="27.9648"/>
    <rect height="10" width="10" x="114.4089" y="63.679"/>
    <rect height="10" width="10" x="90.4454" y="82.141"/>
    <rect height="10" width="10" x="43.5359" y="105.6388"/>
    <rect height="10" width="10" x="91.5957" y="89.0242"/>
    <rect height="10" width="10" x="89.9627" y="-2.3629"/>
    <rect height="10" width="10" x="85.6152" y="1.1925"/>
    <rect height="10" width="10" x="138.2797" y="19.3907"/>
    <rect height="10" width="10" x="110.4989" y="47.7609"/>
    <rect height="10" width="10" x="121.5486" y="29.947"/>
    <rect height="10" width="10" x="46.4048" y="31.0407"/>
    <rect height="10" width="10" x="50.4516" y="41.8155"/>
    <rect height="10" width="10" x="97.6518" y="80.6047"/>
    <rect height="10" width="10" x="115.1658" y="74.4383"/>
    <rect height="10" width="10" x="128.6599" y="84.1192"/>
  </svg>
  <svg baseProfile="tiny" fill="rgb(36,237,4)" height="400" stroke="black" stroke-opacity="1.0" stroke-width="0.5" version="1.2" width="400">
    <defs/>
    <rect height="10" width="15" x="0.0" y="0.0"/>
    <rect height="10" width="15" x="0.0" y="13.7744"/>
    <rect height="10" width="15" x="0.0" y="20.4301"/>
    <rect height="10" width="15" x="0.0" y="21.6571"/>
    <rect height="10" width="15" x="0.0" y="58.5379"/>
    <rect height="10" width="15" x="0.0" y="31.5982"/>
    <rect height="10" width="15" x="0.0" y="80.3068"/>
    <rect height="10" width="15" x="0.0" y="86.0281"/>
    <rect height="10" width="15" x="0.0" y="54.1637"/>
    <rect height="10" width="15" x="0.0" y="106.3116"/>
    <rect height="10" width="15" x="16.6195" y="0.1169"/>
    <rect height="10" width="15" x="2.285" y="7.562"/>
    <rect height="10" width="15" x="2.1785" y="30.0783"/>
    <rect height="10" width="15" x="17.0375" y="38.051"/>
    <rect height="10" width="15" x="17.4936" y="34.8538"/>
    <rect height="10" width="15" x="13.2699" y="59.3125"/>
    <rect height="10" width="15" x="15.1652" y="83.2517"/>
    <rect height="10" width="15" x="3.412" y="56.2302"/>
    <rect height="10" width="15" x="7.2131" y="86.8087"/>
    <rect height="10" width="15" x="2.7439" y="104.5644"/>
    <rect height="10" width="15" x="19.8604" y="0.9336"/>
    <rect height="10" width="15" x="27.9001" y="8.7088"/>
    <rect height="10" width="15" x="29.905" y="14.2168"/>
    <rect height="10" width="15" x="22.4259" y="33.9206"/>
    <rect height="10" width="15" x="21.4156" y="24.6013"/>
    <rect height="10" width="15" x="13.9612" y="52.2029"/>
    <rect height="10" width="15" x="20.0445" y="73.1895"/>
    <rect height="10" width="15" x="24.7825" y="104.9137"/>
    <rect height="10" width="15" x="13.9267" y="76.93"/>
    <rect height="10" width="15" x="35.5889" y="110.6374"/>
    <rect height="10" width="15" x="35.0736" y="-0.0277"/>
    <rect height="10" width="15" x="28.7316" y="9.1953"/>
    <rect height="10" width="15" x="25.4807" y="25.5015"/>
    <rect height="10" width="15" x="28.2909" y="21.659"/>
    <rect height="10" width="15" x="31.8447" y="28.4081"/>
    <rect height="10" width="15" x="52.5642" y="63.0599"/>
    <rect height="10" width="15" x="41.4026" y="41.0106"/>
    <rect height="10" width="15" x="20.5565" y="74.5324"/>
    <rect height="10" width="15" x="23.569" y="85.8273"/>
    <rect height="10" width="15" x="16.384" y="69.4891"/>
    <rect height="10" width="15" x="12.3384" y="0.3929"/>
    <rect height="10" width="15" x="68.8949" y="14.3971"/>
    <rect height="10" width="15" x="60.9977" y="20.0711"/>
    <rect height="10" width="15" x="16.4358" y="45.1484"/>
    <rect height="10" width="15" x="51.9887" y="53.7782"/>
    <rect height="10" width="15" x="37.2232" y="31.9673"/>
    <rect height="10" width="15" x="25.1548" y="64.8791"/>
    <rect height="10" width="15" x="8.1398" y="97.2964"/>
    <rect height="10" width="15" x="18.4529" y="109.2917"/>
    <rect height="10" width="15" x="23.9133" y="123.6123"/>
    <rect height="10" width="15" x="11.4995" y="-1.7015"/>
    <rect height="10" width="15" x="53.852" y="12.006"/>
    <rect height="10" width="15" x="58.4587" y="28.7369"/>
    <rect height="10" width="15" x="31.6031" y="24.6749"/>
    <rect height="10" width="15" x="18.6043" y="26.3092"/>
    <rect height="10" width="15" x="12.4429" y="62.8488"/>
    <rect height="10" width="15" x="74.4076" y="52.1179"/>
    <rect height="10" width="15" x="42.6501" y="72.8662"/>
    <rect height="10" width="15" x="19.0167" y="64.7489"/>
    <rect height="10" width="15" x="14.0604" y="58.5222"/>
    <rect height="10" width="15" x="16.8203" y="-1.1469"/>
    <rect height="10" width="15" x="24.4867" y="16.2048"/>
    <rect height="10" width="15" x="15.7045" y="23.9146"/>
    <rect height="10" width="15" x="40.3243" y="27.8818"/>
    <rect height="10" width="15" x="28.6724" y="30.8872"/>
    <rect height="10" width="15" x="24.2304" y="50.8791"/>
    <rect height="10" width="15" x="38.6669" y="73.3803"/>
    <rect height="10" width="15" x="12.1185" y="66.0298"/>
    <rect height="10" width="15" x="30.3204" y="49.5029"/>
    <rect height="10" width="15" x="21.756" y="133.4976"/>
    <rect height="10" width="15" x="94.0641" y="-1.8447"/>
    <rect height="10" width="15" x="31.3917" y="8.7696"/>
    <rect height="10" width="15" x="16.1011" y="26.7347"/>
    <rect height="10" width="15" x="101.9476" y="33.2786"/>
    <rect height="10" width="15" x="53.1899" y="27.2118"/>
    <rect height="10" width="15" x="35.7157" y="75.8848"/>
    <rect height="10" width="15" x="44.9792" y="73.3992"/>
    <rect height="10" width="15" x="92.3709" y="106.3176"/>
    <rect height="10" width="15" x="58.1956" y="112.7027"/>
    <rect height="10" width="15" x="83.6334" y="104.5578"/>
    <rect height="10" width="15" x="34.0824" y="-2.3111"/>
    <rect height="10" width="15" x="111.6649" y="17.7039"/>
    <rect height="10" width="15" x="36.1226" y="21.6792"/>
    <rect height="10" width="15" x="104.5526" y="16.7556"/>
    <rect height="10" width="15" x="47.0523" y="61.59"/>
    <rect height="10" width="15" x="22.3217" y="21.2666"/>
    <rect height="10" width="15" x="128.9283" y="66.1781"/>
    <rect height="10" width="15" x="103.8305" y="49.2373"/>
    <rect height="10" width="15" x="96.2298" y="55.1393"/>
    <rect height="10" width="15" x="48.0996" y="45.8701"/>
    <rect height="10" width="15" x="76.427" y="1.9991"/>
    <rect height="10" width="15" x="27.1897" y="6.6528"/>
    <rect height="10" width="15" x="47.872" y="27.59"/>
    <rect height="10" width="15" x="58.5756" y="48.797"/>
    <rect height="10" width="15" x="132.7575" y="46.6988"/>
    <rect height="10" width="15" x="33.6069" y="29.7999"/>
    <rect height="10" width="15" x="47.9516" y="33.0075"/>
    <rect height="10" width="15" x="56.9341" y="66.1219"/>
    <rect height="10" width="15" x="69.1076" y="40.08"/>
    <rect height="10" width="15" x="73.5286" y="120.39"/>
    <rect height="10" width="15" x="82.6225" y="-0.8294"/>
    <rect height="10" width="15" x="91.6183" y="11.2625"/>
    <rect height="10" width="15" x="179.8379" y="25.8989"/>
    <rect height="10" width="15" x="43.6114" y="17.3666"/>
    <rect height="10" width="15" x="169.3298" y="60.1412"/>
    <rect height="10" width="15" x="157.0046" y="29.5639"/>
    <rect height="10" width="15" x="21.1072" y="44.7147"/>
    <rect height="10" width="15" x="82.6862" y="42.0481"/>
    <rect height="10" width="15" x="178.2332" y="110.2733"/>
    <rect height="10" width="15" x="39.427" y="47.8643"/>
    <rect height="10" width="15" x="130.5653" y="1.3872"/>
    <rect height="10" width="15" x="82.804" y="1.0326"/>
    <rect height="10" width="15" x="104.2629" y="31.1111"/>
    <rect height="10" width="15" x="134.3883" y="23.8307"/>
    <rect height="10" width="15" x="139.1831" y="54.8563"/>
    <rect height="10" width="15" x="182.154" y="34.0856"/>
    <rect height="10" width="15" x="197.552" y="84.803"/>
    <rect height="10" width="15" x="160.7362" y="55.0996"/>
    <rect height="10" width="15" x="75.1795" y="46.108"/>
    <rect height="10" width="15" x="190.2466" y="40.2505"/>
    <rect height="10" width="15" x="61.2526" y="-5.69"/>
    <rect height="10" width="15" x="111.094" y="15.6703"/>
    <rect height="10" width="15" x="57.4941" y="21.5271"/>
    <rect height="10" width="15" x="134.1977" y="48.5445"/>
    <rect height="10" width="15" x="170.4453" y="41.7894"/>
    <rect height="10" width="15" x="111.5985" y="67.6522"/>
    <rect height="10" width="15" x="172.8319" y="65.415"/>
    <rect height="10" width="15" x="140.185" y="69.7039"/>
    <rect height="10" width="15" x="56.3155" y="123.6395"/>
    <rect height="10" width="15" x="30.2839" y="137.5824"/>
    <rect height="10" width="15" x="89.2227" y="0.599"/>
    <rect height="10" width="15" x="26.3665" y="0.5741"/>
    <rect height="10" width="15" x="164.0905" y="35.669"/>
    <rect height="10" width="15" x="67.6252" y="16.8934"/>
    <rect height="10" width="15" x="64.6138" y="56.9024"/>
    <rect height="10" width="15" x="98.0819" y="77.7885"/>
    <rect height="10" width="15" x="202.6272" y="78.649"/>
    <rect height="10" width="15" x="181.12" y="93.2109"/>
    <rect height="10" width="15" x="52.8105" y="71.0835"/>
    <rect height="10" width="15" x="51.1651" y="135.2349"/>
    <rect height="10" width="15" x="75.5438" y="-2.2773"/>
    <rect height="10" width="15" x="33.0126" y="11.6399"/>
    <rect height="10" width="15" x="206.1372" y="5.0745"/>
    <rect height="10" width="15" x="132.8411" y="33.9097"/>
    <rect height="10" width="15" x="76.9449" y="55.1926"/>
    <rect height="10" width="15" x="218.8276" y="62.1908"/>
    <rect height="10" width="15" x="249.9741" y="58.6629"/>
    <rect height="10" width="15" x="102.6118" y="88.2196"/>
    <rect height="10" width="15" x="209.5963" y="76.1558"/>
    <rect height="10" width="15" x="129.628" y="105.8025"/>
  </svg>
  <svg baseProfile="tiny" fill="rgb(237,36,4)" height="400" stroke="black" stroke-opacity="1.0" stroke-width="0.5" version="1.2" width="400">
    <defs/>
    <rect height="10" width="15" x="400.0" y="400.0"/>
    <rect height="10" width="15" x="400.0" y="390.4107"/>
    <rect height="10" width="15" x="400.0" y="380.2058"/>
    <rect height="10" width="15" x="400.0" y="371.0432"/>
    <rect height="10" width="15" x="400.0" y="367.891"/>
    <rect height="10" width="15" x="400.0" y="348.0383"/>
    <rect height="10" width="15" x="400.0" y="355.8336"/>
    <rect height="10" width="15" x="400.0" y="296.7772"/>
    <rect height="10" width="15" x="400.0" y="323.9796"/>
    <rect height="10" width="15" x="400.0" y="281.0836"/>
    <rect height="10" width="15" x="395.6137" y="400.4308"/>
    <rect height="10" width="15" x="385.2273" y="392.6215"/>
    <rect height="10" width="15" x="390.5017" y="379.2636"/>
    <rect height="10" width="15" x="388.3573" y="364.3515"/>
    <rect height="10" width="15" x="385.097" y="341.4039"/>
    <rect height="10" width="15" x="389.9587" y="347.0959"/>
    <rect height="10" width="15" x="382.6342" y="340.8942"/>
    <rect height="10" width="15" x="384.5259" y="359.4571"/>
    <rect height="10" width="15" x="390.8597" y="303.0888"/>
    <rect height="10" width="15" x="385.962" y="328.5896"/>
    <rect height="10" width="15" x="392.3011" y="399.6995"/>
    <rect height="10" width="15" x="386.7062" y="395.085"/>
    <rect height="10" width="15" x="386.6787" y="374.0698"/>
    <rect height="10" width="15" x="371.7682" y="378.3636"/>
    <rect height="10" width="15" x="385.2162" y="362.3706"/>
    <rect height="10" width="15" x="378.5842" y="344.2996"/>
    <rect height="10" width="15" x="376.6054" y="351.956"/>
    <rect height="10" width="15" x="377.9739" y="314.3729"/>
    <rect height="10" width="15" x="366.8911" y="350.5751"/>
    <rect height="10" width="15" x="390.9938" y="335.409"/>
    <rect height="10" width="15" x="369.783" y="399.9718"/>
    <rect height="10" width="15" x="388.0141" y="385.5303"/>
    <rect height="10" width="15" x="381.5989" y="375.2232"/>
    <rect height="10" width="15" x="369.1742" y="382.1816"/>
    <rect height="10" width="15" x="358.4161" y="340.7069"/>
    <rect height="10" width="15" x="381.6591" y="330.6649"/>
    <rect height="10" width="15" x="389.6609" y="363.9065"/>
    <rect height="10" width="15" x="393.1589" y="305.6135"/>
    <rect height="10" width="15" x="393.2708" y="280.294"/>
    <rect height="10" width="15" x="372.311" y="351.0713"/>
    <rect height="10" width="15" x="359.8268" y="400.3885"/>
    <rect height="10" width="15" x="376.1487" y="393.9611"/>
    <rect height="10" width="15" x="333.2574" y="374.451"/>
    <rect height="10" width="15" x="330.2718" y="380.2163"/>
    <rect height="10" width="15" x="361.9492" y="373.621"/>
    <rect height="10" width="15" x="361.4888" y="369.5169"/>
    <rect height="10" width="15" x="358.8388" y="309.1837"/>
    <rect height="10" width="15" x="378.4167" y="355.957"/>
    <rect height="10" width="15" x="367.4308" y="294.1112"/>
    <rect height="10" width="15" x="336.9611" y="301.9505"/>
    <rect height="10" width="15" x="372.2785" y="402.4931"/>
    <rect height="10" width="15" x="379.0098" y="384.3353"/>
    <rect height="10" width="15" x="324.1986" y="369.7775"/>
    <rect height="10" width="15" x="317.5346" y="383.9776"/>
    <rect height="10" width="15" x="317.3127" y="340.5498"/>
    <rect height="10" width="15" x="352.2634" y="377.4609"/>
    <rect height="10" width="15" x="336.7757" y="340.6383"/>
    <rect height="10" width="15" x="324.0097" y="311.472"/>
    <rect height="10" width="15" x="317.9776" y="300.8793"/>
    <rect height="10" width="15" x="321.1077" y="291.6773"/>
    <rect height="10" width="15" x="325.7695" y="402.6032"/>
    <rect height="10" width="15" x="376.0805" y="387.1244"/>
    <rect height="10" width="15" x="316.1635" y="384.733"/>
    <rect height="10" width="15" x="292.828" y="373.4949"/>
    <rect height="10" width="15" x="362.7928" y="359.2145"/>
    <rect height="10" width="15" x="371.9614" y="340.7493"/>
    <rect height="10" width="15" x="323.8159" y="327.6505"/>
    <rect height="10" width="15" x="315.951" y="332.3421"/>
    <rect height="10" width="15" x="334.3358" y="359.2955"/>
    <rect height="10" width="15" x="302.5257" y="269.9401"/>
    <rect height="10" width="15" x="353.184" y="397.6257"/>
    <rect height="10" width="15" x="280.0765" y="397.0853"/>
    <rect height="10" width="15" x="306.1882" y="381.4967"/>
    <rect height="10" width="15" x="310.9388" y="367.4686"/>
    <rect height="10" width="15" x="280.729" y="365.0975"/>
    <rect height="10" width="15" x="373.8536" y="348.5787"/>
    <rect height="10" width="15" x="275.4196" y="356.183"/>
    <rect height="10" width="15" x="304.5953" y="361.6593"/>
    <rect height="10" width="15" x="297.6301" y="329.3463"/>
    <rect height="10" width="15" x="285.7898" y="285.175"/>
    <rect height="10" width="15" x="259.5964" y="396.5345"/>
    <rect height="10" width="15" x="364.234" y="392.5195"/>
    <rect height="10" width="15" x="315.9461" y="376.6843"/>
    <rect height="10" width="15" x="352.9651" y="378.7976"/>
    <rect height="10" width="15" x="376.8561" y="370.2326"/>
    <rect height="10" width="15" x="332.7278" y="377.7385"/>
    <rect height="10" width="15" x="378.4607" y="350.6136"/>
    <rect height="10" width="15" x="346.9971" y="292.7271"/>
    <rect height="10" width="15" x="296.2369" y="357.6149"/>
    <rect height="10" width="15" x="372.2789" y="276.7443"/>
    <rect height="10" width="15" x="267.8751" y="403.4181"/>
    <rect height="10" width="15" x="338.1796" y="385.0465"/>
    <rect height="10" width="15" x="369.9565" y="377.5931"/>
    <rect height="10" width="15" x="334.1148" y="371.9688"/>
    <rect height="10" width="15" x="356.648" y="344.8105"/>
    <rect height="10" width="15" x="245.467" y="341.6332"/>
    <rect height="10" width="15" x="351.0759" y="316.1878"/>
    <rect height="10" width="15" x="321.0564" y="361.733"/>
    <rect height="10" width="15" x="360.027" y="362.8864"/>
    <rect height="10" width="15" x="367.8157" y="329.9666"/>
    <rect height="10" width="15" x="295.9852" y="401.2415"/>
    <rect height="10" width="15" x="314.9328" y="390.8604"/>
    <rect height="10" width="15" x="268.3104" y="367.7403"/>
    <rect height="10" width="15" x="229.9335" y="372.9103"/>
    <rect height="10" width="15" x="229.7495" y="384.835"/>
    <rect height="10" width="15" x="373.7599" y="362.8205"/>
    <rect height="10" width="15" x="367.8009" y="340.372"/>
    <rect height="10" width="15" x="237.4846" y="341.6741"/>
    <rect height="10" width="15" x="267.7296" y="313.7089"/>
    <rect height="10" width="15" x="279.0624" y="345.4402"/>
    <rect height="10" width="15" x="283.0557" y="396.086"/>
    <rect height="10" width="15" x="354.4828" y="380.885"/>
    <rect height="10" width="15" x="247.9381" y="382.6864"/>
    <rect height="10" width="15" x="359.4488" y="361.2756"/>
    <rect height="10" width="15" x="242.3147" y="365.9411"/>
    <rect height="10" width="15" x="232.2606" y="330.2531"/>
    <rect height="10" width="15" x="344.1295" y="372.5071"/>
    <rect height="10" width="15" x="280.2464" y="357.1274"/>
    <rect height="10" width="15" x="245.0697" y="298.5877"/>
    <rect height="10" width="15" x="263.9622" y="354.3257"/>
    <rect height="10" width="15" x="191.2506" y="397.2663"/>
    <rect height="10" width="15" x="208.37" y="387.5865"/>
    <rect height="10" width="15" x="293.0285" y="393.6597"/>
    <rect height="10" width="15" x="252.917" y="357.9083"/>
    <rect height="10" width="15" x="321.2427" y="374.0418"/>
    <rect height="10" width="15" x="243.9859" y="359.5223"/>
    <rect height="10" width="15" x="313.0066" y="329.3448"/>
    <rect height="10" width="15" x="290.9501" y="367.06"/>
    <rect height="10" width="15" x="208.1142" y="354.8596"/>
    <rect height="10" width="15" x="195.1435" y="329.8537"/>
    <rect height="10" width="15" x="251.217" y="402.9431"/>
    <rect height="10" width="15" x="283.0705" y="388.6949"/>
    <rect height="10" width="15" x="220.3504" y="388.0124"/>
    <rect height="10" width="15" x="223.1083" y="364.8954"/>
    <rect height="10" width="15" x="368.5045" y="338.0054"/>
    <rect height="10" width="15" x="259.5293" y="342.6439"/>
    <rect height="10" width="15" x="219.8203" y="346.4005"/>
    <rect height="10" width="15" x="366.4173" y="304.3581"/>
    <rect height="10" width="15" x="210.872" y="315.3825"/>
    <rect height="10" width="15" x="364.0782" y="305.2728"/>
    <rect height="10" width="15" x="337.0067" y="397.5013"/>
    <rect height="10" width="15" x="351.065" y="393.9007"/>
    <rect height="10" width="15" x="222.4247" y="382.1184"/>
    <rect height="10" width="15" x="351.9929" y="375.797"/>
    <rect height="10" width="15" x="166.5359" y="379.0538"/>
    <rect height="10" width="15" x="183.0713" y="349.3798"/>
    <rect height="10" width="15" x="310.0019" y="353.4652"/>
    <rect height="10" width="15" x="318.5325" y="303.8481"/>
    <rect height="10" width="15" x="212.6876" y="357.4815"/>
    <rect height="10" width="15" x="256.1206" y="278.0682"/>
    <text fill="#290" font-family="Arial" font-size="30px" font-weight="bold" stroke="none" x="70" y="325">complex origins</text>
  </svg>
</svg>
