<?xml version='1.0' encoding='ASCII' standalone='yes'?>
<svg xmlns="http://www.w3.org/2000/svg" xmlns:ev="http://www.w3.org/2001/xml-events" xmlns:xlink="http://www.w3.org/1999/xlink" baseProfile="tiny" fill="rgb(135,125,24)" height="400" stroke="black" stroke-opacity="1.0" stroke-width="0.5" version="1.2" width="400">
  <defs/>
  <rect height="10" width="10" x="0.0" y="0.0"/>
  <rect height="10" width="10" x="0.0" y="7.8448"/>
  <rect height="10" width="10" x="0.0" y="25.7022"/>
  <rect height="10" width="10" x="0.0" y="38.7186"/>
  <rect height="10" width="10" x="0.0" y="51.4216"/>
  <rect height="10" width="10" x="0.0" y="61.8013"/>
  <rect height="10" width="10" x="0.0" y="58.3205"/>
  <rect height="10" width="10" x="0.0" y="38.2459"/>
  <rect height="10" width="10" x="0.0" y="73.8783"/>
  <rect height="10" width="10" x="0.0" y="105.6501"/>
  <rect height="10" width="10" x="9.0057" y="-0.0685"/>
  <rect height="10" width="10" x="8.4575" y="6.6829"/>
  <rect height="10" width="10" x="14.1926" y="25.4065"/>
  <rect height="10" width="10" x="6.2994" y="34.5269"/>
  <rect height="10" width="10" x="8.7387" y="58.04"/>
  <rect height="10" width="10" x="12.4888" y="51.6554"/>
  <rect height="10" width="10" x="7.6251" y="45.382"/>
  <rect height="10" width="10" x="5.4089" y="85.9409"/>
  <rect height="10" width="10" x="14.6704" y="79.0689"/>
  <rect height="10" width="10" x="10.3124" y="103.2169"/>
  <rect height="10" width="10" x="13.2556" y="0.7413"/>
  <rect height="10" width="10" x="27.5809" y="13.2582"/>
  <rect height="10" width="10" x="14.7705" y="14.6405"/>
  <rect height="10" width="10" x="13.7688" y="30.7702"/>
  <rect height="10" width="10" x="23.7189" y="60.5924"/>
  <rect height="10" width="10" x="30.2202" y="58.1364"/>
  <rect height="10" width="10" x="28.9317" y="49.0543"/>
  <rect height="10" width="10" x="26.2088" y="80.6499"/>
  <rect height="10" width="10" x="15.9171" y="92.1523"/>
  <rect height="10" width="10" x="16.2462" y="71.5403"/>
  <rect height="10" width="10" x="32.4957" y="-0.1911"/>
  <rect height="10" width="10" x="17.6858" y="7.4448"/>
  <rect height="10" width="10" x="24.5432" y="22.0956"/>
  <rect height="10" width="10" x="25.0143" y="41.6578"/>
  <rect height="10" width="10" x="30.9163" y="35.784"/>
  <rect height="10" width="10" x="20.611" y="39.4743"/>
  <rect height="10" width="10" x="20.9204" y="66.47"/>
  <rect height="10" width="10" x="27.0726" y="91.8016"/>
  <rect height="10" width="10" x="34.6334" y="41.9012"/>
  <rect height="10" width="10" x="30.3016" y="109.0611"/>
  <rect height="10" width="10" x="47.824" y="1.0537"/>
  <rect height="10" width="10" x="52.463" y="16.8138"/>
  <rect height="10" width="10" x="53.476" y="26.8663"/>
  <rect height="10" width="10" x="44.5887" y="39.211"/>
  <rect height="10" width="10" x="54.4858" y="47.4275"/>
  <rect height="10" width="10" x="58.3655" y="43.0893"/>
  <rect height="10" width="10" x="25.2089" y="35.5626"/>
  <rect height="10" width="10" x="47.1604" y="49.7887"/>
  <rect height="10" width="10" x="51.8113" y="56.0045"/>
  <rect height="10" width="10" x="56.0185" y="136.5853"/>
  <rect height="10" width="10" x="58.5037" y="1.7576"/>
  <rect height="10" width="10" x="54.8957" y="9.6477"/>
  <rect height="10" width="10" x="35.0257" y="16.2038"/>
  <rect height="10" width="10" x="49.7431" y="30.9764"/>
  <rect height="10" width="10" x="68.4921" y="45.7869"/>
  <rect height="10" width="10" x="76.776" y="54.82"/>
  <rect height="10" width="10" x="27.8025" y="90.4321"/>
  <rect height="10" width="10" x="38.3054" y="55.8492"/>
  <rect height="10" width="10" x="28.3753" y="75.4766"/>
  <rect height="10" width="10" x="40.8301" y="126.7379"/>
  <rect height="10" width="10" x="57.1532" y="-1.7614"/>
  <rect height="10" width="10" x="28.4829" y="11.3293"/>
  <rect height="10" width="10" x="30.8329" y="18.0478"/>
  <rect height="10" width="10" x="69.1561" y="44.3699"/>
  <rect height="10" width="10" x="58.4197" y="41.8758"/>
  <rect height="10" width="10" x="29.1505" y="39.5948"/>
  <rect height="10" width="10" x="91.7505" y="83.1633"/>
  <rect height="10" width="10" x="69.0131" y="33.0042"/>
  <rect height="10" width="10" x="72.5688" y="48.7601"/>
  <rect height="10" width="10" x="66.5483" y="60.3"/>
  <rect height="10" width="10" x="52.2304" y="-1.8515"/>
  <rect height="10" width="10" x="105.0442" y="2.3813"/>
  <rect height="10" width="10" x="107.6722" y="15.7436"/>
  <rect height="10" width="10" x="48.0648" y="46.5093"/>
  <rect height="10" width="10" x="59.3788" y="56.0354"/>
  <rect height="10" width="10" x="82.9701" y="67.563"/>
  <rect height="10" width="10" x="82.1848" y="65.0065"/>
  <rect height="10" width="10" x="75.8563" y="102.8059"/>
  <rect height="10" width="10" x="40.9474" y="94.4346"/>
  <rect height="10" width="10" x="107.7385" y="134.0804"/>
  <rect height="10" width="10" x="61.4749" y="0.4382"/>
  <rect height="10" width="10" x="106.8227" y="7.7715"/>
  <rect height="10" width="10" x="117.787" y="7.1683"/>
  <rect height="10" width="10" x="94.5522" y="18.3174"/>
  <rect height="10" width="10" x="70.8565" y="37.1531"/>
  <rect height="10" width="10" x="70.931" y="68.4293"/>
  <rect height="10" width="10" x="122.5294" y="67.4089"/>
  <rect height="10" width="10" x="55.1082" y="44.0387"/>
  <rect height="10" width="10" x="120.6806" y="63.2609"/>
  <rect height="10" width="10" x="121.3476" y="111.4698"/>
  <rect height="10" width="10" x="64.7021" y="3.8423"/>
  <rect height="10" width="10" x="126.5359" y="1.5245"/>
  <rect height="10" width="10" x="85.1191" y="32.5524"/>
  <rect height="10" width="10" x="43.4922" y="10.6969"/>
  <rect height="10" width="10" x="66.7698" y="25.2526"/>
  <rect height="10" width="10" x="137.0313" y="29.6173"/>
  <rect height="10" width="10" x="103.737" y="39.1502"/>
  <rect height="10" width="10" x="59.5714" y="107.029"/>
  <rect height="10" width="10" x="92.8051" y="90.6698"/>
  <rect height="10" width="10" x="123.7919" y="90.8429"/>
  <svg baseProfile="tiny" fill="rgb(135,125,24)" height="400" stroke="black" stroke-opacity="1.0" stroke-width="0.5" version="1.2" width="400">
    <defs/>
    <rect height="10" width="10" x="0.0" y="0.0"/>
    <rect height="10" width="10" x="0.0" y="5.4461"/>
    <rect height="10" width="10" x="0.0" y="17.9488"/>
    <rect height="10" width="10" x="0.0" y="23.0652"/>
    <rect height="10" width="10" x="0.0" y="28.3194"/>
    <rect height="10" width="10" x="0.0" y="52.7052"/>
    <rect height="10" width="10" x="0.0" y="68.0487"/>
    <rect height="10" width="10" x="0.0" y="57.0842"/>
    <rect height="10" width="10" x="0.0" y="108.6062"/>
    <rect height="10" width="10" x="0.0" y="84.85"/>
    <rect height="10" width="10" x="14.1336" y="0.4033"/>
    <rect height="10" width="10" x="12.7852" y="7.6198"/>
    <rect height="10" width="10" x="11.968" y="10.5405"/>
    <rect height="10" width="10" x="8.2841" y="33.0119"/>
    <rect height="10" width="10" x="4.9611" y="58.527"/>
    <rect height="10" width="10" x="7.5367" y="34.3684"/>
    <rect height="10" width="10" x="5.161" y="36.6326"/>
    <rect height="10" width="10" x="7.2634" y="63.0966"/>
    <rect height="10" width="10" x="8.6338" y="70.463"/>
    <rect height="10" width="10" x="10.077" y="63.0787"/>
    <rect height="10" width="10" x="21.6579" y="-0.0096"/>
    <rect height="10" width="10" x="16.4761" y="5.148"/>
    <rect height="10" width="10" x="18.089" y="10.1235"/>
    <rect height="10" width="10" x="26.6929" y="45.0842"/>
    <rect height="10" width="10" x="12.9824" y="41.7858"/>
    <rect height="10" width="10" x="11.2336" y="31.906"/>
    <rect height="10" width="10" x="19.2064" y="80.2114"/>
    <rect height="10" width="10" x="13.4694" y="82.8394"/>
    <rect height="10" width="10" x="30.4391" y="101.0357"/>
    <rect height="10" width="10" x="29.0033" y="111.5498"/>
    <rect height="10" width="10" x="19.1682" y="0.2058"/>
    <rect height="10" width="10" x="29.9583" y="3.8347"/>
    <rect height="10" width="10" x="17.1815" y="30.6975"/>
    <rect height="10" width="10" x="34.534" y="16.6674"/>
    <rect height="10" width="10" x="37.9069" y="44.6303"/>
    <rect height="10" width="10" x="16.0685" y="60.0038"/>
    <rect height="10" width="10" x="39.1296" y="30.9289"/>
    <rect height="10" width="10" x="31.5521" y="61.1233"/>
    <rect height="10" width="10" x="39.6263" y="91.9244"/>
    <rect height="10" width="10" x="43.696" y="118.7634"/>
    <rect height="10" width="10" x="31.6766" y="1.8662"/>
    <rect height="10" width="10" x="42.9638" y="9.2006"/>
    <rect height="10" width="10" x="45.5591" y="25.1298"/>
    <rect height="10" width="10" x="33.8626" y="30.1726"/>
    <rect height="10" width="10" x="39.1118" y="38.1093"/>
    <rect height="10" width="10" x="53.3751" y="68.2238"/>
    <rect height="10" width="10" x="51.2754" y="73.7495"/>
    <rect height="10" width="10" x="33.0722" y="81.0895"/>
    <rect height="10" width="10" x="35.5246" y="83.4948"/>
    <rect height="10" width="10" x="20.4534" y="100.7777"/>
    <rect height="10" width="10" x="29.4409" y="-0.7266"/>
    <rect height="10" width="10" x="46.0248" y="3.6799"/>
    <rect height="10" width="10" x="48.756" y="16.0207"/>
    <rect height="10" width="10" x="32.2098" y="33.3168"/>
    <rect height="10" width="10" x="40.2393" y="61.7711"/>
    <rect height="10" width="10" x="23.3976" y="40.4745"/>
    <rect height="10" width="10" x="63.1197" y="80.6502"/>
    <rect height="10" width="10" x="41.6517" y="61.8824"/>
    <rect height="10" width="10" x="74.8437" y="121.5067"/>
    <rect height="10" width="10" x="28.9946" y="119.3356"/>
    <rect height="10" width="10" x="47.2876" y="1.1461"/>
    <rect height="10" width="10" x="39.6096" y="9.0257"/>
    <rect height="10" width="10" x="38.4375" y="20.9353"/>
    <rect height="10" width="10" x="92.6491" y="38.8961"/>
    <rect height="10" width="10" x="78.1233" y="60.3378"/>
    <rect height="10" width="10" x="49.6734" y="54.8903"/>
    <rect height="10" width="10" x="34.1554" y="58.0018"/>
    <rect height="10" width="10" x="56.0495" y="37.7763"/>
    <rect height="10" width="10" x="70.0681" y="60.6184"/>
    <rect height="10" width="10" x="53.33" y="78.9071"/>
    <rect height="10" width="10" x="60.8581" y="-3.3243"/>
    <rect height="10" width="10" x="45.2175" y="7.2792"/>
    <rect height="10" width="10" x="97.5725" y="18.053"/>
    <rect height="10" width="10" x="55.9791" y="38.9704"/>
    <rect height="10" width="10" x="53.0436" y="20.7343"/>
    <rect height="10" width="10" x="84.6061" y="67.6836"/>
    <rect height="10" width="10" x="76.4825" y="74.801"/>
    <rect height="10" width="10" x="94.3589" y="76.471"/>
    <rect height="10" width="10" x="36.1328" y="77.7595"/>
    <rect height="10" width="10" x="58.9755" y="118.9693"/>
    <rect height="10" width="10" x="36.8389" y="-1.6578"/>
    <rect height="10" width="10" x="51.0123" y="14.3336"/>
    <rect height="10" width="10" x="48.5468" y="31.7981"/>
    <rect height="10" width="10" x="61.0682" y="24.5921"/>
    <rect height="10" width="10" x="60.2795" y="33.9367"/>
    <rect height="10" width="10" x="59.1467" y="75.8418"/>
    <rect height="10" width="10" x="76.3076" y="77.8787"/>
    <rect height="10" width="10" x="36.6657" y="55.771"/>
    <rect height="10" width="10" x="61.9943" y="89.2526"/>
    <rect height="10" width="10" x="101.5708" y="116.5817"/>
    <rect height="10" width="10" x="114.6091" y="-4.2916"/>
    <rect height="10" width="10" x="89.4783" y="2.4511"/>
    <rect height="10" width="10" x="99.8972" y="13.7715"/>
    <rect height="10" width="10" x="116.4181" y="42.5274"/>
    <rect height="10" width="10" x="46.4242" y="43.9391"/>
    <rect height="10" width="10" x="69.6242" y="77.7979"/>
    <rect height="10" width="10" x="87.7337" y="61.9661"/>
    <rect height="10" width="10" x="50.9194" y="38.6457"/>
    <rect height="10" width="10" x="60.797" y="69.9087"/>
    <rect height="10" width="10" x="62.5803" y="87.2204"/>
  </svg>
  <svg baseProfile="tiny" fill="rgb(71,131,12)" height="400" stroke="black" stroke-opacity="1.0" stroke-width="0.5" version="1.2" width="400">
    <defs/>
    <rect height="10" width="15" x="0.0" y="0.0"/>
    <rect height="10" width="15" x="0.0" y="10.1006"/>
    <rect height="10" width="15" x="0.0" y="21.0911"/>
    <rect height="10" width="15" x="0.0" y="39.0997"/>
    <rect height="10" width="15" x="0.0" y="55.4514"/>
    <rect height="10" width="15" x="0.0" y="37.4972"/>
    <rect height="10" width="15" x="0.0" y="58.4164"/>
    <rect height="10" width="15" x="0.0" y="77.9239"/>
    <rect height="10" width="15" x="0.0" y="72.7919"/>
    <rect height="10" width="15" x="0.0" y="109.8734"/>
    <rect height="10" width="15" x="2.7697" y="-0.1005"/>
    <rect height="10" width="15" x="12.0572" y="4.6268"/>
    <rect height="10" width="15" x="5.7897" y="10.8802"/>
    <rect height="10" width="15" x="14.1676" y="38.2443"/>
    <rect height="10" width="15" x="15.9942" y="45.1861"/>
    <rect height="10" width="15" x="6.7289" y="31.893"/>
    <rect height="10" width="15" x="2.6099" y="70.7317"/>
    <rect height="10" width="15" x="6.107" y="47.1817"/>
    <rect height="10" width="15" x="12.3813" y="74.2052"/>
    <rect height="10" width="15" x="17.8119" y="46.6593"/>
    <rect height="10" width="15" x="16.292" y="0.2343"/>
    <rect height="10" width="15" x="21.6998" y="4.7596"/>
    <rect height="10" width="15" x="14.0202" y="9.1261"/>
    <rect height="10" width="15" x="33.2398" y="14.1535"/>
    <rect height="10" width="15" x="21.2994" y="44.5491"/>
    <rect height="10" width="15" x="5.4695" y="52.7329"/>
    <rect height="10" width="15" x="8.2438" y="81.6498"/>
    <rect height="10" width="15" x="34.9076" y="48.0879"/>
    <rect height="10" width="15" x="8.7429" y="89.5608"/>
    <rect height="10" width="15" x="15.4364" y="93.8755"/>
    <rect height="10" width="15" x="35.0441" y="-0.6686"/>
    <rect height="10" width="15" x="48.2804" y="5.7484"/>
    <rect height="10" width="15" x="53.1926" y="27.8663"/>
    <rect height="10" width="15" x="19.5597" y="29.8691"/>
    <rect height="10" width="15" x="28.3485" y="52.7248"/>
    <rect height="10" width="15" x="45.6416" y="63.7564"/>
    <rect height="10" width="15" x="32.5911" y="52.3602"/>
    <rect height="10" width="15" x="25.0452" y="62.1475"/>
    <rect height="10" width="15" x="31.136" y="39.4365"/>
    <rect height="10" width="15" x="49.2776" y="130.8726"/>
    <rect height="10" width="15" x="49.5038" y="-1.7237"/>
    <rect height="10" width="15" x="8.9861" y="12.9268"/>
    <rect height="10" width="15" x="39.92" y="9.1347"/>
    <rect height="10" width="15" x="25.7167" y="37.8567"/>
    <rect height="10" width="15" x="16.3147" y="20.681"/>
    <rect height="10" width="15" x="9.6584" y="72.556"/>
    <rect height="10" width="15" x="51.4246" y="76.5928"/>
    <rect height="10" width="15" x="69.4646" y="44.9787"/>
    <rect height="10" width="15" x="65.9971" y="53.2643"/>
    <rect height="10" width="15" x="60.2399" y="85.0378"/>
    <rect height="10" width="15" x="17.2837" y="1.1534"/>
    <rect height="10" width="15" x="20.8124" y="7.0488"/>
    <rect height="10" width="15" x="73.8752" y="14.0917"/>
    <rect height="10" width="15" x="17.648" y="33.6293"/>
    <rect height="10" width="15" x="36.2411" y="21.9659"/>
    <rect height="10" width="15" x="36.7451" y="44.7915"/>
    <rect height="10" width="15" x="33.5993" y="34.3077"/>
    <rect height="10" width="15" x="67.1202" y="73.7258"/>
    <rect height="10" width="15" x="20.1388" y="63.7053"/>
    <rect height="10" width="15" x="61.1094" y="47.5973"/>
    <rect height="10" width="15" x="33.9303" y="-0.9377"/>
    <rect height="10" width="15" x="16.2975" y="11.5313"/>
    <rect height="10" width="15" x="22.6996" y="26.2152"/>
    <rect height="10" width="15" x="60.8248" y="31.9013"/>
    <rect height="10" width="15" x="55.3435" y="35.8647"/>
    <rect height="10" width="15" x="87.8493" y="77.2571"/>
    <rect height="10" width="15" x="27.6752" y="47.5164"/>
    <rect height="10" width="15" x="48.1356" y="82.7923"/>
    <rect height="10" width="15" x="26.4979" y="80.1694"/>
    <rect height="10" width="15" x="74.4904" y="46.5981"/>
    <rect height="10" width="15" x="27.265" y="-2.8242"/>
    <rect height="10" width="15" x="100.5196" y="14.6863"/>
    <rect height="10" width="15" x="63.5891" y="15.4607"/>
    <rect height="10" width="15" x="115.3707" y="25.4648"/>
    <rect height="10" width="15" x="40.6234" y="31.6303"/>
    <rect height="10" width="15" x="90.2004" y="44.0574"/>
    <rect height="10" width="15" x="117.4928" y="80.7509"/>
    <rect height="10" width="15" x="77.4214" y="58.3652"/>
    <rect height="10" width="15" x="20.5118" y="58.3712"/>
    <rect height="10" width="15" x="17.1779" y="133.3323"/>
    <rect height="10" width="15" x="43.3413" y="1.8032"/>
    <rect height="10" width="15" x="137.307" y="7.6476"/>
    <rect height="10" width="15" x="75.6094" y="30.5208"/>
    <rect height="10" width="15" x="86.9581" y="14.9821"/>
    <rect height="10" width="15" x="33.3033" y="36.1433"/>
    <rect height="10" width="15" x="39.9747" y="41.6597"/>
    <rect height="10" width="15" x="143.0517" y="32.2603"/>
    <rect height="10" width="15" x="61.8452" y="51.4647"/>
    <rect height="10" width="15" x="34.9044" y="92.0043"/>
    <rect height="10" width="15" x="136.9971" y="138.1507"/>
    <rect height="10" width="15" x="140.0574" y="-3.2108"/>
    <rect height="10" width="15" x="81.6948" y="18.5038"/>
    <rect height="10" width="15" x="57.2611" y="17.3141"/>
    <rect height="10" width="15" x="96.7836" y="47.3078"/>
    <rect height="10" width="15" x="106.4243" y="58.4819"/>
    <rect height="10" width="15" x="36.1274" y="78.2562"/>
    <rect height="10" width="15" x="102.28" y="50.212"/>
    <rect height="10" width="15" x="73.3592" y="74.5881"/>
    <rect height="10" width="15" x="43.9932" y="101.5283"/>
    <rect height="10" width="15" x="107.2104" y="124.3383"/>
    <rect height="10" width="15" x="60.2486" y="4.3287"/>
    <rect height="10" width="15" x="134.4056" y="11.2679"/>
    <rect height="10" width="15" x="29.0545" y="28.7313"/>
    <rect height="10" width="15" x="98.5755" y="44.2384"/>
    <rect height="10" width="15" x="171.5148" y="16.284"/>
    <rect height="10" width="15" x="33.4355" y="26.6244"/>
    <rect height="10" width="15" x="115.751" y="42.769"/>
    <rect height="10" width="15" x="73.7577" y="47.4391"/>
    <rect height="10" width="15" x="175.8351" y="111.0771"/>
    <rect height="10" width="15" x="173.9699" y="61.2368"/>
    <rect height="10" width="15" x="31.484" y="5.1418"/>
    <rect height="10" width="15" x="24.6154" y="16.87"/>
    <rect height="10" width="15" x="67.8001" y="25.8733"/>
    <rect height="10" width="15" x="23.1508" y="21.5711"/>
    <rect height="10" width="15" x="165.1759" y="37.0589"/>
    <rect height="10" width="15" x="153.6419" y="73.1938"/>
    <rect height="10" width="15" x="23.7073" y="52.6481"/>
    <rect height="10" width="15" x="174.5626" y="84.4438"/>
    <rect height="10" width="15" x="94.7646" y="52.0015"/>
    <rect height="10" width="15" x="58.7949" y="63.8383"/>
    <rect height="10" width="15" x="28.0995" y="-3.2423"/>
    <rect height="10" width="15" x="136.8373" y="12.3236"/>
    <rect height="10" width="15" x="191.3701" y="28.5144"/>
    <rect height="10" width="15" x="53.8686" y="14.543"/>
    <rect height="10" width="15" x="135.4654" y="56.5362"/>
    <rect height="10" width="15" x="139.5025" y="54.5091"/>
    <rect height="10" width="15" x="102.2737" y="80.3185"/>
    <rect height="10" width="15" x="207.7699" y="31.9648"/>
    <rect height="10" width="15" x="104.5034" y="80.5822"/>
    <rect height="10" width="15" x="201.2427" y="137.169"/>
    <rect height="10" width="15" x="139.2026" y="-1.2761"/>
    <rect height="10" width="15" x="140.3461" y="16.9886"/>
    <rect height="10" width="15" x="151.1059" y="20.2209"/>
    <rect height="10" width="15" x="138.6837" y="48.0695"/>
    <rect height="10" width="15" x="75.0836" y="38.1302"/>
    <rect height="10" width="15" x="121.4446" y="55.5955"/>
    <rect height="10" width="15" x="171.3607" y="45.741"/>
    <rect height="10" width="15" x="215.672" y="104.4381"/>
    <rect height="10" width="15" x="87.7497" y="110.9022"/>
    <rect height="10" width="15" x="71.0695" y="56.5568"/>
    <rect height="10" width="15" x="90.3709" y="-6.9872"/>
    <rect height="10" width="15" x="158.595" y="17.6461"/>
    <rect height="10" width="15" x="148.1471" y="7.48"/>
    <rect height="10" width="15" x="46.9396" y="37.9408"/>
    <rect height="10" width="15" x="50.9763" y="64.4435"/>
    <rect height="10" width="15" x="133.8267" y="30.6013"/>
    <rect height="10" width="15" x="241.2869" y="73.0472"/>
    <rect height="10" width="15" x="158.9756" y="85.2204"/>
    <rect height="10" width="15" x="153.3809" y="121.432"/>
    <rect height="10" width="15" x="163.9206" y="129.4658"/>
  </svg>
  <svg baseProfile="tiny" fill="rgb(131,71,12)" height="400" stroke="black" stroke-opacity="1.0" stroke-width="0.5" version="1.2" width="400">
    <defs/>
    <rect height="10" width="15" x="400.0" y="400.0"/>
    <rect height="10" width="15" x="400.0" y="391.2735"/>
    <rect height="10" width="15" x="400.0" y="377.0997"/>
    <rect height="10" width="15" x="400.0" y="367.4551"/>
    <rect height="10" width="15" x="400.0" y="373.3884"/>
    <rect height="10" width="15" x="400.0" y="328.0564"/>
    <rect height="10" width="15" x="400.0" y="312.8739"/>
    <rect height="10" width="15" x="400.0" y="328.0444"/>
    <rect height="10" width="15" x="400.0" y="288.2895"/>
    <rect height="10" width="15" x="400.0" y="298.2649"/>
    <rect height="10" width="15" x="394.8758" y="400.0221"/>
    <rect height="10" width="15" x="388.3084" y="385.2838"/>
    <rect height="10" width="15" x="389.9395" y="371.5046"/>
    <rect height="10" width="15" x="391.6593" y="359.5391"/>
    <rect height="10" width="15" x="397.4527" y="374.905"/>
    <rect height="10" width="15" x="382.2246" y="346.3679"/>
    <rect height="10" width="15" x="388.6134" y="357.9477"/>
    <rect height="10" width="15" x="390.1074" y="304.0714"/>
    <rect height="10" width="15" x="395.0149" y="292.3849"/>
    <rect height="10" width="15" x="389.1876" y="338.7131"/>
    <rect height="10" width="15" x="388.8976" y="399.7978"/>
    <rect height="10" width="15" x="381.2273" y="385.3865"/>
    <rect height="10" width="15" x="395.861" y="381.2974"/>
    <rect height="10" width="15" x="371.4825" y="378.6951"/>
    <rect height="10" width="15" x="383.4314" y="355.6534"/>
    <rect height="10" width="15" x="383.7943" y="358.0642"/>
    <rect height="10" width="15" x="379.026" y="315.9906"/>
    <rect height="10" width="15" x="389.4586" y="298.7239"/>
    <rect height="10" width="15" x="390.2031" y="289.1021"/>
    <rect height="10" width="15" x="392.292" y="323.2618"/>
    <rect height="10" width="15" x="369.3068" y="401.4071"/>
    <rect height="10" width="15" x="388.484" y="388.3123"/>
    <rect height="10" width="15" x="386.4729" y="373.0195"/>
    <rect height="10" width="15" x="368.3604" y="378.9229"/>
    <rect height="10" width="15" x="387.836" y="358.9128"/>
    <rect height="10" width="15" x="365.8844" y="363.4796"/>
    <rect height="10" width="15" x="379.3813" y="361.9346"/>
    <rect height="10" width="15" x="386.5516" y="345.9204"/>
    <rect height="10" width="15" x="384.102" y="318.4081"/>
    <rect height="10" width="15" x="352.1441" y="278.2961"/>
    <rect height="10" width="15" x="329.2274" y="401.0346"/>
    <rect height="10" width="15" x="362.4986" y="395.0943"/>
    <rect height="10" width="15" x="335.7853" y="377.0919"/>
    <rect height="10" width="15" x="368.2597" y="375.3224"/>
    <rect height="10" width="15" x="387.6157" y="375.3422"/>
    <rect height="10" width="15" x="333.3734" y="326.9503"/>
    <rect height="10" width="15" x="352.5358" y="339.1556"/>
    <rect height="10" width="15" x="330.7918" y="331.356"/>
    <rect height="10" width="15" x="353.1685" y="347.1174"/>
    <rect height="10" width="15" x="357.9916" y="293.6028"/>
    <rect height="10" width="15" x="363.5906" y="399.0062"/>
    <rect height="10" width="15" x="335.223" y="394.3734"/>
    <rect height="10" width="15" x="371.2194" y="372.6059"/>
    <rect height="10" width="15" x="354.1361" y="353.4853"/>
    <rect height="10" width="15" x="330.1026" y="371.0915"/>
    <rect height="10" width="15" x="348.991" y="342.3971"/>
    <rect height="10" width="15" x="330.8666" y="316.5552"/>
    <rect height="10" width="15" x="342.5413" y="316.849"/>
    <rect height="10" width="15" x="379.1408" y="355.8379"/>
    <rect height="10" width="15" x="355.5118" y="321.4702"/>
    <rect height="10" width="15" x="321.1983" y="402.1118"/>
    <rect height="10" width="15" x="333.4354" y="395.1919"/>
    <rect height="10" width="15" x="336.2601" y="392.0071"/>
    <rect height="10" width="15" x="309.6477" y="354.5797"/>
    <rect height="10" width="15" x="324.6596" y="355.6448"/>
    <rect height="10" width="15" x="315.3457" y="342.569"/>
    <rect height="10" width="15" x="309.7067" y="365.4367"/>
    <rect height="10" width="15" x="298.7317" y="363.3879"/>
    <rect height="10" width="15" x="357.0113" y="301.1703"/>
    <rect height="10" width="15" x="338.3794" y="342.3842"/>
    <rect height="10" width="15" x="330.4787" y="403.0622"/>
    <rect height="10" width="15" x="361.2079" y="385.0844"/>
    <rect height="10" width="15" x="354.9785" y="387.8634"/>
    <rect height="10" width="15" x="339.5029" y="353.0671"/>
    <rect height="10" width="15" x="278.6807" y="356.3445"/>
    <rect height="10" width="15" x="285.9425" y="364.1133"/>
    <rect height="10" width="15" x="321.0366" y="326.9662"/>
    <rect height="10" width="15" x="366.2856" y="343.2645"/>
    <rect height="10" width="15" x="351.7529" y="316.6027"/>
    <rect height="10" width="15" x="333.0766" y="313.4996"/>
    <rect height="10" width="15" x="382.284" y="398.0961"/>
    <rect height="10" width="15" x="375.9243" y="389.1565"/>
    <rect height="10" width="15" x="291.8963" y="369.2351"/>
    <rect height="10" width="15" x="353.6956" y="364.1147"/>
    <rect height="10" width="15" x="337.7073" y="348.0686"/>
    <rect height="10" width="15" x="276.3457" y="340.3232"/>
    <rect height="10" width="15" x="301.2633" y="324.6149"/>
    <rect height="10" width="15" x="296.2967" y="346.2249"/>
    <rect height="10" width="15" x="264.2524" y="331.9113"/>
    <rect height="10" width="15" x="317.6096" y="296.576"/>
    <rect height="10" width="15" x="311.2181" y="402.1095"/>
    <rect height="10" width="15" x="286.8115" y="381.3636"/>
    <rect height="10" width="15" x="376.2827" y="387.3632"/>
    <rect height="10" width="15" x="344.2961" y="386.4854"/>
    <rect height="10" width="15" x="356.3694" y="351.1705"/>
    <rect height="10" width="15" x="253.4781" y="369.8719"/>
    <rect height="10" width="15" x="298.2903" y="362.0059"/>
    <rect height="10" width="15" x="300.0939" y="302.1743"/>
    <rect height="10" width="15" x="245.038" y="311.921"/>
    <rect height="10" width="15" x="380.9432" y="342.2613"/>
    <rect height="10" width="15" x="295.8951" y="395.7694"/>
    <rect height="10" width="15" x="347.5474" y="391.6062"/>
    <rect height="10" width="15" x="292.5112" y="394.7288"/>
    <rect height="10" width="15" x="325.7694" y="371.8379"/>
    <rect height="10" width="15" x="278.4268" y="369.9161"/>
    <rect height="10" width="15" x="335.7007" y="379.4398"/>
    <rect height="10" width="15" x="352.2242" y="318.3125"/>
    <rect height="10" width="15" x="334.2233" y="305.8541"/>
    <rect height="10" width="15" x="282.5478" y="327.9124"/>
    <rect height="10" width="15" x="301.9286" y="318.884"/>
    <rect height="10" width="15" x="313.8041" y="404.3776"/>
    <rect height="10" width="15" x="367.6011" y="394.4952"/>
    <rect height="10" width="15" x="238.1745" y="371.1407"/>
    <rect height="10" width="15" x="341.2699" y="362.4841"/>
    <rect height="10" width="15" x="229.2249" y="362.6803"/>
    <rect height="10" width="15" x="323.4745" y="323.6529"/>
    <rect height="10" width="15" x="363.9558" y="332.696"/>
    <rect height="10" width="15" x="210.6859" y="296.6364"/>
    <rect height="10" width="15" x="333.8728" y="347.6256"/>
    <rect height="10" width="15" x="263.5179" y="280.6732"/>
    <rect height="10" width="15" x="333.3766" y="400.4124"/>
    <rect height="10" width="15" x="296.3222" y="387.8661"/>
    <rect height="10" width="15" x="361.0769" y="377.97"/>
    <rect height="10" width="15" x="328.467" y="370.5587"/>
    <rect height="10" width="15" x="309.9415" y="338.0327"/>
    <rect height="10" width="15" x="354.7382" y="320.2684"/>
    <rect height="10" width="15" x="270.5569" y="351.1339"/>
    <rect height="10" width="15" x="266.5671" y="344.1085"/>
    <rect height="10" width="15" x="241.4975" y="300.5446"/>
    <rect height="10" width="15" x="235.1592" y="260.4816"/>
    <rect height="10" width="15" x="354.2232" y="400.5324"/>
    <rect height="10" width="15" x="194.705" y="399.0983"/>
    <rect height="10" width="15" x="264.9181" y="373.4175"/>
    <rect height="10" width="15" x="239.8071" y="377.5358"/>
    <rect height="10" width="15" x="363.9887" y="344.0418"/>
    <rect height="10" width="15" x="197.4681" y="345.4281"/>
    <rect height="10" width="15" x="352.7765" y="339.268"/>
    <rect height="10" width="15" x="224.7955" y="324.3616"/>
    <rect height="10" width="15" x="281.2058" y="316.4252"/>
    <rect height="10" width="15" x="296.1651" y="263.8712"/>
    <rect height="10" width="15" x="165.7068" y="397.7837"/>
    <rect height="10" width="15" x="367.4622" y="394.1017"/>
    <rect height="10" width="15" x="270.7411" y="367.8479"/>
    <rect height="10" width="15" x="297.332" y="366.6634"/>
    <rect height="10" width="15" x="199.2384" y="372.3476"/>
    <rect height="10" width="15" x="277.9337" y="324.7817"/>
    <rect height="10" width="15" x="322.3914" y="346.4045"/>
    <rect height="10" width="15" x="169.3041" y="306.2544"/>
    <rect height="10" width="15" x="148.756" y="328.5823"/>
    <rect height="10" width="15" x="369.8331" y="361.6878"/>
    <text fill="#290" font-family="Arial" font-size="30px" font-weight="bold" stroke="none" x="70" y="325">complex origins</text>
  </svg>
</svg>
