<?xml version="1.0" encoding="utf-8" ?>
<svg baseProfile="tiny" fill="rgb(135,125,24)" height="400" stroke="black" stroke-opacity="1.0" stroke-width="0.5" version="1.2" width="400" xmlns="http://www.w3.org/2000/svg" xmlns:ev="http://www.w3.org/2001/xml-events" xmlns:xlink="http://www.w3.org/1999/xlink"><defs /><rect height="10" width="10" x="0.0" y="0.0" /><rect height="10" width="10" x="0.0" y="7.8448" /><rect height="10" width="10" x="0.0" y="25.7022" /><rect height="10" width="10" x="0.0" y="38.7186" /><rect height="10" width="10" x="0.0" y="51.4216" /><rect height="10" width="10" x="0.0" y="61.8013" /><rect height="10" width="10" x="0.0" y="58.3205" /><rect height="10" width="10" x="0.0" y="38.2459" /><rect height="10" width="10" x="0.0" y="73.8783" /><rect height="10" width="10" x="0.0" y="105.6501" /><rect height="10" width="10" x="9.0057" y="-0.0685" /><rect height="10" width="10" x="8.4575" y="6.6829" /><rect height="10" width="10" x="14.1926" y="25.4065" /><rect height="10" width="10" x="6.2994" y="34.5269" /><rect height="10" width="10" x="8.7387" y="58.04" /><rect height="10" width="10" x="12.4888" y="51.6554" /><rect height="10" width="10" x="7.6251" y="45.382" /><rect height="10" width="10" x="5.4089" y="85.9409" /><rect height="10" width="10" x="14.6704" y="79.0689" /><rect height="10" width="10" x="10.3124" y="103.2169" /><rect height="10" width="10" x="13.2556" y="0.7413" /><rect height="10" width="10" x="27.5809" y="13.2582" /><rect height="10" width="10" x="14.7705" y="14.6405" /><rect height="10" width="10" x="13.7688" y="30.7702" /><rect height="10" width="10" x="23.7189" y="60.5924" /><rect height="10" width="10" x="30.2202" y="58.1364" /><rect height="10" width="10" x="28.9317" y="49.0543" /><rect height="10" width="10" x="26.2088" y="80.6499" /><rect height="10" width="10" x="15.9171" y="92.1523" /><rect height="10" width="10" x="16.2462" y="71.5403" /><rect height="10" width="10" x="32.4957" y="-0.1911" /><rect height="10" width="10" x="17.6858" y="7.4448" /><rect height="10" width="10" x="24.5432" y="22.0956" /><rect height="10" width="10" x="25.0143" y="41.6578" /><rect height="10" width="10" x="30.9163" y="35.784" /><rect height="10" width="10" x="20.611" y="39.4743" /><rect height="10" width="10" x="20.9204" y="66.47" /><rect height="10" width="10" x="27.0726" y="91.8016" /><rect height="10" width="10" x="34.6334" y="41.9012" /><rect height="10" width="10" x="30.3016" y="109.0611" /><rect height="10" width="10" x="47.824" y="1.0537" /><rect height="10" width="10" x="52.463" y="16.8138" /><rect height="10" width="10" x="53.476" y="26.8663" /><rect height="10" width="10" x="44.5887" y="39.211" /><rect height="10" width="10" x="54.4858" y="47.4275" /><rect height="10" width="10" x="58.3655" y="43.0893" /><rect height="10" width="10" x="25.2089" y="35.5626" /><rect height="10" width="10" x="47.1604" y="49.7887" /><rect height="10" width="10" x="51.8113" y="56.0045" /><rect height="10" width="10" x="56.0185" y="136.5853" /><rect height="10" width="10" x="58.5037" y="1.7576" /><rect height="10" width="10" x="54.8957" y="9.6477" /><rect height="10" width="10" x="35.0257" y="16.2038" /><rect height="10" width="10" x="49.7431" y="30.9764" /><rect height="10" width="10" x="68.4921" y="45.7869" /><rect height="10" width="10" x="76.776" y="54.82" /><rect height="10" width="10" x="27.8025" y="90.4321" /><rect height="10" width="10" x="38.3054" y="55.8492" /><rect height="10" width="10" x="28.3753" y="75.4766" /><rect height="10" width="10" x="40.8301" y="126.7379" /><rect height="10" width="10" x="57.1532" y="-1.7614" /><rect height="10" width="10" x="28.4829" y="11.3293" /><rect height="10" width="10" x="30.8329" y="18.0478" /><rect height="10" width="10" x="69.1561" y="44.3699" /><rect height="10" width="10" x="58.4197" y="41.8758" /><rect height="10" width="10" x="29.1505" y="39.5948" /><rect height="10" width="10" x="91.7505" y="83.1633" /><rect height="10" width="10" x="69.0131" y="33.0042" /><rect height="10" width="10" x="72.5688" y="48.7601" /><rect height="10" width="10" x="66.5483" y="60.3" /><rect height="10" width="10" x="52.2304" y="-1.8515" /><rect height="10" width="10" x="105.0442" y="2.3813" /><rect height="10" width="10" x="107.6722" y="15.7436" /><rect height="10" width="10" x="48.0648" y="46.5093" /><rect height="10" width="10" x="59.3788" y="56.0354" /><rect height="10" width="10" x="82.9701" y="67.563" /><rect height="10" width="10" x="82.1848" y="65.0065" /><rect height="10" width="10" x="75.8563" y="102.8059" /><rect height="10" width="10" x="40.9474" y="94.4346" /><rect height="10" width="10" x="107.7385" y="134.0804" /><rect height="10" width="10" x="61.4749" y="0.4382" /><rect height="10" width="10" x="106.8227" y="7.7715" /><rect height="10" width="10" x="117.787" y="7.1683" /><rect height="10" width="10" x="94.5522" y="18.3174" /><rect height="10" width="10" x="70.8565" y="37.1531" /><rect height="10" width="10" x="70.931" y="68.4293" /><rect height="10" width="10" x="122.5294" y="67.4089" /><rect height="10" width="10" x="55.1082" y="44.0387" /><rect height="10" width="10" x="120.6806" y="63.2609" /><rect height="10" width="10" x="121.3476" y="111.4698" /><rect height="10" width="10" x="64.7021" y="3.8423" /><rect height="10" width="10" x="126.5359" y="1.5245" /><rect height="10" width="10" x="85.1191" y="32.5524" /><rect height="10" width="10" x="43.4922" y="10.6969" /><rect height="10" width="10" x="66.7698" y="25.2526" /><rect height="10" width="10" x="137.0313" y="29.6173" /><rect height="10" width="10" x="103.737" y="39.1502" /><rect height="10" width="10" x="59.5714" y="107.029" /><rect height="10" width="10" x="92.8051" y="90.6698" /><rect height="10" width="10" x="123.7919" y="90.8429" /></svg>