<?xml version="1.0" encoding="utf-8" ?>
<svg baseProfile="tiny" fill="rgb(96,238,222)" height="400" stroke="black" stroke-opacity="1.0" stroke-width="0.5" version="1.2" width="400" xmlns="http://www.w3.org/2000/svg" xmlns:ev="http://www.w3.org/2001/xml-events" xmlns:xlink="http://www.w3.org/1999/xlink"><defs /><rect height="10" width="15" x="0.0" y="0.0" /><rect height="10" width="15" x="0.0" y="7.4778" /><rect height="10" width="15" x="0.0" y="26.7076" /><rect height="10" width="15" x="0.0" y="18.6531" /><rect height="10" width="15" x="0.0" y="42.2816" /><rect height="10" width="15" x="0.0" y="38.8951" /><rect height="10" width="15" x="0.0" y="79.8355" /><rect height="10" width="15" x="0.0" y="37.0907" /><rect height="10" width="15" x="0.0" y="84.7149" /><rect height="10" width="15" x="0.0" y="82.6142" /><rect height="10" width="15" x="12.2099" y="0.4993" /><rect height="10" width="15" x="17.5122" y="14.3801" /><rect height="10" width="15" x="16.5701" y="28.3084" /><rect height="10" width="15" x="5.5639" y="18.9239" /><rect height="10" width="15" x="7.1336" y="54.0933" /><rect height="10" width="15" x="3.8394" y="62.2836" /><rect height="10" width="15" x="16.6561" y="89.6951" /><rect height="10" width="15" x="8.8217" y="36.3687" /><rect height="10" width="15" x="2.4707" y="59.6268" /><rect height="10" width="15" x="4.7117" y="83.3378" /><rect height="10" width="15" x="13.7086" y="0.2644" /><rect height="10" width="15" x="30.4634" y="10.6354" /><rect height="10" width="15" x="33.3457" y="16.8928" /><rect height="10" width="15" x="20.0735" y="45.5432" /><rect height="10" width="15" x="15.4027" y="23.3998" /><rect height="10" width="15" x="29.0252" y="29.424" /><rect height="10" width="15" x="28.5031" y="74.0946" /><rect height="10" width="15" x="32.8946" y="92.9375" /><rect height="10" width="15" x="7.822" y="83.0809" /><rect height="10" width="15" x="31.4245" y="46.488" /><rect height="10" width="15" x="39.0107" y="1.1663" /><rect height="10" width="15" x="14.805" y="9.817" /><rect height="10" width="15" x="20.5049" y="20.5375" /><rect height="10" width="15" x="22.7255" y="27.7543" /><rect height="10" width="15" x="9.3177" y="46.7459" /><rect height="10" width="15" x="29.9918" y="50.9278" /><rect height="10" width="15" x="13.7821" y="39.716" /><rect height="10" width="15" x="24.1149" y="93.432" /><rect height="10" width="15" x="7.4693" y="66.9497" /><rect height="10" width="15" x="49.6021" y="80.481" /><rect height="10" width="15" x="53.5989" y="1.9037" /><rect height="10" width="15" x="12.5049" y="11.3272" /><rect height="10" width="15" x="57.9849" y="30.0324" /><rect height="10" width="15" x="45.6822" y="27.1795" /><rect height="10" width="15" x="46.4441" y="24.9138" /><rect height="10" width="15" x="15.1945" y="71.5456" /><rect height="10" width="15" x="36.3596" y="41.7592" /><rect height="10" width="15" x="43.1406" y="64.0398" /><rect height="10" width="15" x="56.959" y="73.9365" /><rect height="10" width="15" x="52.9734" y="76.5164" /><rect height="10" width="15" x="10.0791" y="-2.4583" /><rect height="10" width="15" x="17.9495" y="15.1972" /><rect height="10" width="15" x="16.5075" y="17.9596" /><rect height="10" width="15" x="11.2489" y="33.0791" /><rect height="10" width="15" x="36.9489" y="23.3074" /><rect height="10" width="15" x="24.1763" y="28.1743" /><rect height="10" width="15" x="72.1425" y="90.3319" /><rect height="10" width="15" x="76.0649" y="38.1497" /><rect height="10" width="15" x="82.9717" y="114.6283" /><rect height="10" width="15" x="44.7609" y="49.2627" /><rect height="10" width="15" x="26.2741" y="-0.3526" /><rect height="10" width="15" x="62.6407" y="14.6636" /><rect height="10" width="15" x="40.8881" y="15.4147" /><rect height="10" width="15" x="64.0494" y="33.9766" /><rect height="10" width="15" x="36.5965" y="26.0759" /><rect height="10" width="15" x="88.3876" y="38.8803" /><rect height="10" width="15" x="77.507" y="38.1413" /><rect height="10" width="15" x="55.175" y="55.6371" /><rect height="10" width="15" x="74.6079" y="96.9867" /><rect height="10" width="15" x="50.645" y="114.1061" /><rect height="10" width="15" x="73.9175" y="3.1974" /><rect height="10" width="15" x="117.5306" y="10.9326" /><rect height="10" width="15" x="77.7206" y="12.1793" /><rect height="10" width="15" x="115.3379" y="30.2616" /><rect height="10" width="15" x="61.26" y="29.6876" /><rect height="10" width="15" x="36.7038" y="56.0711" /><rect height="10" width="15" x="121.8413" y="57.6747" /><rect height="10" width="15" x="30.8779" y="69.1033" /><rect height="10" width="15" x="62.4084" y="78.2762" /><rect height="10" width="15" x="40.1391" y="95.5181" /><rect height="10" width="15" x="26.9422" y="-3.1395" /><rect height="10" width="15" x="51.1185" y="10.205" /><rect height="10" width="15" x="120.6871" y="21.6385" /><rect height="10" width="15" x="44.0444" y="23.0577" /><rect height="10" width="15" x="131.0057" y="46.0316" /><rect height="10" width="15" x="122.5915" y="22.2816" /><rect height="10" width="15" x="19.699" y="88.117" /><rect height="10" width="15" x="122.4578" y="100.4372" /><rect height="10" width="15" x="130.6094" y="59.3556" /><rect height="10" width="15" x="50.7435" y="106.2883" /><rect height="10" width="15" x="120.9174" y="-3.7758" /><rect height="10" width="15" x="86.4137" y="15.655" /><rect height="10" width="15" x="133.1438" y="24.8164" /><rect height="10" width="15" x="154.0567" y="20.6512" /><rect height="10" width="15" x="44.14" y="26.4079" /><rect height="10" width="15" x="57.9484" y="71.133" /><rect height="10" width="15" x="156.7982" y="52.9587" /><rect height="10" width="15" x="84.2815" y="81.6453" /><rect height="10" width="15" x="53.1622" y="39.1131" /><rect height="10" width="15" x="111.4309" y="92.7978" /><rect height="10" width="15" x="71.6466" y="-3.1622" /><rect height="10" width="15" x="71.6464" y="5.4133" /><rect height="10" width="15" x="76.3439" y="26.6286" /><rect height="10" width="15" x="121.2062" y="39.4663" /><rect height="10" width="15" x="159.4405" y="54.087" /><rect height="10" width="15" x="22.8322" y="44.0995" /><rect height="10" width="15" x="134.3032" y="46.6533" /><rect height="10" width="15" x="108.0592" y="57.2" /><rect height="10" width="15" x="119.099" y="104.8767" /><rect height="10" width="15" x="66.9939" y="81.5354" /><rect height="10" width="15" x="48.568" y="4.4845" /><rect height="10" width="15" x="119.0699" y="0.9532" /><rect height="10" width="15" x="52.1811" y="10.363" /><rect height="10" width="15" x="67.4318" y="22.1693" /><rect height="10" width="15" x="41.8391" y="17.5711" /><rect height="10" width="15" x="129.9373" y="42.6148" /><rect height="10" width="15" x="122.8006" y="52.6873" /><rect height="10" width="15" x="69.1078" y="30.8817" /><rect height="10" width="15" x="33.1298" y="98.6968" /><rect height="10" width="15" x="44.2247" y="73.1713" /><rect height="10" width="15" x="79.0408" y="0.5261" /><rect height="10" width="15" x="70.8146" y="4.9776" /><rect height="10" width="15" x="173.4688" y="25.7731" /><rect height="10" width="15" x="68.5502" y="20.6322" /><rect height="10" width="15" x="199.6043" y="47.1994" /><rect height="10" width="15" x="41.0369" y="49.2222" /><rect height="10" width="15" x="132.9036" y="54.1139" /><rect height="10" width="15" x="196.4682" y="34.8844" /><rect height="10" width="15" x="172.6429" y="120.3614" /><rect height="10" width="15" x="173.9189" y="76.8081" /><rect height="10" width="15" x="149.3822" y="-5.1483" /><rect height="10" width="15" x="140.4192" y="4.9424" /><rect height="10" width="15" x="210.408" y="14.7813" /><rect height="10" width="15" x="57.0983" y="25.6166" /><rect height="10" width="15" x="160.0614" y="33.2511" /><rect height="10" width="15" x="185.4986" y="27.4898" /><rect height="10" width="15" x="129.9578" y="39.3116" /><rect height="10" width="15" x="89.6145" y="45.5248" /><rect height="10" width="15" x="39.5032" y="67.9515" /><rect height="10" width="15" x="219.366" y="111.9436" /><rect height="10" width="15" x="31.1085" y="-5.4177" /><rect height="10" width="15" x="150.7602" y="10.5284" /><rect height="10" width="15" x="223.7126" y="32.0911" /><rect height="10" width="15" x="202.8681" y="25.0283" /><rect height="10" width="15" x="140.9075" y="37.9386" /><rect height="10" width="15" x="108.7304" y="74.8391" /><rect height="10" width="15" x="32.3473" y="75.2031" /><rect height="10" width="15" x="202.6667" y="59.4825" /><rect height="10" width="15" x="93.0544" y="67.347" /><rect height="10" width="15" x="33.3564" y="41.1361" /></svg>