<?xml version="1.0" encoding="utf-8" ?>
<svg baseProfile="tiny" fill="rgb(238,96,222)" height="400" stroke="black" stroke-opacity="1.0" stroke-width="0.5" version="1.2" width="400" xmlns="http://www.w3.org/2000/svg" xmlns:ev="http://www.w3.org/2001/xml-events" xmlns:xlink="http://www.w3.org/1999/xlink"><defs /><rect height="10" width="15" x="400.0" y="400.0" /><rect height="10" width="15" x="400.0" y="390.2928" /><rect height="10" width="15" x="400.0" y="372.3007" /><rect height="10" width="15" x="400.0" y="359.0154" /><rect height="10" width="15" x="400.0" y="379.2481" /><rect height="10" width="15" x="400.0" y="335.3208" /><rect height="10" width="15" x="400.0" y="363.7179" /><rect height="10" width="15" x="400.0" y="364.9796" /><rect height="10" width="15" x="400.0" y="322.524" /><rect height="10" width="15" x="400.0" y="280.7001" /><rect height="10" width="15" x="397.4416" y="399.6378" /><rect height="10" width="15" x="385.9237" y="388.1047" /><rect height="10" width="15" x="397.1465" y="375.7096" /><rect height="10" width="15" x="389.7489" y="377.1605" /><rect height="10" width="15" x="395.5911" y="352.0706" /><rect height="10" width="15" x="390.8144" y="362.3007" /><rect height="10" width="15" x="385.306" y="356.4934" /><rect height="10" width="15" x="384.4592" y="338.2629" /><rect height="10" width="15" x="388.9195" y="280.9809" /><rect height="10" width="15" x="383.3971" y="344.4606" /><rect height="10" width="15" x="373.8351" y="400.6573" /><rect height="10" width="15" x="378.0567" y="395.7143" /><rect height="10" width="15" x="391.8278" y="371.0163" /><rect height="10" width="15" x="378.2265" y="367.6117" /><rect height="10" width="15" x="386.1258" y="348.1082" /><rect height="10" width="15" x="371.0822" y="344.4079" /><rect height="10" width="15" x="364.2068" y="315.7805" /><rect height="10" width="15" x="376.3242" y="317.478" /><rect height="10" width="15" x="364.5985" y="307.9235" /><rect height="10" width="15" x="381.8409" y="326.5758" /><rect height="10" width="15" x="349.4817" y="401.3516" /><rect height="10" width="15" x="392.5572" y="393.4628" /><rect height="10" width="15" x="375.2915" y="374.3148" /><rect height="10" width="15" x="379.2193" y="353.7493" /><rect height="10" width="15" x="388.2325" y="364.639" /><rect height="10" width="15" x="352.8685" y="344.318" /><rect height="10" width="15" x="355.5437" y="362.6972" /><rect height="10" width="15" x="380.5556" y="310.912" /><rect height="10" width="15" x="372.4186" y="300.2032" /><rect height="10" width="15" x="367.3556" y="296.1414" /><rect height="10" width="15" x="380.7778" y="400.8072" /><rect height="10" width="15" x="379.3011" y="384.8664" /><rect height="10" width="15" x="389.6193" y="378.8853" /><rect height="10" width="15" x="372.4708" y="361.3722" /><rect height="10" width="15" x="329.9003" y="354.576" /><rect height="10" width="15" x="335.1219" y="373.6784" /><rect height="10" width="15" x="373.9002" y="317.8045" /><rect height="10" width="15" x="373.2869" y="298.0173" /><rect height="10" width="15" x="336.3346" y="291.8928" /><rect height="10" width="15" x="360.2109" y="343.3144" /><rect height="10" width="15" x="376.0534" y="399.7056" /><rect height="10" width="15" x="320.9631" y="390.7797" /><rect height="10" width="15" x="362.1547" y="372.4187" /><rect height="10" width="15" x="350.5136" y="383.6191" /><rect height="10" width="15" x="376.0908" y="378.7733" /><rect height="10" width="15" x="324.4654" y="332.8854" /><rect height="10" width="15" x="360.89" y="356.1795" /><rect height="10" width="15" x="366.5531" y="336.6966" /><rect height="10" width="15" x="374.6786" y="298.5985" /><rect height="10" width="15" x="367.1668" y="287.5502" /><rect height="10" width="15" x="311.1856" y="398.6631" /><rect height="10" width="15" x="375.8718" y="386.498" /><rect height="10" width="15" x="296.5963" y="369.3377" /><rect height="10" width="15" x="307.5773" y="387.6727" /><rect height="10" width="15" x="292.9026" y="360.8157" /><rect height="10" width="15" x="296.9021" y="364.2755" /><rect height="10" width="15" x="310.0119" y="329.3267" /><rect height="10" width="15" x="376.3576" y="352.5271" /><rect height="10" width="15" x="379.7408" y="295.5229" /><rect height="10" width="15" x="299.0297" y="294.8368" /><rect height="10" width="15" x="288.7461" y="402.4036" /><rect height="10" width="15" x="357.5354" y="386.4278" /><rect height="10" width="15" x="335.0606" y="377.3254" /><rect height="10" width="15" x="378.7308" y="375.1298" /><rect height="10" width="15" x="376.249" y="352.5623" /><rect height="10" width="15" x="301.845" y="329.4731" /><rect height="10" width="15" x="375.7096" y="356.3858" /><rect height="10" width="15" x="297.4497" y="322.3372" /><rect height="10" width="15" x="307.6089" y="317.3866" /><rect height="10" width="15" x="302.6734" y="356.7174" /><rect height="10" width="15" x="315.2435" y="396.4789" /><rect height="10" width="15" x="331.6314" y="390.302" /><rect height="10" width="15" x="345.5057" y="378.6852" /><rect height="10" width="15" x="256.682" y="355.9272" /><rect height="10" width="15" x="353.9258" y="348.7612" /><rect height="10" width="15" x="270.0578" y="365.1895" /><rect height="10" width="15" x="280.1285" y="316.5971" /><rect height="10" width="15" x="326.7273" y="321.5097" /><rect height="10" width="15" x="320.5505" y="331.9236" /><rect height="10" width="15" x="265.349" y="265.2191" /><rect height="10" width="15" x="311.1178" y="397.6696" /><rect height="10" width="15" x="352.6349" y="393.1106" /><rect height="10" width="15" x="340.2942" y="391.991" /><rect height="10" width="15" x="354.2154" y="361.3592" /><rect height="10" width="15" x="361.1913" y="354.0668" /><rect height="10" width="15" x="379.2446" y="364.8458" /><rect height="10" width="15" x="309.2648" y="354.3343" /><rect height="10" width="15" x="300.9459" y="314.379" /><rect height="10" width="15" x="353.6629" y="290.2136" /><rect height="10" width="15" x="327.8486" y="326.2322" /><rect height="10" width="15" x="263.888" y="399.9794" /><rect height="10" width="15" x="228.7965" y="383.2661" /><rect height="10" width="15" x="323.7633" y="393.0761" /><rect height="10" width="15" x="294.6376" y="358.6778" /><rect height="10" width="15" x="344.8718" y="360.7953" /><rect height="10" width="15" x="260.116" y="365.7307" /><rect height="10" width="15" x="328.7806" y="339.5702" /><rect height="10" width="15" x="229.2258" y="353.6079" /><rect height="10" width="15" x="377.622" y="355.9848" /><rect height="10" width="15" x="243.015" y="278.1934" /><rect height="10" width="15" x="360.0543" y="398.893" /><rect height="10" width="15" x="211.6342" y="387.8297" /><rect height="10" width="15" x="282.8434" y="393.0676" /><rect height="10" width="15" x="222.7362" y="374.0015" /><rect height="10" width="15" x="297.023" y="368.3349" /><rect height="10" width="15" x="324.1216" y="335.0715" /><rect height="10" width="15" x="271.8701" y="307.9381" /><rect height="10" width="15" x="313.4844" y="331.9313" /><rect height="10" width="15" x="335.4327" y="286.0407" /><rect height="10" width="15" x="346.7441" y="302.8073" /><rect height="10" width="15" x="316.7033" y="398.2159" /><rect height="10" width="15" x="215.4418" y="381.603" /><rect height="10" width="15" x="273.7941" y="381.1931" /><rect height="10" width="15" x="232.4255" y="355.6316" /><rect height="10" width="15" x="263.1808" y="351.1084" /><rect height="10" width="15" x="258.2038" y="378.0118" /><rect height="10" width="15" x="362.2945" y="353.8296" /><rect height="10" width="15" x="213.9127" y="334.8381" /><rect height="10" width="15" x="226.5684" y="338.8236" /><rect height="10" width="15" x="336.6119" y="328.5205" /><rect height="10" width="15" x="246.9491" y="394.1405" /><rect height="10" width="15" x="266.2502" y="385.3031" /><rect height="10" width="15" x="350.7022" y="364.6052" /><rect height="10" width="15" x="307.318" y="386.1734" /><rect height="10" width="15" x="213.7451" y="334.7425" /><rect height="10" width="15" x="190.0946" y="343.5461" /><rect height="10" width="15" x="310.0704" y="303.7575" /><rect height="10" width="15" x="356.4907" y="291.6832" /><rect height="10" width="15" x="183.6985" y="292.6594" /><rect height="10" width="15" x="253.5209" y="332.7907" /><rect height="10" width="15" x="188.8233" y="406.1122" /><rect height="10" width="15" x="277.6249" y="379.9466" /><rect height="10" width="15" x="210.3214" y="368.0107" /><rect height="10" width="15" x="345.5774" y="377.5661" /><rect height="10" width="15" x="250.6525" y="384.1681" /><rect height="10" width="15" x="305.7852" y="378.8164" /><rect height="10" width="15" x="356.5823" y="368.0779" /><rect height="10" width="15" x="292.3689" y="291.5955" /><rect height="10" width="15" x="237.2573" y="291.0729" /><rect height="10" width="15" x="358.0724" y="317.3184" /><text fill="#290" font-family="Arial" font-size="30px" font-weight="bold" stroke="none" x="70" y="325">complex origins</text></svg>